<mxfile host="65bd71144e">
    <diagram id="-Y8d8l6N-oYrbBz49zS8" name="Page-1">
        <mxGraphModel dx="2083" dy="1220" grid="0" gridSize="10" guides="1" tooltips="1" connect="1" arrows="1" fold="1" page="0" pageScale="1" pageWidth="1200" pageHeight="1920" background="#ffffff" math="0" shadow="0">
            <root>
                <mxCell id="0"/>
                <mxCell id="1" parent="0"/>
                <mxCell id="8" value="&lt;span style=&quot;&quot;&gt;&lt;font style=&quot;font-size: 12px;&quot;&gt;send_cta_audit_events&lt;/font&gt;&lt;/span&gt;" style="edgeStyle=none;html=1;fontColor=#000000;labelBackgroundColor=none;strokeColor=#000000;align=center;shadow=0;verticalAlign=top;entryX=0;entryY=0.5;entryDx=0;entryDy=0;entryPerimeter=0;" parent="1" source="3" edge="1" target="9">
                    <mxGeometry relative="1" as="geometry">
                        <mxPoint x="279" y="263" as="targetPoint"/>
                    </mxGeometry>
                </mxCell>
                <mxCell id="3" value="&lt;font color=&quot;#000000&quot;&gt;Engage&lt;/font&gt;" style="rounded=1;whiteSpace=wrap;html=1;fillColor=#ffe6cc;strokeColor=#d79b00;" parent="1" vertex="1">
                    <mxGeometry x="93" y="233" width="120" height="60" as="geometry"/>
                </mxCell>
                <mxCell id="6" style="edgeStyle=none;html=1;fontColor=#000000;strokeColor=#000000;entryX=0;entryY=0.5;entryDx=0;entryDy=0;entryPerimeter=0;" parent="1" target="9" edge="1">
                    <mxGeometry relative="1" as="geometry">
                        <mxPoint x="365.9999999999999" y="263" as="sourcePoint"/>
                    </mxGeometry>
                </mxCell>
                <mxCell id="5" value="VPC" style="sketch=0;outlineConnect=0;gradientColor=none;html=1;whiteSpace=wrap;fontSize=12;fontStyle=1;shape=mxgraph.aws4.group;grIcon=mxgraph.aws4.group_vpc;strokeColor=#879196;fillColor=none;verticalAlign=top;align=left;spacingLeft=30;fontColor=#879196;dashed=0;labelBackgroundColor=#FFFFFF;" parent="1" vertex="1">
                    <mxGeometry x="422" y="-15" width="1189" height="613" as="geometry"/>
                </mxCell>
                <mxCell id="11" style="edgeStyle=none;html=1;exitX=1;exitY=0.5;exitDx=0;exitDy=0;exitPerimeter=0;entryX=0;entryY=0.5;entryDx=0;entryDy=0;entryPerimeter=0;labelBackgroundColor=none;strokeColor=#000000;fontSize=12;fontColor=#000000;" parent="1" source="9" target="10" edge="1">
                    <mxGeometry relative="1" as="geometry"/>
                </mxCell>
                <mxCell id="9" value="consumer-appservice&lt;br&gt;POST /auditCTA" style="outlineConnect=0;dashed=0;verticalLabelPosition=bottom;verticalAlign=top;align=center;html=1;shape=mxgraph.aws3.ec2;fillColor=#F58534;gradientColor=none;labelBackgroundColor=#FFFFFF;fontSize=12;fontColor=#000000;" parent="1" vertex="1">
                    <mxGeometry x="461" y="216.5" width="76.5" height="93" as="geometry"/>
                </mxCell>
                <mxCell id="13" style="edgeStyle=none;html=1;exitX=1;exitY=0.5;exitDx=0;exitDy=0;exitPerimeter=0;labelBackgroundColor=none;strokeColor=#000000;fontSize=12;fontColor=#000000;" parent="1" source="10" target="12" edge="1">
                    <mxGeometry relative="1" as="geometry"/>
                </mxCell>
                <mxCell id="31" style="edgeStyle=none;sketch=0;html=1;entryX=0;entryY=0.5;entryDx=0;entryDy=0;entryPerimeter=0;shadow=0;labelBackgroundColor=none;strokeColor=#000000;fontSize=12;fontColor=#000000;" parent="1" source="10" target="30" edge="1">
                    <mxGeometry relative="1" as="geometry"/>
                </mxCell>
                <mxCell id="10" value="{{env}}-kinesis-consumervdp-cta" style="sketch=0;points=[[0,0,0],[0.25,0,0],[0.5,0,0],[0.75,0,0],[1,0,0],[0,1,0],[0.25,1,0],[0.5,1,0],[0.75,1,0],[1,1,0],[0,0.25,0],[0,0.5,0],[0,0.75,0],[1,0.25,0],[1,0.5,0],[1,0.75,0]];outlineConnect=0;fontColor=#232F3E;gradientColor=#945DF2;gradientDirection=north;fillColor=#5A30B5;strokeColor=#ffffff;dashed=0;verticalLabelPosition=bottom;verticalAlign=top;align=center;html=1;fontSize=12;fontStyle=0;aspect=fixed;shape=mxgraph.aws4.resourceIcon;resIcon=mxgraph.aws4.kinesis;labelBackgroundColor=#FFFFFF;" parent="1" vertex="1">
                    <mxGeometry x="632" y="224" width="78" height="78" as="geometry"/>
                </mxCell>
                <mxCell id="19" style="edgeStyle=none;html=1;exitX=1;exitY=0.5;exitDx=0;exitDy=0;exitPerimeter=0;labelBackgroundColor=none;strokeColor=#000000;fontSize=12;fontColor=#000000;" parent="1" source="12" target="17" edge="1">
                    <mxGeometry relative="1" as="geometry"/>
                </mxCell>
                <mxCell id="28" value="ga_asc_integration" style="edgeLabel;html=1;align=center;verticalAlign=middle;resizable=0;points=[];fontSize=12;fontColor=#000000;labelBackgroundColor=#FFFFFF;" parent="19" vertex="1" connectable="0">
                    <mxGeometry x="0.0527" y="-1" relative="1" as="geometry">
                        <mxPoint y="-2" as="offset"/>
                    </mxGeometry>
                </mxCell>
                <mxCell id="12" value="vdp_ga-python" style="sketch=0;points=[[0,0,0],[0.25,0,0],[0.5,0,0],[0.75,0,0],[1,0,0],[0,1,0],[0.25,1,0],[0.5,1,0],[0.75,1,0],[1,1,0],[0,0.25,0],[0,0.5,0],[0,0.75,0],[1,0.25,0],[1,0.5,0],[1,0.75,0]];outlineConnect=0;fontColor=#232F3E;gradientColor=#F78E04;gradientDirection=north;fillColor=#D05C17;strokeColor=#ffffff;dashed=0;verticalLabelPosition=bottom;verticalAlign=top;align=center;html=1;fontSize=12;fontStyle=0;aspect=fixed;shape=mxgraph.aws4.resourceIcon;resIcon=mxgraph.aws4.lambda;labelBackgroundColor=#FFFFFF;" parent="1" vertex="1">
                    <mxGeometry x="873" y="121.5" width="78" height="78" as="geometry"/>
                </mxCell>
                <mxCell id="21" style="edgeStyle=none;html=1;labelBackgroundColor=none;strokeColor=#000000;fontSize=12;fontColor=#000000;exitX=1;exitY=0.5;exitDx=0;exitDy=0;exitPerimeter=0;entryX=0.5;entryY=0;entryDx=0;entryDy=0;" parent="1" source="12" target="20" edge="1">
                    <mxGeometry relative="1" as="geometry">
                        <mxPoint x="951" y="329.9999999999998" as="sourcePoint"/>
                    </mxGeometry>
                </mxCell>
                <mxCell id="29" value="&lt;span style=&quot;&quot;&gt;&lt;br&gt;&lt;/span&gt;" style="edgeLabel;html=1;align=center;verticalAlign=middle;resizable=0;points=[];fontSize=12;fontColor=#000000;labelBackgroundColor=#FFFFFF;labelBorderColor=#ffffff;" parent="21" vertex="1" connectable="0">
                    <mxGeometry x="-0.0295" y="5" relative="1" as="geometry">
                        <mxPoint as="offset"/>
                    </mxGeometry>
                </mxCell>
                <mxCell id="35" value="if &lt;b&gt;tealium_visitor_id&lt;/b&gt;&amp;nbsp;&lt;br&gt;forward to tealium platform" style="edgeLabel;html=1;align=center;verticalAlign=middle;resizable=0;points=[];" vertex="1" connectable="0" parent="21">
                    <mxGeometry x="-0.0151" y="-1" relative="1" as="geometry">
                        <mxPoint as="offset"/>
                    </mxGeometry>
                </mxCell>
                <mxCell id="17" value="" style="shape=image;verticalLabelPosition=bottom;labelBackgroundColor=default;verticalAlign=top;aspect=fixed;imageAspect=0;image=data:image/png,iVBORw0KGgoAAAANSUhEUgAAA+gAAAPoCAYAAABNo9TkAAAACXBIWXMAAA7EAAAOxAGVKw4bAAAAM3RFWHRDb21tZW50AHhyOmQ6REFGZFJib3FzNDg6MixqOjQzMzMxMjIxNTcwLHQ6MjMwMzE1MTMyIFWcAAAFB2lUWHRYTUw6Y29tLmFkb2JlLnhtcAAAAAAAaHR0cDovL25zLmFkb2JlLmNvbS94YXAvMS4wLwA8eDp4bXBtZXRhIHhtbG5zOng9J2Fkb2JlOm5zOm1ldGEvJz4KICAgICAgICA8cmRmOlJERiB4bWxuczpyZGY9J2h0dHA6Ly93d3cudzMub3JnLzE5OTkvMDIvMjItcmRmLXN5bnRheC1ucyMnPgoKICAgICAgICA8cmRmOkRlc2NyaXB0aW9uIHJkZjphYm91dD0nJwogICAgICAgIHhtbG5zOmRjPSdodHRwOi8vcHVybC5vcmcvZGMvZWxlbWVudHMvMS4xLyc+CiAgICAgICAgPGRjOnRpdGxlPgogICAgICAgIDxyZGY6QWx0PgogICAgICAgIDxyZGY6bGkgeG1sOmxhbmc9J3gtZGVmYXVsdCc+Q29weSBvZiBHQTQgeCBCb29rYXNzaXN0IC0gMTwvcmRmOmxpPgogICAgICAgIDwvcmRmOkFsdD4KICAgICAgICA8L2RjOnRpdGxlPgogICAgICAgIDwvcmRmOkRlc2NyaXB0aW9uPgoKICAgICAgICA8cmRmOkRlc2NyaXB0aW9uIHJkZjphYm91dD0nJwogICAgICAgIHhtbG5zOkF0dHJpYj0naHR0cDovL25zLmF0dHJpYnV0aW9uLmNvbS9hZHMvMS4wLyc+CiAgICAgICAgPEF0dHJpYjpBZHM+CiAgICAgICAgPHJkZjpTZXE+CiAgICAgICAgPHJkZjpsaSByZGY6cGFyc2VUeXBlPSdSZXNvdXJjZSc+CiAgICAgICAgPEF0dHJpYjpDcmVhdGVkPjIwMjMtMDMtMTU8L0F0dHJpYjpDcmVhdGVkPgogICAgICAgIDxBdHRyaWI6RXh0SWQ+MzI1NTBlMzAtYWZiYS00OTE1LTk3YWItYjBkNmU2MTE2MGEwPC9BdHRyaWI6RXh0SWQ+CiAgICAgICAgPEF0dHJpYjpGYklkPjUyNTI2NTkxNDE3OTU4MDwvQXR0cmliOkZiSWQ+CiAgICAgICAgPEF0dHJpYjpUb3VjaFR5cGU+MjwvQXR0cmliOlRvdWNoVHlwZT4KICAgICAgICA8L3JkZjpsaT4KICAgICAgICA8L3JkZjpTZXE+CiAgICAgICAgPC9BdHRyaWI6QWRzPgogICAgICAgIDwvcmRmOkRlc2NyaXB0aW9uPgoKICAgICAgICA8cmRmOkRlc2NyaXB0aW9uIHJkZjphYm91dD0nJwogICAgICAgIHhtbG5zOnBkZj0naHR0cDovL25zLmFkb2JlLmNvbS9wZGYvMS4zLyc+CiAgICAgICAgPHBkZjpBdXRob3I+RmFiaWVuIENsYXJ5PC9wZGY6QXV0aG9yPgogICAgICAgIDwvcmRmOkRlc2NyaXB0aW9uPgoKICAgICAgICA8cmRmOkRlc2NyaXB0aW9uIHJkZjphYm91dD0nJwogICAgICAgIHhtbG5zOnhtcD0naHR0cDovL25zLmFkb2JlLmNvbS94YXAvMS4wLyc+CiAgICAgICAgPHhtcDpDcmVhdG9yVG9vbD5DYW52YTwveG1wOkNyZWF0b3JUb29sPgogICAgICAgIDwvcmRmOkRlc2NyaXB0aW9uPgogICAgICAgIDwvcmRmOlJERj4KICAgICAgICA8L3g6eG1wbWV0YT4YDTMDAAD6tUlEQVR4nOzXMQEAIAzAMMC/5yFjPRIFfXtnZg4AAACw6m0HAAAAAAYdAAAAEgw6AAAABBh0AAAACDDoAAAAEGDQAQAAIMCgAwAAQIBBBwAAgACDDgAAAAEGHQAAAAIMOgAAAAQYdAAAAAgw6AAAABBg0AEAACDAoAMAAECAQQcAAIAAgw4AAAABBh0AAAACDDoAAAAEGHQAAAAIMOgAAAAQYNABAAAgwKADAABAgEEHAACAAIMOAAAAAQYdAAAAAgw6AAAABBh0AAAACDDoAAAAEGDQAQAAIMCgAwAAQIBBBwAAgACDDgAAAAEGHQAAAAIMOgAAAAQYdAAAAAgw6AAAABBg0AEAACDAoAMAAECAQQcAAIAAgw4AAAABBh0AAAACDDoAAAAEGHQAAAAIMOgAAAAQYNABAAAgwKADAABAgEEHAACAAIMOAAAAAQYdAAAAAgw6AAAABBh0AAAACDDoAAAAEGDQAQAAIMCgAwAAQIBBBwAAgACDDgAAAAEGHQAAAAIMOgAAAAQYdAAAAAgw6AAAABBg0AEAACDAoAMAAECAQQcAAIAAgw4AAAABHwAA///s17EAAAAAwCB/62nsKIsEHQAAAAYEHQAAAAYEHQAAAAYEHQAAAAYEHQAAAAYEHQAAAAYEHQAAAAYEHQAAAAYEHQAAAAYEHQAAAAYEHQAAAAYEHQAAAAYEHQAAAAYEHQAAAAYEHQAAAAYEHQAAAAYEHQAAAAYEHQAAAAYEHQAAAAYEHQAAAAYEHQAAAAYEHQAAAAYEHQAAAAYEHQAAAAYEHQAAAAYEHQAAAAYEHQAAAAYEHQAAAAYEHQAAAAYEHQAAAAYEHQAAAAYEHQAAAAYEHQAAAAYEHQAAAAYEHQAAAAYEHQAAAAYEHQAAAAYEHQAAAAYEHQAAAAYEHQAAAAYEHQAAAAYEHQAAAAYEHQAAAAYEHQAAAAYEHQAAAAYEHQAAAAYEHQAAAAYEHQAAAAYEHQAAAAYEHQAAAAYEHQAAAAYEHQAAAAYEHQAAAAYEHQAAAAYEHQAAAAYEHQAAAAYEHQAAAAYEHQAAAAYEHQAAAAYEHQAAAAYEHQAAAAYEHQAAAAYEHQAAAAYEHQAAAAYEHQAAAAYEHQAAAAYEHQAAAAYCAAD//+zXsQAAAADAIH/raewoiwQdAAAABgQdAAAABgQdAAAABgQdAAAABgQdAAAABgQdAAAABgQdAAAABgQdAAAABgQdAAAABgQdAAAABgQdAAAABgQdAAAABgQdAAAABgQdAAAABgQdAAAABgQdAAAABgQdAAAABgQdAAAABgQdAAAABgQdAAAABgQdAAAABgQdAAAABgQdAAAABgQdAAAABgQdAAAABgQdAAAABgQdAAAABgQdAAAABgQdAAAABgQdAAAABgQdAAAABgQdAAAABgQdAAAABgQdAAAABgQdAAAABgQdAAAABgQdAAAABgQdAAAABgQdAAAABgQdAAAABgQdAAAABgQdAAAABgQdAAAABgQdAAAABgQdAAAABgQdAAAABgQdAAAABgQdAAAABgQdAAAABgQdAAAABgQdAAAABgQdAAAABgQdAAAABgQdAAAABgQdAAAABgQdAAAABgQdAAAABgQdAAAABgQdAAAABgQdAAAABgQdAAAABgQdAAAABgQdAAAABgQdAAAABgQdAAAABgQdAAAABgQdAAAABgIAAP//7NexAAAAAMAgf+tp7CiLBB0AAAAGBB0AAAAGBB0AAAAGBB0AAAAGBB0AAAAGBB0AAAAGBB0AAAAGBB0AAAAGBB0AAAAGBB0AAAAGBB0AAAAGBB0AAAAGBB0AAAAGBB0AAAAGBB0AAAAGBB0AAAAGBB0AAAAGBB0AAAAGBB0AAAAGBB0AAAAGBB0AAAAGBB0AAAAGBB0AAAAGBB0AAAAGBB0AAAAGBB0AAAAGBB0AAAAGBB0AAAAGBB0AAAAGBB0AAAAGBB0AAAAGBB0AAAAGBB0AAAAGBB0AAAAGBB0AAAAGBB0AAAAGBB0AAAAGBB0AAAAGBB0AAAAGBB0AAAAGBB0AAAAGBB0AAAAGBB0AAAAGBB0AAAAGBB0AAAAGBB0AAAAGBB0AAAAGBB0AAAAGBB0AAAAGBB0AAAAGBB0AAAAGBB0AAAAGBB0AAAAGBB0AAAAGBB0AAAAGBB0AAAAGBB0AAAAGBB0AAAAGBB0AAAAGBB0AAAAGBB0AAAAGBB0AAAAGBB0AAAAGBB0AAAAGBB0AAAAGBB0AAAAGAgAA///s17EAAAAAwCB/62nsKIsEHQAAAAYEHQAAAAYEHQAAAAYEHQAAAAYEHQAAAAYEHQAAAAYEHQAAAAYEHQAAAAYEHQAAAAYEHQAAAAYEHQAAAAYEHQAAAAYEHQAAAAYEHQAAAAYEHQAAAAYEHQAAAAYEHQAAAAYEHQAAAAYEHQAAAAYEHQAAAAYEHQAAAAYEHQAAAAYEHQAAAAYEHQAAAAYEHQAAAAYEHQAAAAYEHQAAAAYEHQAAAAYEHQAAAAYEHQAAAAYEHQAAAAYEHQAAAAYEHQAAAAYEHQAAAAYEHQAAAAYEHQAAAAYEHQAAAAYEHQAAAAYEHQAAAAYEHQAAAAYEHQAAAAYEHQAAAAYEHQAAAAYEHQAAAAYEHQAAAAYEHQAAAAYEHQAAAAYEHQAAAAYEHQAAAAYEHQAAAAYEHQAAAAYEHQAAAAYEHQAAAAYEHQAAAAYEHQAAAAYEHQAAAAYEHQAAAAYEHQAAAAYEHQAAAAYEHQAAAAYEHQAAAAYEHQAAAAYEHQAAAAYEHQAAAAYEHQAAAAYEHQAAAAYEHQAAAAYCAAD//+zd2W9cZx2H8e97zsx4jbM6aZq2SaBNKtQlJBUIUYEa9YKKP4AbEHdIveGiEleIGxCbSik3pVdc0IIoQi1LVYq60CVRqy7KvjhOmsVxEqc4YzvxjGc55/1xcWbGzh4ndvwmfj6SFSs+9rzxOPY8fpch0AEAAAAACACBDgAAAABAAAh0AAAAAAACQKADAAAAABAAAh0AAAAAgAAQ6AAAAAAABIBABwAAAAAgAAQ6AAAAAAABINABAAAAAAgAgQ4AAAAAQAAIdAAAAAAAAkCgAwAAAAAQAAIdAAAAAIAAEOgAAAAAAASAQAcAAAAAIAAEOgAAAAAAASDQAQAAAAAIAIEOAAAAAEAACHQAAAAAAAJAoAMAAAAAEAACHQAAAACAABDoAAAAAAAEgEAHAAAAACAABDoAAAAAAAEg0AEAAAAACACBDgAAAABAAAh0AAAAAAACQKADAAAAABAAAh0AAAAAgAAQ6AAAAAAABIBABwAAAAAgAAQ6AAAAAAABINABAAAAAAgAgQ4AAAAAQAAIdAAAAAAAAkCgAwAAAAAQAAIdAAAAAIAAEOgAAAAAAASAQAcAAAAAIAAEOgAAAAAAASDQAQAAAAAIAIEOAAAAAEAACHQAAAAAAAJAoAMAAAAAEAACHQAAAACAABDoAAAAAAAEgEAHAAAAACAABDoAAAAAAAEg0AEAAAAACACBDgAAAABAAAh0AAAAAAACkJvrAQCYR8xnfzonyV3pwimvX+k6BMnsvHvwfM3789JXOKnx9QEAADD/EOgAZplvBFssn9YUJeOypKZaUlObDcvk5GTK0szLXLuUXyZFOSm/QIoKirJqa9bbXP5jcAlmk7HtnJM3rzT1SpNESZoqTVOZ90rTRGZekpNzUhznJDnl8nnFcaxcLlYURYrjnMxMZibnnBzBDgAA5gkCHcAMO39m1KpnZaVDKo8VVR3ZqZ56n5LyqMbGR7Uk3SZzWaCbnGSplF8m69okFTpV6XpQuc616lzYKy3apCjffkGfE24329QYb0qSRKXxcxo7e1aVSk3jY8Mqjp5TqVRWpVrRRHlCaZKoWp1QmtQkOUVRpLaOLjnn1NnVrY6OdnV2dGjhgi4tXNKr9rY2dXd3a0FPj9ra2i66TaIdAADcjpxd6tEWAFyXyW8nydkB2enXZcVPpXM7VS8X5StDKsTVbGb0ovfIcttarzvV1SGXW6h8+0LZks2KF90vLX9Ccc9quSjOlsw7jtK4KazxSxRlM9u1alWjoyM6cuQzDZ0e1tjoiIojI6pWa6pMlFWpVC9axH7hj5uLIttMhUJenV1dKuQL6unp1uLFS9Xbu0y9SxfpnrX3qbOzQ1EUX/5jAAjO9TzU5P82gPmKQAcwQ7Jl6sn450qO/VU6/gepckwuLTWWsfvJPeit6y+nuejdyRr71Z2cFHdIXfcrueM7Kq/8vnqXLRaz6LOrucy86bND/Tp29Kj27e/T+HhJ5XJJtXpd3mdbx5s/Upp/Zn83jRt0jXvbOZll75/Pxyrk8+ru7tHaNXfrgQc3aPWaNSoUCpccIwAAwK2KQAdwg0ySyZK66odfku//pVz1gGSRpKixeN1P2Ws+nY88uT/d5CTn5MwrNWnMvqDeDT9Rbt33prwHkTZjzOTNFEWR6vW6PjvYrw8/2Kr9B/rlLWqc49YMaZNzNr0QvwLnJO+lKJLMzr8N76U4jnXP3av0yMaHtWHTV9XW1ibvPfvVgQCdPDGow/17labpNV1vkgqFgr7ytW8oly/M7uAAIEAEOoDrZyazVH5kp5IDz0gn/ya5VKa8ZElrb/l0w/ySmjOqkuRixS5R4iP5nkdVX/8z9dz1iFzcLiL9xjR/JKRJojPFMzrU369t23dq8MRxpd4UOdcI6MkZ8smYnp0xNZvbTIqi7OsgG6fpnrvu1EMPb9S69eu1bNky5XI5ToIHQmGmjz/6UK+9/romyhVd6fkdMtk2mo72Dj311FNatHjxzRglAASFQ+IAXAfLZlgro6oPviw7+IxUPthYzxzJqd66ckbiXJJa+9adzBIlFslJcmMfSLueVL3ypPJrvisVelqzu5geM5P3XqeHTupAX5927d6tkyeH5BvlHTVmsqeGeHMZ+mz+qnfqx578xYCTmdPA4CmdHPqPtm3frkc2bdK6dfdp+YoVkrGHFZhzTopzOTkXy0WRzF/5G0X2vcRl1zJ/BGCeItABTFMW5+dGzyh36Ddyg8/L+Yksw81mLsivcPtZdmXL5iOXqr3WJ+v7qcpnT6py74+1ZFFHdh2Bdk2aD4RHRka0Z88e7dq5QwPHB1tvc60wD+cB8+Qed6c09Tp16pTeePMN7d69Sxs3btCDD31ZXV1d7E8H5pxd8HL1q6/lOgC4XRHoAKYtGduv2s5fKS7+U84mJPONaL65D6omn57N5JKiNPCckuFtSr7+e+UXrG6cW0ecXc7UeO3v26v33t+q44MnVKtV1Tz0r3ldqCbH5lStVnX02IBOn/5cR44c1ebNm7V8xUoiHZgj2XaU6b7TrAwFAG4ZBDqAaTDVxk9p+NOntbD4sqI4kbN05vaZX4fm7Zqlil1ZvZU3dWDLb7Xi0ae1uKeNhe6X0QzbpFbV22+/pbffeV/NVQe+tQz11nmknB1S5yR5VapVbd+xUwPHj+vbT3xLX3rg4eya7MK5HCYwr5h5mfdXvxAA0MITCAO4ZlY9JzvwvHpH/6hcVJ3zOJ/KOSf5RDUfaXXlBcV9v5BqZ3UrRebNlKZexwcG9NJf/qS3/vtuK9j9LfpgOhu+SYrkvZeZ0/BwUS+8+Gf9+7XXVCqVsgW2Aa8GAG43URQriuO5HgYA3FKYQQdwVWY+i9+9v5MdfVaposZZuzN4CNyNap5W5hPFUUm5oeeVHF2q3L0/4HT3KcxM1WpVe3bv0pYtW3VqaGjKHvO5Ht2Nax4yJWeSZU/P9977WzQyUtRjj31Td666p3EdXw/A7Lu2fecAgEkEOoAryvbvRqocflHuyK8lVcOL8wYnkzViU8mIagef09nCRi1d+6im7qmej5ozx5VKRe+++44++fgTjY+PN+7Bmfu8tE5hdpN7wy81juzaqW9r/oLA3dBzqrc+fmtGPbudvfv2q1wa1+OPP67Va7+oOI6JdGCWmbdbdlUOAMwVlrgDuKrRgY9U2vesIlfLDnFXeHHe1BqXmeLKYRX2/UhWHZvbQc2x1n7zJNGrr/5LW7d+oFK5NOUevPH70jmnKIoa+8BN3kvm1Tr9vfmSjyPl42jKU7bZBbP3vrEYws3YdvHs6eNSHTk2qFf+/g/t37c3uFPpgduSc3KOh5oAMB3MoAO4PDOpOqKuYz+XJfuV2pST0wPWHKNzTvmJT5QcfEH5B344L0/zbj2FWvF/euXlV9R/6IiaEXzjstnu7GC5bN93HEeK47xWrVyuVatWatHSO7Swp1vdXd2K8wW1F7IfO7V6qiRJVJko60yxqNMnBjQweEpj50pKkprq9bqkZvT71qz89YzbOcl7yblUw2eK2r5jh9atv1+FQmEmPgkALsM5zmUEgOn6PwAAAP//7L3nkxznnef5ebJ8VXvvLbwlAQKgJ0VQEihRI4mambgdaXZW2tl7cXFx5h+4mHt9G7H3buc2NIq43dHOzYgzEqkRKZAgDAHCESRso2Hae++ry2Y+9yIzq6uBRndWo12BzydC6kJWmiefejL5fJ+fUwJdoVA8ESkN4gOnkFNfAxqCrZMUbiUEEikNNCTzrf8nseL3KKus2exmbQrjoyN8+MFvedDWAayi7JFFKr6bhdroQmgE/AFKy0qpq6tlW2MDFVW1FBYVruoac3NzjI8M86DtIW1t7YyMjhKNxkgmE9hOX2Y7nN+ElKBppiWvubmZEyfewefzrap9CoVCoVAoFOuJEugKhWJJpJRE50aY7viQ/NgwAiNrxLmNGZPuxsc04Y7/TKL4/8Dj9fJNiEW3BezExDinz5ymrbN70fZMESxkShdCEAz4KS0rp7qqnO3bd9LQ2EQoFFq2Lcue3zKz5eTkkJOTQ11DI6+8Ms/g0BBtD+7T2d3H0NAA8/PzVmsWMiE8yUV/YRHB9KZobm7mnXfeoaysLPMOUCgUGaNi0BUKhSJzlEBXKBRLYGbejY9+SWDmLJrlWpxN4tzGrI8uCE78gcTkn+MpP7DZTdowIpEIZ06f5uvrN9B1w7IkZ25BT7moSvB5vTQ1NbB3zx62bd9BUXGJtY9ICfFHwwhWFVYgBIFgiKamZpoam5iZneX+/fu0tLTQ1dWVJtSfLM7T22WL85qab6YXhUKxGQgh0FQMukKhUGSEEugKhWJp9AjewfcRxjDZXibHAAKJh7hG/gVKd4P27MceCyE4depTrt+4hWHYwtm5OLf3NQUugGTntkYOHT5CQ1MT+Xn5aI9kQl/L+P5F5xKCvLw8Dh8+zI4dO+ju7uby5cu0tz1M5Rp41EpvW85tcf7ee+9RWlq6Zu1TKBQOUEHoCoVCkTFKoCsUikcw3Yb18RbE8D9aru3ZaT0HOxYdhIwxNXADX9UoOUVVz3yyuAvnTnPx4qVVZSu3k6ppluErFPTx2uuv88orr+L1+tDsvtvAPrSzxOfn53Ng/3527drJpYsX+PiPpzAMfZE7+6Pi/Kc//Sm5ubnfyCSBCsVmYhg6hq5vdjMUCoUiq1ACXaFQLMIWMcbQRTASoAnEM1COSgqBL96CJ9KCoAJwbXaT1hxbjLfcucGnpz6zLOdGhpZzU9i6XKblvLa2hu997x0aG5utckly0yxitriWgM/n581vvU1dbR1//OMf6ekbMMWAIdE0MylcY2MzP/nJT5Q4Vyg2CTv/g0KhUCicowKDFArFIoQQ6Ik4saF/TMvand0IJEiJLzGMa7oFqSfMIt3PICPDQ5w9d4FILGGVJ1tdzLnb7eW5A/v4yXs/obl5e6ou+VaYbKeEupQ0NW/nz/+Hv+DQ84fw+/xomsDlctHcvI133/0+JSUlSpwrFJuEEAKhqammQqFQZIKyoCsUigXMTHAYk7dwzT0EoSGy33gOmCLdMCK45m6APgeu1ZUB26pIKYlEIlz76hpDg0PWVqe1wxcnW/P5/Lz11lscPfoCwWCOuccWFLh2m0pKSjhx4juUFufx2ZnPqa2r5513TlBdXbNoP4VCsbGYC4TPyH9EFAqFYoNQAl2hUKRhRZvP38clJ5DCjSC52Y1aEyTCXHyY7UYmwghf8WY3ac0wXdsNOtoe8PVX14knEmnfOTiBpc+FEOTm5nL8+HGOHDmC2+3OGnGbm5fPS6++QW5ePlU19VRVVW12kxQKhZRIVWZNoVAoMkIJdIVCsYBVDkcbv09SSDPBGs9G1XCB5e49cw3mOyCnHp6Bu7Pdt+fnY5w7f4G58BzgLGN7KoRBGmiaRiiYw7vvfp8DBw5mXeyoEAKfz8+hF44ihKbc2hWKLYDQBJrr2cv3oVAoFOuJCgxSKBSLMHRJ/9gUbmGJv81u0BoiAGHMgxHd7KasKVJKzp0+SVdXD/aCg3OvUommaXg8Pl5/4zWee+45NE1Dy8K4UXNRQUt9VigUWwDl4q5QKBQZkX0zMIVCsa7I5Az50Y8wjMVxyc8C0ioWl5gZ4lm5NyEE46PDXLn6FeY9ScdJ1u065wLBkRcO8dJLLwPZZTl/lGyz/CsUzzKrKfOoUCgU33SUQFcoFItwCZ2Qax4D8UxZzxcx2/NM6HMpJclEnHNnzzAfjVkl0jIrqWYYkj27tvPmm2/g9XqVuFUoFAqFQqHYRJRAVygUizArZz/rWCI0y0W6EIL29jZaWu+jac49HhY0uKSyoozv/+CH5OcXKnGuUCjWFFVmTaFQKDJHvTUVCsUjSCujd9br1yURgLBNzFkuSA09ya2bN5gLz1uupM7ux779vNwc3v3+OxSXlD6Tv7VCodgKqLeLQqFQZIIS6AqFYhFGUrdytz+bSGA6lv6v7ERKSUd7Gx2dXYBASrPm+UrYaxKaEOzfv5/6xm0YhqGs5wqFYs0xdAM9qW92MxQKhSKrUGXWFArFYp55nSaYT1hCVsqstaLruk5XTx8zs2HMxHDSQVk1gTQkmktQUV7OoUOH8fn82doFCoVii6O5NFxuVWZNoVAoMkEJdIVC8Y0j212HpJRMjI/z8MEDEomE4yzJZm1wcLs97N23n/KKSp6FWvAKhWIro94vCoVCkQlKoCsUCkUWYYvxkZFhBgcHsMuqOc3cLhEUFhawb98+PB6Pcm3PAh5dgEn/96O/3zfh93xSf3zT+iIb+kEaEsPIrrSjqX6Vjwd7pfflsz6+FArF5qEEukKhUGQZiUSC7u5uItHYyjunYU4oBduaGigvL1MTzC3KowI8U8H1qHDL9t/5UeGZSX88S33xNOPiSeJ93VminVuNJ44v4azU6Kb1rUKheGZRAl2hUCiyCCkl0WiUhw/upyaETlzcbSu736tx+PALaJrLcnlXk8qtwqPJ+qRhkNSTjIyOMjY8QCIWYWI6zMTULJom8LjdBPxeckJ+fF4vFTUNFBYWEQgEFgk4wzDQsqzU1aOiR0qJnkwyMzPNyPAgs9MTZj8IjYnpWTRNIzcUQAioLCulqLyGYMBPXl4emsv12LOSTePerNAg0TTNtEZLSSQWY7C/j6nxYSat+x8Zn8brcRMK+gn4PVRU1VJcUkZBQUFqPKSfa7lrLUd6QUe7F59USm2phYStwuLnTaLrBpH5MOPjE4wO9TIzF2Z8chYpDUDD63UTCvjIzQlSXl1PSVERwVAOmlVKzvYUyLZnTaFQbD2UQFcoFIpswZpYT0+OMTE1bW1ymonenFbX1TdQVV1rbtmiE+dvGvZCSTQaYW5ujtHREcZGx2l70EpX7wCGrpNIJiyX28d/M2HJJZfbg8ftpqqynOraeqoqK6mpqSaUk0sg4EfTXFv+N7fHcyIRJxwOMzkxTk9vP+OjI9y7f5/5SBRdT2DoxmN9YQtHgcTt8SKEID83xM5du6morKK0pIji4lKCoSBut8c8Zgv3hy2Wk4kEs7OzjI2N0tbWxkBfF/1D40QjUQwjad2zWOSOLZBoLhdut4fK8mKqa+pobt5GRWUl+fkFZngLPJYkM5FIkkjETBEvBIaUCLtn7SSTmiX0MatBaC4Xfn/gSXfhPP5mA0hfoIlGo8zNztLX18voyAj3799jZGwSw0iSTCTM/dPGWNrSGW6PB01zUVJUyK7du2lqaqS4pIycnBA+ry9rk48qFIqtgRLoCoVCkSXY6dw62tuJRiIgNMfx5+Y+kucO7sfldmcg7BXrQXr/T01N0dXVRWf7A/oGhhgdGSEaiy9xlMaC961IO4dASkgmkySTSdo7u2nv7EYgqaiooLq6ivr6RpqamykuKkRzuZcUZ5uNlAbRaJTe3j66Otvp7u5mcHCIuXB4iTGuLWq+3R8CkFKQsATW6Hic0S8uIoQgLydEVXUNTY31bNu+g5LSMnw+X+r4LYNVXSIaiTA42E/bw4e0dXQyPDjEfDT6yM5pY2LRdoGuG+h6jK6eAbp6Brh27StKy8rZtWsXu3btpqqqEo/bbb5XrP7r7u7i9s3rxONx3C6NpG6gaaZQd2kaiaSO1+NC1w0k4HFp1NZUc/TlN5a+FUNiyM2PQbefFSklM9NT9A8M0Np6n77eHgYHBzEeG2BmvwrSn7WFJaBEIgkk6R8cYmBwiCtXrlJWVkp9XS179u6jorIKv9+vvJQUCsWqUAJdoVAosoz+wVEkmiVGVt7fFPGSgoJCDhx83tqmJo2bhWkZNZgYH+PBw3bu379HZ2eXtehiigBh/V38+y78e7kFltSijRAMDY8wPDzCnZZWKiurqK+t4MDB56mprUv5KW9qEjFLwMzPh7l/7y737z+kq7ubqckpSzTJVDXEJ/WFfZ4nYY//mbk5Zu7fp6OjnVu3b1NeUcWhQ89TX1+P1+vbdDFlXz8Wj9Hd1cmtW7fo7OxifGLScp+2rb/pfeGkvKL5NxZP0N/fz8DAAC0tLezevZtjR49QWFScstZPT01z685dIvMRy7VbsMhvI/3iQoA08LoXwgeWiovXxOa6fNtjIxKeo7X1Lnfu3KGn1yxRaY8Nu9lL9evC2Hq8o83jBOH5eTq7uuns6qb13n22bWvm4MGD1NTWpbw1FAqFwilKoCsUCkWWIIQgFo0yMmxmb3devsgUe7t27cbnD2y6EPmmku5ee/XqNS59cZ6JyWli8TiGIReJhafxcHhMuAqIxWJ0dXXS09PN3db7HDp0mGMvvkROTg7SMJ4YQ7zeCCHo7+/j05Mn6erpIRKJWn1hWzxZ9Hc1PNofsXiCvv5B+gcGaW9vp7m5iddee43KyqrNide33MWFgInxMT779BMetncwPTNrjYOn6wu5aCHGFJ5DQ0OMj43R0f6Qt45/m927d1vjwIoZFwuidPGbQi567UjE8mNHiE331BBC0NXVxcmP/8Dg0DCRaDS16GN3zmrHl+2ZZF8HJMMjo4yNT9Da2sqRo8c4fvxta1/13lUoFM5QAl2hUCiyAHtyNz4+Rv/gEEJoGYg4c5JdU12xnk1ULIP9+01OTvCHD3/LzTutgGa6D1vJpdZCjC6+5qJ/YV5GZ3RskpMnP6G1tYUf/MmPqKur3xRhahgGn5z8mMsXLxGOxtE0MAwrilxKhNBYymq5WhYLdQMpNaanp7h27RrtDx9w4rsnOHTkqPX9BoopK1v47Vs3+M37vyUSCafu3TBAW6NusO/JtJZDIpmkq7uPX/3q7/j3//6v2bFju2U1l0gpHL5flt9HGgZyk8qsSSlJxON8cf4sJz/9jKQucbk0a4wBWIsRaxbuY57HXGDSmZic5uOPT/LwXgv/5mf/jry8PCXSFQqFI5RAVygUiixiZGQUKUVGRikpISfop7KibP0apngiUkpisRj3Wlv49NPPGBkdSxNgmdWxX931zb+mAAZNM0AIunv6+fXf/5rj33qdPfufIycnZ/3Fg5QkkkmGBvo4d+4sN2+3Yrv0LwinBZG+fgiEMAWwEBqT07P893/8DR2d7bz19ncpKCgw91rH/rDdysPhOU59+imXL13CQCxafNO0tR0bi89rJ3wT/Nf/+t/43om3cXt8mCHj2Z2jQtd1piYn+Oz0Ga5fv45uYC2G6Sy4AKwcHpAJi58z87l2uQTtXX387d/+Z378ox/T1NyM2+XadK8ChUKxtVECXaFQKLICc0I3MjRg/dvZzNKOkcwvLCavoERZcDaQVOxrJMK5c+e4fPky8/PzjyR427gk11KSysBtimKYmp7i/d9+wHOdPbz99nFKS8vWrzSWlCSSCW7fus3p06cZGR2x+iLdtX/tL7tMc9LCCcxFr6vXrjMwOMKJE+/Q2NSI2+1el76QUmIYOkNDQ5w+fYa7d+8ihanGN2Js2Oc1haQgkYhz6vQ5igrzicYia7Y4IjRtw8MnpJR0d3Vw9vRnPGjvSsXvm7e0/u++9K6z+3dsfJwPPviA42+9yb4DB/F6vEqkKxSKJ6IEukKhUGQB9lxuemos0yMBCAaDeDxuJdA3CFvgTE9NcObMWa7fuEnUysC9mRn0lxZ/gtu37xCLzvP28ePU1jdY4nWNx4kQXL18kc/PX2RictJuxRLt2TjSk4KZCPoHBvjw9x/yrTffYP/+A3i83jXtC9ty3tvdycmTn9Ld24euJzfl/u32AMzPhwmHw2t98g3/YR/cv8dHH33M0NAgtlPGo4tiG8GjISsjo6P88eRJPF4v+/Yf3IClAoVCka0oga5QKBRZxMDwJEJIpHQamCpBQmFeEJfm2vRJoWEYxOPxrFkkkFLi8/kyaq8tBKYmx3n/n/4/2rv6LNfarYdttTYMnYcPO0jEY/zgT/6EyqraNV/MOXf6E86cu8B8JLro2lsJ27tgdGSUT0+dIpSTy86dO9esL+yxMTTQy+9+9zsGh0dTMeGbzXq0wfQU2LgY9M72h7z/z//C9PS04yz/68/CtSenZvj97z8iEMxh27ZtasFUoVAsiRLoCoVCkSUYepJoLIqUAk1zNqm3LaFFJWW43O5NdauUUjI1Mc7Jkx8zNDKecr/fqgghiMWivPrqa7z88ssZTaaTySQfffQRD9p7rNjX1XW9LWIXykBZZdis/xdi8SBYTYZvIezkbDrtnT2c/OMn/MXP/jJVI3wtOHf6Ez46+SlSLsRXr0YzpeqdL5SkTstSjpWf4ekEr5RmFvOJiUn+6Z/+kZ///OfU1tatiZgyx1SMX//6HxgZG7fu5+navKgvrOdJWAtzbPIiiNA0NJdr3a8jpWRkqJ8PP/wdU1PTjz0XzhGAgf1eStWYT7PAL34eM1toEkIwOTXJL//u7/jf/7f/lbKyciXSFQrFYyiBrlAoFFnC5NQ0sVgs4+M0TcPnD218+aglSOpJJibGGRjItFTc5iAldLQ94KWXXnI0iZZSEo1GOX36M+623kfTQNeNjJN9PVZuWtqCwcqwbV4ttd3ebzVCz4xNX8jyfffeA95//33ee+89/H7/U4kHXddpbb3LuQuXMQxb/GTGwv3bsfOWyLc2mWJMWGJJpiVRfFINdSfXM//Ozob55d/9iv/xr/+aqurqpxZTk5OT/PM/v58mzjOPvV8Qi2LhWLt7UiMjfcHC3LKavnh6ZKpN63YFKZmanOSjjz+mb2DEWnBKz7fgDCHsN1Jakj6hoVmLDHoyicT0ArL7MtPnzR4/elLnH/7hH/jFL35OXm5+ZjesUCieeZRAVygUiqxCrGKSLXC7N1+cg6kj7CRkdoKwrYoQoOuSmalx9GQCt8e77P5SSnRd527LbW5cv04ymVhVlvYFgWgKQa/XQ25OkGAwh0AwhM/nTblFS0Nnfn6e8NwMs+EIsViclCCS0rE0WoiXNTN7X79+g7zcHE6cOIHbs7oYbF3X6e3u4tSnp5idnc34eEgXlKaw0TSNnFCQUChIXl4BHq8nJUINwyASiRKdn2EuHCEcjmCgp5KDORVTiy2lgvnwPJ+c/AM//OGPKSpZXSUEKSXRSITTn52ira3D8qpYnSeBLfKEEPj9PgoLCggEgvgDfsAOfZFEo3Gi0XkmJyeJRmIYGClhv1FZ2qWUSGP9riWlJJlIcOPGddrau9MWPVYTc26Ocb/PR3FxIXn5BRQX5uH3+Qnl5jM7NYFuGExMzTIzO83Y6DiRaBRDN5A4f87NZ0xjdGSU85+f563jbz/1QphCoXi2UAJdoVAosgqZZvF0doSmCULBIJqmbfokULKQJAu2XgxyOraVbHI6TDKp4/asfMzg4CCff36e6emZVUsg2+W5qKiY2uoKGhqbKC0tITc3j5zcPPx+fyqu19B15uZmmZmeZHximu7uTrq7exkbH0fX9VUJFcMwRfpXX31FXW0tBw4+l7F/vpSS8NwsF784z8jICAKRZttdnsXuxGZfuN1empsbqamuoqamhtzcXIqKS/B6F9zwDcMgHA4Tnp1icmqG/v5+2tvb6B8YQtf1NCu8c4Fqi70HbZ2c+/xzvvOdEwRDoYxzEui6TkvLHe7ebcUw9FXFRNsLWh63oKKymqamJiorKigrLyMnJ5dgMGCV7wMpzcWK+fAsQ0ND9Pb28vDBQ0bHx1OZxTc3Lvvpsdvf1d3F1StXicdjpJdQywQB5OfmUl1Xx/69e6goL6ewuBif12u66WsuDF1HIkkkksxMTzE4OEhvXy/3791jdHQcQ0oEzhbFDMMgISU3b96krq6Ovfv2my1XIl2hUKAEukKhUHwj2BqT8WycfArCkSjGCv1nW1svfH6GwaGRDH2JTddv23U7JyfIwQMHOXT4MAUF+YSCoWXjeP2BACWlZTRKyd69exmfGOf+/fucO/f5YyERzpslmY/EuHT5EpVVlZSWVTgWpfbiwc2bt2hpfUhS10FIR5rJLnuWyk8gJTt27ODo0WPU1tYSCgbxeJ/syeDz+SgqKqK2Hnbt3s0LLxymvb2d85+fY3R8KnVvTi3qdnt03eD2nRYaGho4ePB5s3RYBmJqcmKcq1evMDs35/hZTHfttwV1YWERbx9/k8amZnJz85bNE+D1+igoKKCisprdu/dy+PBh7rbc4cKFS0Ri8Ueu4/hWMkIIgdDW57k3+8Tg3NnTjE08XhXA4VlwuzV27tjByy+/RHlFFfl5eQs5/dN+Y/sZ1DQXpWXllJSWsXPXLvbu3s358+e4e68NaZV0g5X7VErJ9MwMly9foaq6hqKi4qx8QyoUirVHCXSFQqHIIhYSSjnN4m4KppnZOQzD2BJW9Gwh5WoO6MnkE/ezraxXrlzhxq079tYMriQRwoVhGFSUl/HDP3mXxubtuN1uDMNIuTOv3F5BMBQiGApRXV3D8wf387sPPuTe/ba0OGQtI1fvru4ern55jW9/+9t4vStns7fdd+fmZrnwxUUSyfiipFrLtz896Zbp9fHGay9z9MWXCIZyMh6/Xq+P0rIKSkrLef7QYS6cO8PZ8xeJx80wADNOeXkhtRBqIAmH57l+/TqNjU3kFxQ6ElOGYWAYBpevXKW7p9ex+/VCHLUENDQhOHhgD99953sUFBZZizmGo77QNA1/IEB1TR2VVTXs3nuAD373L3T39ALCUT+sHsF6LMylPBta7/DwYccq4/gNvF4fJ757nCNHjuLzB63cBmLZFtt9LoTA5/PT0LSNmroGTn/2GZ+e+gyXS1iLVMvft93m9vY2Wu7c5NXX3rS8o7ZGOJJCodg81FtAoVAosgSXy2VNpB/P3r0yW8GCnp1IJMlk/InfCyGYm53l7Nlzq44rdrkETU0N/OIXv2D7zt24Uta6zBZU0sVDSVklf/EXP+OVV14yXXUzcGu2LbdSSm7euE5/X29GFvSPfv87JibGsUXKypZqkRLD0oCq8hL+4t/8OW8e/zbBUA5gjv9M+8LOeeDzBXjjrW/zve+9Q25uLukWdCeLDlKaoqujo4uHbW2LwjSWO07TNPp6Orly+eKiOP+VWFjU0AgF/Zz4zlv8+Cd/RmFRsbVgk5mQS++L2tpafvrTn3Fw/z7cbjeaxqqrDKyEYegY+tqXGBRCMDc3ywe//1cMYzWJESU5oRz+7M/+lNde/xY+fzCV4yDTdggh8Hg8fPfECd761hsIoaVCDZZvg+WdYcBX164RnptV4lyhUABKoCsUCkXWkJMTxONxEAj9CFJK9OTq4l4VJrHY0gLdji++9tXXjI2NZpQ52swCLXC7XLx87AV+/u/+isKioqfOFG4LDSklgWCQE9/9Lse/9TqhYMBqn7O2mdZVydT0LA/bOkgmk8vfm9Xuvp4ubtxuIdNYb/tvfW0lf/pnf8r2nXtS97Pq/kglJAS3282xYy/ygx+8S2lxEaA5XrSwM8XHEwm++OIis7Nzji6v6zpXr35FLP5kD4zl2h4K+vnut9/i9TffwmclEnuavrDHRWFhMe/+yY84eGAfLs2VGhdrLdLtLOhribk4YnD3zi1GxyYsF3onv+HC5/LyMn72s59y8ODBp37e0tt14p3vsW/PLuywBEcIGBga5eIX51PnUSgU32yUQFcoFIosQdPcZJrFXQiQhsHs1DiGntzaWdm2MPoymahnpqe5desmQixk5naGKbYOHNjP2985gT8QMreukUpKZfoOBDn20iu8eOyoYxFmigSZ2vfr618zNja2bNskEItF+eKLL0gkdMfj1FyoMOV8c0Md7/3kT6mpa0zdw1phL1w899zzvPPOOwQCfsfHpvfb4OAgra0tK4p7IQT9fX3cbjEXKzITXoLcUIAffP8ER198FaFl5j2w7Jmtzi4oKOCtt95i985tLMS5r8kl0i+25qpfAHOzc3x9/QYLWetXbobtLVFSXMw777xDY1Oz9d3TtS/dm0LTBM8fOoTfqrTgBGHlRPjq6+tMjI0+VVsUCsWzgRLoCoVCkSVomkZeTmhVk+i5+Qi64bzslmIxPu+TPRe6ujqYnBjPKNbati7v2rWLt9/+Nl5fwPpu7f2MhRAEgiFeff1NDh9+PjNLqSVqJicmuXPnNrCQBG4pRkZG6ezqyciTwC6DVlhUxPFvf4fK6tqU1XutsUX1nn37eOfEd0A6r8tuL1oYhsFXV6+gJ5PLL1hIyfkLF4hGI5m0MPXp2Isv8vzhYykvgPWgrLySd77/Lvn5BevybpDSWHa8rOqcwMBAHyOj445j521x7vN6OXbsKDt27Hw6bwRsYb6wEDY2MsgXFy5w5ux5Eknnbv12VY7JqWlaWltT51YoFN9clEBXKBSKLMCesNVUlQLOBZaUpgVrbGKK5DKJzhTL43I9nlNVSsnc7Ax3bt9mLhxBCDPx2HLYCdCEEBQXFfLKS8coKS3NOL46U4QQBIMhfvyjH1FZXuJ4kccujSal5Pat68SikSe6LAsh6Op4SHh+Pi0T+/Jtsi23bpfGi0dfoKGxKYO7Wh3mdQVHjr7IwYMHLcu6swUBKU17Z3ffACMjw0/Yx+yvoYE+OjvaMF3p7fJuK7XL7I/dO5o5dvQYkvVNGialpKS0nB+++z20dVq+W/NRLSXtbe3MOx5ndisk9fX1HHzuedxu96qfN/v3NT1mDIaGBjn5xz/wy1/+ij989DE93V0kMxDoC+cU3Lt7J8MFHYVC8SyiBLpCoVBkEeXVTY4m+zZ2IqxoNEoikUjFoG42ttVJ0zb2f+lJ1FZiIRmfhneJclZSSkbHxhkaGUPTBIZlCXNyTiGgqbGRuobG1XTfqvH5Axw99iJul5YSqithWwkHBkfo6u6xtj0+hiKRKB1dvVaWdAdlpgwD20W5rq6effsPPpVwygQhBG63m7eOv01pSTGGYSfGWwmJZmUAv3njq2WTxXX19BGNxdOeuZWSypmZv3Nzc3nx5VfILyhc96RhtkfBzj372LVze2rbWp5/LcusSSmZnp5icGgQ3Uo+t9I4s7PUBwNBjrxwmIKCglXdo/1bG4ZBJBLhwb27/Pe//3/5v//Tf+LUZ2cZn5w2a6UL57kX0s+taRq9/QPca72bcdsUCsWzhSqzplAoFFlEaUkxmdikzMmrZHpqktGRIYqKitaraY4QmBmPzfrNG1/uLZlMrJzszMJc3BAE/J4nCqXZmSmikYhpUXMQZ2yKc0FBfi7Hjh3D5/NviCAFq7el5MDB57nbcpeH7R0ZHG32xf27N9m5c+djbZZSMjw0wNjoCI6Tw1lu7D6fnwMHD1BSUrJxfWEJ06LCQvbt28vn578gmUw6jpuXUtDe0U0kMk8gEHzs+1g0SndnO4lE0hLeTmKlBS63RnNzM7W1dau5rVWhCYFwuzl69BgdnT1EY7GM8lwsy8rrEhkzMjLC6OiY4wR/mga6LqmtqWLbjp0ZX8++RjwWY2xslO7ubr6+fp3BgQHiCdMryfZ+0FPl1TKpNgDm+DCIxeK0tbWzd98BvF5vxm1VKBTPBkqgKxQKRRZgT/eKiwoJ+j3MRxPOjxWCaCxOV3cvO3ftWZ8GOmoH5OTl8fIrrzEXnt/w60sJd+7c5sGDhxkcIykpzMPrcT+2PRGP09/fTzgczsArwUwkt2vHdqpqajNo/Rpgqa5gMMiBA/vp6etzbO02j4e+viHi8fgi8WDf+9T0DHPh+YzEnSmSC9ize/f61PlaBiEEXp+P7Tt2cvtOC2Nj4w5LoEk0TTA2Ns7I8DD1DY2PZQKfnplheHQ8FafsLJGZIODzs3PndnJyc5/izjLE+sEqq2qora2hrb1jzbxsbIvzWp1LSsnMzAyRaMzxcWbZM51du/cQDD6+mLLUddKOZmpijO7ePgb7+7j/4CFDQ8OWEF9Y6Fl8jPO+s4eMPX58Ho/5vo7O4/V4NvyZUCgUWwMl0BUKhSIbsCZqObm5lFdU0tnVk4EQMnfq6+lKlcLaLAKBIHv3HdiUa0ciEfp6TRftTERkYUkZ2hIx6NFohIG+fnTDcHQ+cx+Jx+Pm+cOHcbs9Gx9uYLl21zU0UFZWRl9fv0NRano/jIyNMTo8QHVNfep8UkqSiQTDQwNEIxHs7O8rnVbTBLou2b5tG3n5+ZsyLqWUlJaUUlFWxvjYBAhndeyFgERSZ2xsbMm4+cmJMcLhOZz2hb1Pbl4e9XX11raN7Y9QKERNTTUdnZ2pagRPOzxNF/e1cdO3F8WGR4aJxZwLdMMwCAaC7NyxY8Xzg9lmXTd/2wf3W2lpaWFkdIxIJIqu62mLMZm6B9g5BuxQFytBnIBgKEhzYx2HDh2morKaUDBHiXOF4huMEugKhUKRJRiGgcvtoaysgs6uXmurM3ElgYdtnUxMTlBUVLyu7VyJdOGRPilez89SSubDs0xNjmfSUoSQBIK5wOK4fyEEsVic8ckJ6/wOTmft4/F4qatf+zJiTpFSkp+XT1lJMX29/Y4FJAiSySTjY+NUWQJdWOeLxWKMjk1gpCzGTtohcAmdnbt2IoT2mBV6IxBCkJuXR11DA/cftpNMxtH1lROPSSlJJhOMDvdj6Dqay5V2ThgdHUvVSs9E5FZXllNUvHGu/ja2N0FtXQOh0E3m5mYc9cPKJ147nSmEIJ6IMzkxhWEYDsNUzHdAXW01xSWlqW3ppL8vAAb6uvjy2g1a791nZmZ6Ue6O9PdJpm2X0s5fAGAgDUFRYR4vvHCYA88dIj8vH5/fD6xPBQOFQpE9KIGuUCgUWYI9gaytreTLL82SaU4twQKBbiS59fWXvHH8u4vOt5mkt2E9P0spmY/EmJ6ZS7N+rdQ2s28LC/KXFJDxRILZuQjOY67N3bY31qFprk0RpHYzfD4fpSXFeDxuEsmVwyUMA1wuSOqS8anZxecTAt3QicdjOLcYm4nWSkrKqK6u2bSxaF+3sqKcQMDL9HTccekuXdcZGTOrI3g0LSXCEokEM7NzSMNw9mwK8/kUGuzdt2/dE8MtR3FRAQV5IWZnZxz3w3JICdJYOy+RRCLJXDgMOHv32d/XVVcgHkmQaQtuKSWR+TC9vb2cPnOO4cF+IrF4WkJJMAydTPMqL7ivmw++ppmx6V6Pi2Aoh2+9+SZ79u4mP78w1Z704xQKxTcXJdAVCoUiS7AFwPYdeygoPM/ExEQGx0qk1Pjq+k0OHXmRvLx8Oz33OrZ46yCEIDw3R3jeLGHk1OXYJaCiomzRd7awnp2ZsSbuzuPPQbLv4KGM27+mCIHL7aG0ogpfIIA+p6OvUA/cFmtCGITDs4sWF4QQxGNx5ubmTEHmsC41mCEbgWDOpi1W2JSWVRAIBJmamnX0SNiPTng+QjgcpiAtJj8eizI7M+k49EFazhlul5uy8oqnu5GnJBgMEQiGcFK+zBFSrlmOOCEEiXiUuekJxxZsu4pFSWV9WpMkAix3+RF6uzu5cfMmPT19j8WWp52JzGLLRWqMCGF6zRTkF9DQ0MCundvYvnM3fr/fao+93zfjXaxQKFZGCXSFQqHIMgKBAA31tRkJdCnNmN+x8Unu3X/AkSNHgM3Io77xmO7ISXp7zazbtvhYfo5vTtBDuSFKLdfYhW/Mc46PDqPreoZTd8gvyM/8JtYQ22oY8AfwuFyO2m6Lc8PQmA/PkUwm8HhMUSqEIBoJE56dwWlP2P1fXlZkfjY2b7FICEEoGMTt9mSY4M4MO0nq+qKNiUSC6Pw8wuHIMC20kryQj1AwsLqbWAOEEARDOeTk5qUE5tOmYBeaWFOPAGnIVHy8o/2lAAxCQVsMG8zMzNDb3UlXdx+t9+4xNTVJIj0b+2NJ35yTnjROCEEoFKK8tIjde/bS0NBIeUUlPp8vtZ9ZbnJVl1IoFM8wSqArFApFluH1emlsbOT27TskkrpjUWEYBmiC27dvsWfPHnJycta/sVsEPZlkbGwCw5BLWMeWwvw+v6CQ/MLiRRZeaZm8IvOzSEO31ObKbZBSkhPwpsTCZs3L7fsIhQL4vG6rT5xaviXzc7Mk4/GUQDe3G0ipZyRuQVJckGc3KrObWGM8Xi95uaFUU5x6WCQTceKxaGq7BOLxBHPzMciwVFleXj6eTS6t5fF48Pt91hhx5qK/Mmvn4h6JxZmeC2d8XCgUpL+3h7a2Nrq6u+jp6WVm9vFwl9ULc3MxwD4+LzeHpuZtHDhwgPKyEkpKyx+zkCuLuUKheBJKoCsUCkUWIYRA01xUVddQXFLKyMiwY4FlWupgaGiQ3p5Odu3e98xPEm1hPTU9Q2vrvYxddxvqatA0DcMwlkgulXl7XG4XbtfmxRin43Jpq9LFQixkr7b7M6nrJBL68gcuQV7B5iYstNE0jeKC3AyjPgTxWITI/Fxqi5QSQ0p0Q8dOMrjyODH3yy8sxePxre4G1gghBDnBIC7NRVJ/+vJohmFg6JmPi+XOp2fULjN+4MypT+nqGyASiZBM6pi16U1xnulzbL9HFxwDLHd2DPLy83n55VfYs3sX+QUF+HzmYtxm5hVQKBTZhxLoCoVCkWVIaZCfn09ZaTHDwyMIITGMlYWFOamUTE7OcPnKNSqrasnLy/tGTB4ftt4malk6M4mRrmtoBtbO2iWkM2v7RiDWqB1SQiJpkEiunRDbeFbr1rz0uLCFfiYlwCWbG4e/QKblw56MpmmLMtxvDoIbd+4hBFY2dsP6fTIX52DlpnBpqYVRl8tFTVUFL730IvsPPp/yLNnsvAoKhSJ7UQJdoVAosgxN08jPL2D/vv10dnYzFw6jaStPNjU78ZlL0NfXS1dXJ/v3b05N8o0kGo1y6eo1YKnkT49jeyOEggHKy8tSxz1O5rN7KbZQYr41aIbtIuz3uggFfMTiK2eETyfd+ry5iFVJUpfbvcjVP3U2sSDSnbv9S/RkApfLvXXGyJqw2fdiWBnUrTAfC6e/y8I7Q1jeIwKvx0tubpDtzc3s3X+A+vp601q+KLZ8s+9boVBkK0qgKxQKRTYiJXX19RQWFTE7N+cs8zQLk83Z2TkuffEFNTU1FG9C3eWNwJ4oX79+g7HxCYex52DXIW5qaiI/L/9xS5j12esPWBNy521KJJJbw9IsJYmknlHCrYVDzXJR9nnASt61CnNkLBLJ+Jj1wDAMxidnM4jFN8Wa1xcgEMpdlNFe0zTcLjfO3afN/aYnR9H1JC6352lu5alJJPVVx2I/ipkw7eld5W18Xje5OUGmpmdX3jlFZs/o4yw8/zmhEOUVlezetYu62mrq6htTHgJ2dvhn8V2qUCg2FiXQFQqFIhsRgoLCIvbs2UN//4CVoGvlWejCPpLunj6+uHCBH/7ox+vb1k1CCMHMzAwXL17I5CiklHjcbhoa6vH6Ho8JtoV+bl4RmuZCdxhjK4RgPppgft5ytWdzbIvSKn0Vno8SS+homnAo1E2rYE5ePh6v1S+WGHF7vLhcbscC106qNT41YzdqU63G8XicufC8Ve3AST6HpcW3ALweN6GAFxxVC1hgbnaWRCKB17d5mdx1XWcuPI++hrXL1zKkw6VpeN0b4TJvj0WzbmBBYSF79+5l+7YmysoqKCoufsxKroS5QqFYK5RAVygUiixF0zQOHTrEtWvXGB8fy8BCbGoh3TC4+uVVykuLePGVN57JmMmvvrrG6OgYmVgzhdDIy8+juroWTdOW7BMhBMFgAJfLuUC3GZ8Yp7GpKaNj1hL7fiKReZLJpGX1W15ImocINA38gSAu98L0QUqJLxAilJvPxJSzUmv2tUbGJk1tvol5EKSUhMNhEom442PsJGEulwuPx7Pw7AiB1+slGMpBIhw5ztslEKfnooTDEUI5eU9zO6tGSkksFiMWi65ZHXQhNIRYu9/W4/XhD+YgJqbXzMqfjhmjjpUUEqoryzly5AV27NpLbm4uPmvB7ll7TyoUiq3Fs58ZSKFQKJ5RDMOgoKCAI0eOWC63aa7HK2C6KUtisSS/+/1HdHZ2WNu3SAazp0RKSU9XB199eTWV9XmlSbWlr5BSUlleRklJ0bL75+bmZug6a+7cca8lk4PWHinR9SSjQ/3EohEMuXI5LVuQCuEi16qTvXA6icfjIRgMpvpwJWw9Pjc7w/wWiEMfHR4kGok4Fl62lT0nFCQnFFr0ndvjxR/MRdOE9Zwtj734YRg6/f19q2j92iClZHpqgsmJ8bU98RppWSklHq+PvPx887RPed70PAFmaILpSeJ2Cfbs2s5/+Otf8D/9z/8Lr7z2JqWlpan65UqcKxSK9UYJdIVCochSbOvua6++yo7m+pTVxxnSOodA1yW/++3vGBzoNwV6lot0aRjMzkxz4YtLjIxNptyRV1p8sL8OBf3s3buXvPyiZTPce30+CvMzryXfOzhELOpcDK41EohFY4yNTzkujaZppkh3aVBUkPvY9y6XC5/Xi9PhY2bA1hgfH6ezo92KVd74cSelxDAMenr7Cc9HHbm327hdLspLi3C5XYti0N1uN7m5IVwOy+mZ1zMwDOjv68rYI2OtkFIyPjHJ9Mxc6vd+WgxDX7Mya3boSTAQMAukrXK4pD92ZvI4DZ/XS1FRMa+//hp/9Vd/yU//8q/YsXM3Xq83NS6VMFcoFBuFEugKhUKR5Xi8Xt46/jah4ELsqtPJpJQSocHI6ChnTp9iYmxk08TSU2O1O5GIc+3qZR48uA8YKSvZSpj7aFRWVtLY1MxyrtpSgs/no6S4JMNGCoZHxrjfegfHanYdGB0bo7d/ABwnRTPL+3m8XkpLy0j31RBCEPD7qagox+VyObaiCyExpODhw4fIJerMbwRSSmamp+jr60HXkxmEiAjcbg+l5VVo2uKYaE3TKC0pMoVkhrXsOjp7GLOewY1ESomh6wwP9jMfnkvF4j8tQmhrFr4ghMDj8VBcmG8tTmZy7MLn1PtAQn5+Pju2N/Gdt4/zs5/9lO9///vs2LkHn8+nhLlCodg0lEBXKBSKLEdKSW19Awefey5tIuo8hlQaoOtJ7t57wKlPP2FifDR13mxDCPji/DkuXLzEfCSaEp/OEpdpaJrGjh07KCwqXmFvSSAQpKqmJlXCaaWJfKrsFoLbt1uIx+MbXhLdLOWVpLurg/GxsYxyFgBUlJVSUlZhtjvdauzxUFpaht/vx2nWbMOQaJqgra2d4aGBTRlvQgjGxsYYHTXdup2XRAOPx0VxcfGSC1rFJWXk5ObhPOTEtOZOTE7T19efyS2sGeHwHD09vSR13bqnpz/nWrqECyFwud0Ul1UQDAbJxHf+0XspKy3h9dde5ifvvcePfvRjXnntdaqqqhd5zChhrlAoNgsl0BUKhSLLsa15x44epa62xkoWZ5eCcnK8ORlPJJLcvNPKf/v7XzMzY2bXziaRbkidTz/+V06f+5y5cCTDtgsMw6CyrJTnnj+0orAQgNvtpqy0mIDfn6oHvhJSmqK0o7ubvr6e1LaNQghBeD5My50WjAwTgUkJ1VXluN1L55ctLMwnLzeUYUJ2yeTkNHdaWjbco8AwDGLRKPfutTI5Oek4MZoQZqxyaWkZ5RUVqW2p74HCggJKivKs0ob21uWR0iASidDV0U40kun4fQqs63R3d9LW3rmmCfWlNJBr4StvIYSgpKiQ/LzMxpn9G1RWlPGT937EX/7lv+Xb3znBzl27KCouQXMtDlNQKBSKzUQJdIVCoXgG0DSNquoajhw9ht/vtzInG47iSFOWXSset39giP/4H/8vent7M8oMv1lIKUkmYnzyhw85dfY8sZhzV2Ubc04uee31lykoKHB6ACVllRQUFiKEGbO78tzeqkM/E+bSxYtEo9GM2vk0GNZg+Pqra3R124sDzsSIuWAh2bXv+Sd+X1FZTUlpOc7rapnX1g2du3dbGejvW1Ut9dVgLpRoTExM0NLSYpUVW9nyb/++Qki2Ndfj8/mX3MkfCFBTU4vb5bassis/iIZhtuvWnVbaOzoyvqfVYkhJMpngyuXLxBOJ1ALfmuAg90MmCKCwqIiiFT1clmiKlOTm5rJ7127Kyivw+vypuvXrhX3v8/MRopHIom0KhULxJJRAVygUimcEKSX79+3l0MF9aJYF2GkMrD1nNBPNSaLRGL/61S+5fPE80Wg0Je62EvaCwtDQIH//63/gzIUrlshx3tZUtWMJe3bt5Lnnjzh2yxVCUF5eTkNDo+Uev3JiLdNbwSy+1d3Ty8P7dzemby1BOjLUz5dXryCxhcLK48O2GNfXVlNfU/3Ecnxer5emxvq0UlQrndfsL8MwGB4eoeXuHRKJxIYJmFgsyslPTjI+MW3FzTsriSalxKW5OHDw8BPHipSwZ+8+cnMCJJOGtd/y57YT1EUi81y+dIHJifF1Hxv2QsXNr7+ivaMrtW2tEJqG5lrDuuVCEAzlsmfPHoKBgL1pRWzPlZ7ePm7cuoWeTK5dm1YgmUzwr7//gP/nv/wXHj54QCKR2JLvU4VCsXVQAl2hUCieEYQQ+AMhvnX8bRoa6i2LbuavedOiLgiHI5z85BSfnPwjQ4P9SMPYEgnk7DYkEgnu3L7N7z/4gNbWe44F56PYbrNvf+e7CE3LKFGY1+ulsb6WQMCPlGLFxFpm35rtnJqe5szZ8/T19mJYfbteSGBycoLf/OZ9xsancBq/a4sfl0vjxWPH8CxlMbavISXN23ZQWFiIE2u0KZrMz0ld58tr17nb0mIet559ISXxeJzzn39O691WQGYcc93YWEdJ6ZMTBAohKC4po7a2NuVevXJ/kGpLW3sXV69cxkxyuH59IYRgeHCAj06ewliremjprFPYQk1dPbm5IZzmO7A9V2KxOF9evUpPT8+6v8uk5Zlw9cpVbty4QV9fH7/5zT/y+bmzTE6MbYl3qUKh2Jooga5QKBTPEEII8vML+f6771JTXZnalin2xDE8H+HKlSv89l9+y7kzp4jMhxfts1ETzPTrGHqSvt5uTn78Bz744EPa2jswDJ3MxHnKV5lAIMDrr79KVWWVtSmT5FOSxuZtlJSUYoorJ8cs/O0fGODUqU+Zn1u/mH8pJfNzM3x+9jRdPf3WrTvNhmYeX1JSSmPz9idaz23KSkvZ3tyElM6ysi/0hWRqaopPPzlJb1cbtqBaa6SUSEPn8qVLnD57bhXB1gK/z8trr76Gy+Veto0ul4uXXjyGS8vwXoTpVXDp8mWuXLq4PmEm1rM7PDzEv/7rh8zNza6HPDe9XDLwaHFKUVER27c1Ox5n6e0ZHhnlzJkzhOfmUtvWGnsB8dKly/zxk09I6mY7p6ZnOXPmDP/yz//Mndu3SSbjG516QaFQZAGuv/mbv/mbzW6EQqHYOshkGKPjbxG6KcSerXQ55t3MB98gv+FNa9OzdYc2+fn5VJSV0NnZTng+ltqe2e2aic8MQzI1PUtPTzd9ff1EY3GKi4vxer2LxMN6JFeyFwE0y7I9PT3F+c8/5/TpM9y//5BYPJaxzdxus6YJXC4XR48e4eVXXk3dT6b4fD50Xae1tRVNcx6/K6wSZxOTEwwO9NPU1IQ/5bb79H1p/y7T09Oc+vQTvr5+A93QHbXPvP5CG1595RV27d5tlbdaum0C06W5qLCAa9e+IqnrGT9e85EInZ3tVJSXUFRStuKCQCbYIRGXL13i9JmzxGOxjH4rOxHg7l07ePX1N3C53Mu2TUpJQWEhI8MDDA+POnJzX7ieIJlM0tndi9cFNTXV2L/H0/ZH+rj45ORJ7rbeX9i+ivdDQ101O3btW7JtAhgaHODBw4ckk0lHMf5Sgtfr4cUXXyQQCCy5n6a5yM/P48aNGySSyQxLrgkmJiboH+hn7549uD2eJdu+WkzLeZLLly9z9uxZIo8k/NMNg4nJKbq6OpmZnqasvJxgMLCmY12hUGQ3/z8AAAD//+zdV3BcV5rY8f+5HZFzJgLBLAYxiKISFSlRpHLY2dlJ3qrZ8vrBb36za8tlb9lbrq19dLn8sC5Xuezd2R3N7ChSI4kK1HBESswRgYhEzkA30One44fbt7tBgkQDRMb328Jq2Oi+99yD293nO+E7EqALIaaRAH0NiAeg+QWFlJeV0NrSTCgcxR41nc/EKbshbpqawaEhGhtv0tTUhMtQ5OZk4/NnzDjKN9fGptaaO3OhO2t8x0aG+Oark/z6vfdoaLxFcHIKHU+CN58cT/ZrFHU1lbx89Ci5efnzahw75SsvL+fy5SsEg8E5HscedR8aHuFmw022b99GVlbWAzXWUzs1JiYmeO+997hw8TKmNZf6UoCFoQwqq6p49rnnyM3NvX+Z4vdAVnY2gYkROjq75tRh4QhOhmi51UxRQQGlZeUP1gGkdfx+UkSjUb799lt+/9nnhMMhTNPCMNI9rn1nZvh9vPjii1RUVqVVJsNwUZCfz/nz5zHnuO5YKTBjMdra27HMGNU1NbhcHuwtFOdXF1bivhjn448+4tLlS4Cz5R1zXCEye4COgp6eLhobFzZA11qTnZNLKDhBW3vnXR1K9z6+wsnWPzQ0QmvrLbbv2J6SN2H+3wfOezYajfDdH09z8suTTE5Oxu+z1I4t+70VicTo7Oyko/UWxSUlFBQUTiunEGL9kgBdCDGNBOhrg4q3dPMLCvF6PHR2dhKLmfFgZ37XbI8iAijGx8e5fv06ly9fon9gCK/Xg4J4cjoSmZG1M39zhunweobHtbawLJNIOMzo2Bg3r1/liy9O8umJT7jR2Ewk6oyW6USwOdcA0LmGwoJC3n7rTSqqqpN1Ng9aa1wuF5mZmTTcvIFlzWX7MjvIMQyDYHCSxoYGsrP8ZGfn4PF65xycOsF5JBLhdkcrv/3tb2lsak4EPumO4trPMfB43Rw4cICHHtox64hx8rWK2rpNNDY2MD4+kXb5nacYBkyFojQ2NhMKBigsKsTn96c8L/26AIhGI4yOjnDy80859e1potFIYv17urMJlLL/Rju2b+Xgo4/hS2ytd//X2R0WOcRMOxhL995wMqkrBaapaW1rZ2xsjJKSYnw+Py6XK9Ghlc4BU+uiubmZX//zP9HY2ISzlGB+t/7sAbrW0N3dteAj6M65SsrKuHHtCpNTocTrZy11/ByGYTAyNsatpmYK8nLJzctL1OtM13IvzvNjsRgjw8P85jfvcfr0aaLR2LTZP6nntztK49PexwNcu3YVQ0cpLinD43HPK3eIEGLtkABdCDGNBOhrR3J0t4LMDC/d3T1E4sHJfI+X+lKlFFOhMF1dXVy6dImbN2/QPzBAf18fkUiYqckQU6FJYrEokUgYMxbDNE1isQjRaITw1CSRSJhgMMjQ8DD9fb10tLZws7GRCxfOc/Lk55w7f5G+/j7CkdicpgjPciWUlpbwxhuvs3nLtntm4k77aPF6qaioYHR4iO6e3jmXx+5sUAQnJ7l5s4Ge7m4yMjNxGXYiOpXGsLdlWYyPjdHR0cHZs2d4/4OPGBwcmlbOuQyRGobB5k31HHn+ebJzZhk9TzmH1hq3202G30tLSwuxWHTO0/4BYmaMtrZ2urq7sSwLj9uN2+PG4/HMeg9rrQmFpujtuc0P33/Phx98QENTC6ZpTjtXupRS5Ofl8dyzz1JVXY2R7K2a9XWGsmeadHZ2MD4+Pse6SO7E0NPTTXtrK+HwFF6fD7fLhcvtmfU4lmURDATo6LATz3388ceMjo0nZjzM/95PYwRda7q7btPU3LygAbpzn2Vk+PF6vbS2tmKaJulvG5gc8R6fmKC5+Rbh0BRutweFntNyl3AoRH9fDxfOn+PDD9+nrb0z5V12v8+s5JKFWCxG060Went7qawoJycnN61zCyHWJvdyF0AIIcTiUUrh9njYd+BR/D4/Jz49wfCoPaqZHClKbyTx7qAo+e9oNEpf/wB9/fZa27zcHPwZmXi9XrIyfbgNww4qPF4ALNMkHJoEpQhHYkwEJgmFppgKBglF7On4zumchvL8Oxac0WMARWVFBcdfOc6WLdvmdbx7n0PzxFOH6entpaPjdvzx9BJ8Oa8HiERj3GhopKevn7LSImpq6igrK6GoqIS8/Hzcbg9utwvL0liWycjwMKPDA/QNDNPZ2UFXdy9jY2OYpjnt/HOrP0VudiZPPPEkhUXFc4pmnXNu2bqNfXv3cubMWWKmmdb5U5/ijOy2trbS2XmbqspyKivLqamto6ysnNycXPwZGYnjWpZJOBxmoK+H4eERbnd10dHeQf/gULwunOPbgeXswWIygPW43ex9eA/1m7fY9+PconsKCos5ePARRkfHGJ8IzKEudOK/oOju7aO37zOuXr1KZXkZZRVVVFZWkpuXT3Z2VnLkVWsCwSDBiXE6Oju5fbuTtrZ2RsfG4qP4yc6aRc0SbygM1+KMBjt/n527dtHe1sr35y6Szn7zMD05IUAgGODUqVNcvXad0uJCqmtqqaqqorCoiMyMzMQ6da01sWiUqVCI0eFBunv7GBkepqO9nd6+/njehdT3/Oz3mXOPaW1v/ecyFnBbOiHEqiQBuhBCrHFKKTweD3v27icnJ5sPPz7B7a7u+G81WhvY+3PP7bh3NnKTAZBmbHyC8Yl4lmTL2f4sOVKt0Yn1wc4IttYajUaRnN6r9YMGEKkBKlRVVXD8+HE2b96yKJMnSkvLeP655/joo48ZHB7GSrn2tEscv+6xsTHGxsZoae0gw+8lIyMTn8+HYbjJyvIRCkWJmSah0BThqUkmQxGi0RhOUKB4kLqzeO7Zp9mydeu8ZpkopcjIyOTgwYN0dHTS0dk5z3IAKGKxKB2dXXTe7uLKlWtkZmbh9Xlxp4wga21hxkwmJwOEQmFC4Uhiyr8TlMefmfaZDcOe3bBj+2YOP/PMfadc34/X62Xv3gP09Pbz3Xdn0dqM3xtzYf9dTQ23u3ro6urF471OdnYWPq8Pj9eLM2LrZBGPRsJMBAJEItFpdbF023ultzZ83kdXisyMTA4eeoyunh66unrmdRytNTFTMzQ0yODgII3NLWRnZ+L3Z+Bxe+KdDPHPKMskGrM7GCeCU5gxE62taUH5HK4A4p+9uVk+jr54hJLSstQeRSHEOiQBuhBCrAPOOsj6Ldv50x8X8JvfvEdLSxuG4UJrk2RDev4N92TADqCnBe7x36BTj6+cprueFqxodMpx5s8OVOwETaalqa0q57XXX6emrh7DWPjGr1IKwzDYtv0hevoGOPnll8SiEUxzbmvlnba5k7grFosyPhFjfGIyfh4dn8o7PfB31uandm6kX/bkGnWt4eDBgzz2xNMYrvmP5hmGQXlFJS8fe5lf/epXjI1NzLkjyC6Tfb32fWoQCE4RnJxMTGdWKn7HaJW4he+ui/TPO2102dLk5ORw9NhrZGfnPNCUcK/Px0svvcTQ0BA3bjTgcqnEmvS5THu3LOea7VwDQ0ORlOt2rvP+dbFULMvENGOLeg5lGNTW1vH8s8/wu/c/IBAMYVmxu5bkzHqc+Hp/+z0XY2RkHNT4HR+JTkejji8/sB+b3qGY7vniHSUawOKdd95m05at2H87Cc6FWM8kC4UQQqwTSikUUF5Wxs9/9lOeOHQAr9cTD9LhQYLz+3Earff7Wazz2snqDGo3lPMnP/oRtRsXJzh3KKUwXC4OHz7ME489BhjzymSeOoDmBKnOjxOgxX+beDw1CJ1bYOLMWFC4DIN9D+/izTffxEhJmDVfhmGwZctWjjz3NH6fh/mMpqZO8bbL4wRHOhmQOv/WD1YXyXPaszqKS0r4y7/8S0pKSoD0E4fNRClFZmYWr71yjKryopQOkfRzK9wZCOr49Saum2SnxULVxYMwlLEkU7YVsGfvAV468jyGYcSTvc3tGNPfc9PrVcXfZ5DsMErWrUq8Pu3ypqyB93g8HDt2nG0P7SF1lpEQYv2SAF0IIdaT+PrZ7Jw8Xj7+Ki8eOUJZaXFKorSFSsS2/JRS5OXkcOjQQX76019QVrFhyc7r9Xp54cgLHNi3B5/PH6/2+Qan0zsz7hxxfZBOjmSgAG63m+3bNnPkyJFEIraFChYee/IZXnvlZfJycxLnfbBD6zuuO/5vFiYIdbkUVVVVvP32W5SWLtx+7FprSsoq+enPfk593YZ4Pcx9ecn0Y6Zcd8pyjvnUxYIHhw/+h07/PMDBx57iuWefxuudPcv+vUx7z3F3XSZnCCVeMa9zKKXw+fw8+eSTHDp06I6t2IQQ65kE6EI8KK1Bz21/W/v5SzyUIUQKpRQZmVk88+yzvPvuu+zfv4/MjAzuXCu++jidDIqy0hKOHn2J1157nYKiYvu3S3hdfn8Gb771Ds8++ywZGZlLdt65cIIMt9vD3r0Pc+zYK5SUlgMLXFda8+jjhzl+/BgVFRXJadgrjNNRVVlZxbFjx9i4sT7x+EIdH6C4tIJXX32dLZs2pnSOLb+F7JSxj2eh5/r9+ACUUrx09ChHjx6hpKhgyc47HznZmTzzzGEOHz5MVlbWirkHhBDLT9agCzFfTqNDKXvtI4A2sabGsdfUWsSiEbw+n/00w4PyZYOyk81AyjCYfDGLZeA0CDdU1/JKUTEP7djO2TNnuNXSRsw0Ewmy7GnUS5lYan6cMnrcLnbv3MljTzxJdXU1Lnd6+3cvBo/Xy1NPPUlGho8vT37J6NgoShnLVpepf0d76r09Tfepp57kqacOk5ubu+BBWvzEAOzesxd/RjYnTnxCT0/3tPLMdd38QhQp+RGcnD6/e+cODj/zPBs2bMD1AGvw731euy4qqqo5/sprfPXV11y5eg3TjC3LfeFce0FBPpWVVdy6dYtwOLwwZVnEJSwzca7l0KHHyc7M4NNPf8/A0Egir8ByvO2S0+YVhmHnECjIy+aV4y+zbcdufH7/0hdKCLGiSYAuxFxoi0QCF2VgmjHG+jtw3T6N7r2ADo8RuvYJ2oo6KYYAe92vkVOGf+MTkFWCp+oRMjYdRmUUJhvCqccWYgkZhkF2Vja7dj9M/abNfPfdGf7wh9NMTEykTM3W8TXdS7+OdSZOsix7e3C7UW5ZmvLyUt58/VVqautxezzxNejLWU57uvuhQ49RUlTIBx9+TE9vH/Z2WDNlGF/csjjnc+qvsLCAV48fZftDe/DEt5JazM4Mt9vNtm1bKS0u5MsvT3Lm+/N3lG3pOIn2nA4TreHpJx/jxZeO4stY3BFNpRQul4uKyireffddcrKz+PbbU2iMeF1YwPx2V5hrOSxL4/N5eOedd5mcnKS9vZ1IJLIgfw9l2PvALyWlFG6Xi9179lFQWMKJTz6iuaU1sdZ/qd9zTrJHsJPQ1dbW8LOf/Yy8vFyUkmntQoi7SYAuRFriwwCWiRkLMxWcQF/4XwSvvE9guBvvZC9KmyRT5qppkzctBebkENGeq/ZvXC7Gizbiyqsm88DP8G18BnduGcrtxw7SZfWJWFrONNvs7ByOHDnCgf37+eN3f+TcufMEg0EsS+N2QyxmJYL0pQ6qkiOe9nntLNjgdrvIy8vj8ccf59ChQ/j9/sUZBZ4nJ7v75q3b+eVfVPD5px9z6eoNIpEIlkU8GFvcYNDpDHAS1nk9HrZv28zLx16huKQUy1raaciFxSW8+6MfU1xczNkzZxkaHY8nwLNS1sUv5kwDHb/nDVwug7LiIp5/4QV27dm7pPe1Ugqvz8drb7zJlq1b+Zffvc/o6CimaZdRa/umV2phwsnUzjalFMpQ5Odm8+Mf/4SNGzdy4fz5+DMX8PqX430YT9ZYXVPDL3/5S9779T9x7UYjoXAEsN9zdvC8OJ2Oqe85t9u+jzMz/OzZvZMjR4+Rm7NIM1WEEGuCBOhC3Fc8O4wVw5zoIdpyiqEbJxlv/Jq8YAsWkKEU2nABLhQ63thOZtMFUM5IusudaPaYA82YA81Ebn2F8mSQ9cjP8O96C2/lPoysYjtIT00rK8QSsSyLgsJCjh07zv79B7hw4QJtrbcYGh5jfHw0kcEYpjf4F4sdsKVsqRU/V1ZmFuVlJWzaso29e/dSWFiYCK5WWsPXKVdubh7v/Ogn7Hn4Bt//cI5bLa0EAoFEYOpYiPqcPmXcHj10GS42bKhm/4H97N69m6ysrHjgvnSdgql/m2efP8KOnbv55uuvaW1tZWR0BNNM1sVCTnu3j+mMnNrZ9cvKytmzeyf79x8gv6DQfuIy3D9aw7btO/jXJcWcPn2amw2NDA4NY5pmvL9Wxb9fFuZchqHIyMhg6+aNHD36MoXFZWjLSlz3QtW5tjSWac4p3rc/Wxau/l1uLz/6s5/TequRU9+eprWtnWBwMn7fOzNKFqZuZ3rPZWZmUlVZxVNPPk5d/SZ8vpXVgSiEWHkkQBfifuJftMHL7xG69I+EWk6hp0bJ1RoLBYbC0hqlY6lPB5ygfPrB7H187d8m5rxZGh2ZJPDd3zN1/WP8W4/g2/U2GVuPgMuL3VaRL3KxdJw905VSlJeX89JLLzE6MkxPbx9NjY10dLQxODRCJBKNJ4GyX7eQwXrylleJfyul8Hl9lBQXUVFVxZZN9dRtrCc3Lz8RAK/khm9quTZv3U555QZu3brFzZs3aWhoIBgM4ASQD1KXqZdvjxKD3++nvn4TtTVV7Nq1h+KS0hVTX2VlZbz62mt0d3fR0NDAjRs3GBwYxLScmQVz2yv8Ts5rnf5Ol8tNeXk5O3bsYNu2bVRUVOD1ehfykuZdxsLiUo6+fJwdO3dx5co12tua6e7pnzaiP9e6SK6Btv+f1+NhQ3U1+/c9zLZt28nLL0g+cR73gr7f7Atlf9cplci8MsvB4s/R9j7vDyr13q7duJmiknIaGxtpbmqkvb2NoaERO12yfrDPrzvfc4ZSZGZmUr9pM7t2PURdbR35BQUr5j0nhFjZlF7pWX+EWA7xllyo4yyhy79m8vz/w5rowQ67nbHxhXzrJJsuSimsvI3oPb+g+vAvUHnV8acszRe6OdVP9POHUZF+uxrWULZ55y83UPxXVD/zH7FbZbKcYDbJJF6KcDjM0NAgQ0PDtLS00tfby0B/D4FgkJiZmnnBkRpgw/QmeupWWc4eRtzVii/Iy6WsooqiglzqNtZTVl5Ofn4BGRkZq7qx69RrIBCgt7eX5sYbtHd00d3dxVQoPMMr1LR6dF5/r+2eFJoN1dXU1dawcWM9NbV15ObkwArKGu5wriUajdDf3097WyutLa20d7QzNj4xQ9Bkl9/JQWAfA5IB1p0vUBTk51Bbu5H6+o3U1NZRXl6emDmwkurDqYtwOMzw0CA3b1ynta2dzs5OgpNTdz3fKXvqfTFTHXg9bjZvqmfXrl3U1NVTXFyc2NrLzuFg8f3ZM3z8yQlCoVAa0/wVYPHyS8/zwovH7/lebGtv59qVS/g8BtFo9I4FYDNcPxqv18uTh5/Dv4C7HyTfL5rJYJCh4SGuXr5EV3cPt2/fvud7DuwZB3cea6Y6NhTU1tZSV1tL3cZ6qmtqyMnJWdWfU0KIpScBuhB30iagCDV+yuj7/w5zsMWetq7NlNhhMd42KjmjXblwKQ/hkofwvPm/qNq8e8mmu0uALu4n9SsjGo0Si8WYGB9hcHCInp5empsa6e0fwjSjRKNRLNOZXeJ0QumUW1nF7y+NMly43G4M5aIgL5uyknzyC0upqa2ntLSEvPwCDMPA4/GkBCRro8HrNN6j0QihqRBDw4MMDAxy4+plmls7ME2TWDRiz1a4axwy2WHo9vjweNxUb6ikduNmajZUUVFZid/vx+32JPIMrGTO/WVZFtFIhLGxUfoHBuhsb+Xy5asEJqeIxZz7St21lMievK5Rhhu3x0NBXg7btj9EWXk5tTXV5Obl40lJHriS60Nr++piZoxwOMzoyDANDQ10tjXT3tXP1FQYrU17GjzcVReGy4XH46W6spSaunq2bt1KWbl9Pzj3QnJKezxAP/MdH39ygnAkjGWlF6C/8vJLPPvCS/cMQk3TxDRj9u/S/TpRxJMWLvzfJ/UzLBaNEgqHGBwYoK+/n6uXL9LZ1YdpRjFjdrntLoPp3xPO96LH68Xj9rKxrprqmo3U1GygoqICj9eHO757xEq+x4QQK5ME6EKksmKY0SnGT/13gl/8NcQidpe4GUMrtWTBqgaU4UbHohi55eQc+2/kHPgzlOFa9IBSAnSRjtSpmjM1QMfGRhkeHGBsZBCXYTA8OsHIeBCXK9kRZZoWpUX5ZGf58fmzyCsoIScni6zsnLuO5yQxW8sNXiu+Bjj1+rRlMjA4yFB/D9FIiJGxICNjAQxD4XG7yPB7ycrw4/V5KKusJT+/AH/Ktk3O32m5s9nP1Uzl1lozMT7O4EAvgbFRYqZJZ89gorMnJ8uPy2WQn5NFdn4hJaUVZGdloe44BqzswPxOM9VFJBJhaHCQ8dEh+gcGUEoxNDKOUoqcrAzyczPJLyqnsKiYvLy8aceCu69fa00sGuXU11/w+cmviJnJpSv3ZgfoP/nJT9m3b989A/TEZ4V94nQvetrfbbE4nyupdWtZFkNDQ0yMjTA+OohlWnQPjGBZOp6c0qCipBCv10NZVR35eXmJ7VTtoq/O95wQYuWQNehCAE4yOGtyiImv/pbg6f9pB+dYaDMehCxhoKpQaCuGcrnQwUHGP/kPEBkn59F/hfJky5p0seymBZI6uVrUeSwvL5+8vHzQm+2n3O9Y9gunPXbn9NH10Nh1rnHaemPDRWlpGaWlZdPq+U531mHqMVZj3d3VUREP/nLz8sjNy0vUxb6ZXmsfYNprU4+72jh1kXodXq+XispKKior2TbDfXGvOrjf9VvaIhyJkn5Cf3tOWXFRYVrln5Ml+jsl3hvxOnR2XCgpKaGkpATYCsC+O3orkikyZq7j1XifCSFWDgnQhYhvoWZO9DD++/9E8Oz/hkQm9mTimKUuk8LJBKQh0Evwi/+KoaNkP/lvAbfTAlvicgkxA3X3qtKZJmfN9JhS8a6vOwKIu9errx8zjW7O9O9pAaz9izU3/d9xZ7A+0/9OTNe2f7Hm6mLG60gJzlPvi/nUQSQSZWR0AkunnyjN63GTk3P3jJdVZ4bPMJi+bv3O58d/sebuMyHE8pMAXaxzdnA+FZxg4uO/Inru/9iPxZs8yzu9OzEmCWjM4ADjn/8NljuD3Mf/TXxN+jIWT4j7mKmxKg3Y+bmz3tZ7PaZe/1qpi3mP8qcElg9aF9FolGAw6Bx21iBdA7nZGfj9vgU5/0okwbcQYjlIgC7WNw06FmHqq78hcvFX8VaJlfzliuBkt9ZYU6NMfPTvUYaPnEN/zowpr4UQQqwKK2VNvFKKyWCAvr7eNLK3xweQNWTn5OF2exa/gEIIsY6svoVpQiwoTf/1Lxk9956dvd2KkdwoaiWJTznUJlZolMlTf0ds6NbsQxxCCCFWJMuyE7FZlsXQ8DBf/P4TPnj//bQC5IXkZHBvb+9gdGwizVfZ66yrqmtxuT2JZGtCCCEenIygi3VKg2US6bkMp/4L3kAbGis+XXBlBr1KOWviDaL9jYz//j+T//rfYWQWSSZyIYRYBezgW2FZJuPj4/T2dNHQ0Mj5i5eYmpyiuLiQ/fv3UVm1YclG1bXWxGIxbty4ilLclZDuXlyGoqSoAFj+GQBCCLGWSIAu1icN2owROP0/iLT90W6UOL9YwRQqns1YE245xUTLd2Q/dByXa7lLJoQQ4n601kQjEfr6erh1q4Wmplt0dd1mcmoqsS3X+Pg458+fp6CwkIyMzEUPfJ3zdnV10Xm7J63g3ClSRmYWVRuqJTgXQogFJgG6WJ+Uorvxe7jym5Qs7Ss7OLfpePIei+jobYbO/gP+6gO48iuXu2BCCCHuIRwO09zcTFPDDdraO+jp6cWalgHcnuoejWouXbpETU0Nu3bvwTCMRQ+ATdPk5MkvmJycTGt3M63t8ubl5pCdnXPP/c+FEELMjwToYl0Kx2Di878me3IEbRioVbaWWwEGFpGmTxlq/TmV+yrR2kLJVHchhFgxAoEJmhpucObM9/QNDDI1NRVfr53YHC2RSsQZvR6fCPDV19+wobqGoqKiRQuAnZHy78+cpqmpKe3Rc63t59XW1ZGdk73g5RJCiPVOWvNifdEWaE3v+ffxdJ7CMFyrMtGaPd6vyDBHmTj3j/G9WOXtLIQQK8mtphv833/4Z5pb2ggGg2htYVmp+7iT8r91YgS7q6uLD9//LdqygPTWhM+F1hqtNZ0dHXz62ZdYptNpcP+OAMuy86H4fV5qa2rw+zNk9FwIIRaYtOjF+qIMzEiQnGt/j58wFnrFJoW7H4WO/x+4b/4TgY5z9i9WYWeDEEKsVXsefoT6ug2JwNuynGVK93pFMhi/dv0m7/3zPxAMTKSduC1dWlsMD/Xz1cnPmJwMglLxMt37HEqBYQAYVFVVUVlZueQZ54UQYj2QAF2sM5rQzY+ZavkGbbjs4YBVyg7SFX7CRL752+UujhBCiBRaa5Rh8OSTT+H12CsKZxttdgJere3P97M/XOTjD39HZ2cnpmkmRr7nWx5nS7WO9nY+PXGCm4230NpK65j22nOFx+1m8+ZNFBeXzKscQggh7k/WoIt1RVsW4aYv0KEAWumUBHGrk1JgaQi1nCI61IKnaCPpTFMUQgixuJxR7y3btrNt6xauXLuRVhK26QeB85eu0jcwxMFHHmHv/v34fH4gGcwr+2TTX6f1tG82p2MgNDXFhfM/cPb7c/T29mLG92I3jNknYCllrxLLyc9m67btGC6XTG8XQohFIAG6WDe0toj1XSPWfdEee9arJXP7fWgLZbixAv1MNX6B57G/APTdjTUhhBBLTilFhj+DJ546TFdPHyMjI9i7caSXkM2e5GXSebuLwcEhmlva2LFtEw/v3Y/b473vi1O/BYKBCa5fu8qVqzdoa2slFA7jfP+lE5zHD4rG4qGdO6lawn3ahRBivZEAXawbCk14sJXoaC/KcKHN6BqIYxUoDaaJNdpqj51LsjghhFg5lKKuto5HH9nLZ198hdZgmnrWwNge2bZneWmtCYVDXLp0kcuXL3Lqm1McPHSI2rqN5OVmk52dh7IXiBONhImEp5gMRejv66O1vYML588RCAQwTY3bbaC1nXzOOc/sl2B3KBQW5PLiiy/gcrkevF6EEELMSAJ0sT5ojakVU4FRdHTKHnle5dPbbRq0hVaKSNsfMAP9uLNLZQRdCCFWCKUULrebPQ8foK29m8amJgzDTCswTkxjVyqeYE4Bits9/XT97gMMBblZGRSVVdi7kgChqSDBwDijYwGsROI3hVIGhgGxmIVhqDRHzUl8n2T4vLzw/BEyMrKSm6ELIYRYcBKgi3VBo7Eik4T7m7Aikyhtrcrs7TPSGuVyY471oENjkF263CUSQgiRQilFSUkJR19+icngOJ1dPfFs7ul9D6Umj1NKx7OpKyytGQlMMRpomf58QKHiMbQznT799eZ2mePP0xqX282jjz7Co489kfylEEKIRSFzYcW6oLTGiAbxB9owdGTNpVDTWkMsTGyid7mLIoQQYiZKsWHDBo4ff5mykoJEVvS50tr5SSaJcwJxpewfQ4EzNT4Z3DPtv7MUdVr5Nm+q59HHnpRt1YQQYglIgC7WB2WgwxPoQB+g18rYeQpNNBxiuL9HRjaEEGKF0hrqN2/jjTfeIicna8ECXmcPcycgf5DDJoNzuxOgtrqSIy88T1FRkSSGE0KIJSABulg/rBjEQoBecyPoSoMRHiG7//vlLooQQoh7sJOtwaYt2/jzn/+UirKi+OPJ3y83y3LWvENxYR6vHD9OTV29JIYTQoglIgG6WD8U6BXQ+FkM2llnaKzN6xNCiLXCiGdbr6nbxNtvv0ttTY09LX0uidsWkctlT5MvKcrjRz/6EzZu3rYiOg6EEGK9kABdrA/xUQul197oOdgj6HZG9+UuiRBCiNkoZacpravfzNvvvMPOnTvxerwpI+lLXiKUcvZt97Njxw5+/otfUFe/dakLIoQQ655kcRdiDdDKThRkWWY8y+9a7IYQQoi1w/mcrqys5M033uD69Wv84Q9/pK+vD63VnLK8z78M9n+d742iggIOHXqUPXv3k5+fv6jnFkIIMTMJ0IVYQ7S2sCyNyyUBuhBCrBY5uXk8euhxKiqrOPf9Wa5evcZEcBIgPvU9NfHb/IN3pew15s42bU5yuewMP3v37WXPnoep3FCN1+uNP1++S4QQYqlJgC6EEEIIsYycQLimppaqqg0cfPRR/vDtKc5fuIhpGRDf8kzFt09L75ipwbiToE5hGFY8EZwmw++jakMNrxx/mfKKSlwulwTlQgixzCRAF0IIIYRYZk5g7HK5qK6p40//rI4nnniCxsZmGhpuMDA0QjgcwTItLG1hKMNOfgrxAN4J3O317QpwuUgZfVe4XQqvL4viwnx27tzFlq1bqKzcgOFyJbZWE0IIsbwkQBdCCCGEWCGcQF0pqK6tZ0PNRh57/HH6entoaWllbHyCwf4eJkMRwtEYZiwKKKKRCCjio+AGbrcbl8tFpt+D1+slv7CEgvxcNm/ZQkV5Jf6MDIDE3ukyci6EECuDBOhCCCGEECuUYRhkZ+eQtTmH+s1bicVijI8OE5ycIhQKE4qEQcPUZAAFuD1eXB4vPq8Hj9tDdnYmXq+XnJw83B7PtGBcAnMhhFh5JEAXQgghhFiBVMq+a04Y7Xa7KSwupTD1iVqTnODOjHPVkyPz6q7HhBBCrBwSoAshhBBCrBIzBtV2Wvd7/14IIcSqIQG6EEIIIcQqJ4G5EEKsDcZyF0AIIYQQQgghhBAygi6EEEIIIdaAO5PeaZn2L1Yh576dK7nP1w4J0IUQQsxqbg0GBUh2aLF85nK/yn26Nkm2erHaaK2JRqN0trcwOjwE6d6ySmFGo5RXbqCmbtOillEsDQnQhRBCzGrujVtpDIvlI8HY+uEE38HAOC2tbXR1dRMJh7DMGKVl5WzevJmS0rJpzxViJVJKMTY6wqcnPqWnr38OL7Tv7UceOUh1bX3iWGL1kgBdCCHEfWmtOfPdHzl79ixerxfLuv/zldJ4fT7eevMtCgoLpaEgllQsFuOzzz6jtbUVt9sFKCzLxDAMkgPrGsMwyMzM5NVXXiE3L1/u01VIa40Zi9HUeJPPPvs9XT19mGZy9oRSkJ3p56knHufwsy/g8XqXsbRC3JtlWZimyddff01rRxdKqbRnAhmGwjQtLGt+U+PFyiMBuhBCiHvSWhMITPD992fovN0DpNMAUHi9XpqaGjj46GMS+Iglo7XGsiy6urpobW2d5dmK4uIiQqEQuXlLUjyxgLTWWKbJ1998w1dffUkoFEYpA8NIbgOvNQQmw5z4/Eua2zp54403KC0txTAkR7JYObQGwzC4dvUy5y+cB3R8tkf6x1BKgvO1RD6hhBBC3JNSiq7btxkbC+JyKZSa/ccwIBqNcP3aNcbHxuad8EaI+XK5XPF78d73qcul0BpMc5YpIWLFcaaq/3DuB7788iThcCQ+4miPItodNckgRylFa2srJ06cYGhwEPlIEivNQH8fH330CdGoNa2DKZ0fUHJPrzESoAshhJiR1ppwOERjw00CwQCWZaG1nvXHsuxGcW//AL29vct9GWIdsxuw975XDUPh8XiWu5hiDpwOv76+Pj458SnhcGTa40oxLVhJfi5ZNDc1cfnSRaLRiHQcipVBa7QZ5bvT3zI0NHzX/SvWJwnQhRBCzEhrTX9fPy2tbXNa26biCWsmxie43dlGLBqVxrBYkUzTIhQOL3cxxBw4MyAuXDhPYCKAYcy+VtdZzxuNRmnv6CQYCMjSG7FiNDY1cvnKNZRhoLXM6BESoAshhJiB3eDV9Pf3MjI6BuhZk8MlX2v/xEyLzq4eAsHgYhZViHlzuQz8PkkctqpoTWgqSHdHK5r0MrM7U90trbl9u52x8bGlKasQ96G1ZmxshK+//pqRsQnAQmvpOBISoAshhJiB1ppQKExraytTU5PYWa/ncgR7PWhPdzcDA32LVEohHozWWtagr0La0kSi0cRmjunM0HGeEgiGmJoKLV7hhEiD1ppYLMaFi5fp6urBMBSWxRy/Z8VaJbeBEEKIuxiGQWBinM7OTiA1GU16lLJHrEZGx7hy+bKs+RQrk04vuBPT3bmW/z7ZqxaFpTWxmJlM1z4H9mj74pZPiNlorenu6uLixYuEwuHELA+5LQXINmtCCCHu4EwZbbh5jf7+gfiUu7m1GlIbGa1t7UxOTpKXJ1OJxQqjlGy5NUeWZREKhcCy0PH95E3LwogHy5Zl4fG4iUSieL1evD7/gq/39njc5ObmgO5JCdJnW4dufy5lZ2WSlZk5r+BeiIVgz9wxOX/+B/r6+qSTUNxFAnQhhBAzunT5OjHTiidYmvvr7favYmhwkLaWZvbuP5jWelEhloq2LKKx6HIXY1UZGx3hd//yW4KBCSyt8XhchMMxPB4XSivC0Qi52VmMTgTZt2cnTz79PF6vb8ECYg24PT421NRz+VojhlKYsyTWcoJzpRQVlVXk5ObKZ5FYFokO8IYGzp27gBmL3b31gFj3JEAXQgiR4DQe2lua6O7uch6d57HsdkfM1Fy5dpO9+w9Kg1isKC63i8yMjOUuxqoyNRmgu/s2w6MzJ39USnFb92O4DEZGxxb8Pe9kcd+9Zw/ffPM1wclJwEApPWOMo5TCsjQul8Lj8bF16xZycnIWtExCpEspRTg0yYe/+w3hSMR+f9wjOHfeOs7adInh1w+Z1yWEEGIaS2suXrlGNGZizDJ6Plvb28kGf/nyZQb6+1IeE2L5maYpCcPmyDBcuFxuDENhGNz1o5QdDCvAXhyzOO/3kpIS3n7zNfx+f2KWz8yfR/Z+90oZbNq0kYceegiXyy2dhWJZmKbJ+x98yNDoeGL7v3vR2k4cJwPs648E6EIIIRKUUkyMjfLDD+eA2RvXWsPszVy7mX7mu9OJfwmxEihl4HbLZMK5cHk8eLw+QN8zN9xSdcLt3vsITz/9NLk52fanjAZQdwTqdnSzadMmjhx5kaKiYgnOxbJpb2vj2rXrON+Ld0q9NctKCsnwe+7T+STWKgnQhRBCAMnMzFcuXyIUmkqrEbv7oa12sqb7cNai32xoYnxsdJHG04SYB62xLNlmbS5ikQiR0NSKGNFTwNNPP8Mrrxxjx/ateD0enI4DsD97KivKePGF53j99deorq6W4FwsC3vP81H+8O0ppianZhwVT32soKCQF55/Dp9HOhDXI/mrCyGESAiHQ9xsaERrdZ81nXYjIi83m1dff4sTn3zEhUtX7zENzx4lUMpgbHyc9rY2du15WBI0iZXBmYct0ub1+fFnZqPGJpY/SFcKn8/Hnj172bRpM/39AwwODjI5NYXX4yE/P5/SslIK8gtwezzLXFixXmmtMWMxLpw7T0NjExorkbQwdbaJ85jbZfDE449Su3EjpilJLNej/w8AAP//7L1ncBxZnuD3e1kOBW8JbwhHgp5N02yS7Wa6e2Z6u6dXO7N2brUbFxe7sScTq7j9IhehCEXcB7mQQheKU9ydpJBOuzM7s5qZ3e6Znu1me7LZtABBEt57j0KhUC4znz5kZVUBrCoUyIIhkL8I0CTSvPfyZeb///7OUtAtLCwsLKJMjI8yOzMTKT2lJ1S6pTQ2Hj/WRkFhESdPn+V+R2ekHNtGZCTBjU4wGKbzURetR4/hdFrCssXuowgFh92ai1shGPCztrqy+8p5HIrNRl5+AfkFhTQ3N0e9dKIVKKRuLQha7BoCmJmZ5t79u4TC4bikb7GHyPjWSkChoqKc1pZW1FAQRbEB6m413WKXsFzcLSwsLCwAo37x0PA4Pn8QU7FO5IInhMTusHG4sQlFUWhoOEx9/eGkMXKKQiTRjWR6apKF+Zlt74uFRTqomoY/YCWJ2wp2uwOn07WnFF4zs7uU67NmGJ46IKxa9xa7hJSSUDjMrVu3mZqeA+IWjuIwvpECp9PBmTNnqaiqwmZ3bFuSRYu9jfXGsrCwsLBASsn8/By9Pd2Ew0GklCSSaQ0ruaCyooKKigqQ4HI5aWqsw6bYEgrtZoIbXZcsLi7S3z9gZXK32BPYbApZLuduN+O5QggRUXj33jNsKurxPxYWu4UZyjU2OsLDRw8jYWMSIZ58dhTF+La2NDdy5uzZSLUE2158zCx2AEtBt7CwsLAAYGZmhrn5WSDxCr+RHdkQOKqrq8jPL0AisdsdHD7cSG5uTsrzCwGhsMrY2Birq15LSbfYdXRdEg5b7qNbQQ2HCAUDe8rF3cJir2F+3zweDx9++GtWVrzRMLBkz052Tg6vvPwKeXn5SCuB5YHGUtAtLCwsDjhSSoLBIKMjw/h8/ui2J9EBQZbLRV19A1nubBRFQQhB2aFyyssPRcscJb6O4eY+NTXN4sKCVdjVYtdRFGGVWdsqRpzLbrfCwmJPIyIJXD679hEjo+MRC3nib54ZnnHm9GnqGg5Ht+m6Zj1qBxRLQbewsLA44Egp8flWGRkZiWxJLBGYVvXSkiKqqyqj7qNCCAoLi6murkURIqH7nrGfoZPPzs/RPzCIqmmWhcBiV5FSounabjfjucKVlU1Obr7lPm5hkQSzZGlvXw9329sBga5Lki9eS2oqD/Huu+9gs8VCxex2h7WOfUCxFHQLCwuLA4wZIzc8PML4xHRUsNiIoVwLFAWqqmupqKhaJ6DbbAr19XXk5+dFtj95DuO0EqlLhgf7CAWDCGF9hix2DyklumYtEm2FQMCHz+uxQlQsLFLgWV7k5vWvCATCmN5nG7+L5ic0y+Xiu7/1HjabfUPZNWlZ0A8olmRkYWFhccCRuk7ng3ZUVU1qFZPSyMaenZ1NW1sbis224feSmto6KiorMGLVE39eTNmjf2CYmZmZfSt8mAsdG3/2C/ulf4qiWCX/tkgSBxmLLbAfnp1EJHsv7Jf+pYumqnR2djIwNArEFqfXI4xFb6HwwtlT1NfXRRfMTXTN8u45qFgKuoWFhcUBRgiBZ2WFgcFBILkgZWRhh7LSEmqqq57YTwhBfn4+R1tbIjXUU19TiywKQLJ49+cPXde31JfnQXBN1MZ02/w89E/XdULh8G4347nC5nDicGXtdjOeG57mOXgenh3YWjvN/aLHPAf9exqklMzMzHDvXjuBQAApk3noGP0/dKiUU6fP4nQ6n1ggF0qiZK0WBwErM4qFhYXFAcVcrX/QfodAIBRNVJMYAegcbmggNz8/6TmbW1rJyvoMr3cVRUksg5nXeNzdyyuLCxQWFT97Z9IkXWEy3fjaeIuHEAKp6/h8XoKhEP5A0PBKQCAUG1kuBy6nHXd2Hk6XK3ZMnHVlL8T1mmMUX1saIOBfI+BfQwK+tQC6rqOpYewOJ1JK7HY72VkOXFnZZLmzo+eIP2f8tr2Aoii4HMnLrKU9X2DPJE7bimK38V5sdqwxxzXkVnJHyMjs3qKmsZVnMNPnfBbin594VDVM0L9GKBTC6/MDAl1TURQbCMjLzcZuU3Dn5GO3J3J13v35tfE5Nt8Puq7jX1slGAyy5jfKdKrhEAA2uxO7TSEn24Xd7iQ7N888QWysIv9/3pFSEgoFuXP7G6amp1NWSBPCSLh6/tw56uobEt9fSzk/sFgKuoWFhcUBxcgSq3O/4+Em+xmCh81m4/jx44ZAmYRD5RXUVB6iy7ua8pyKIlhaWqTjwQNee+31HRNAM3WNjUL49OQ4HQ86mJtfYm56Ap/PRyCkg5BIKRACnA4bWQ4b+UVlFBQUcKislLZjbZRXVBn1bjHCDcQmHgjbxcY+6brOxNgo3T3dzC8ssTg/x+rKIggF71oIw+MiJlfbFIUsp43c/EIKi0ooKiqkpvIQDY0tFBQWR/fbK8oGgKbp+IOBpL/fSjv3Sr+epQ1pHSsEqhpK63yKoqxLerUd7IUxh5hl2PQg0jSNibER5qYn6R0ax+fzsrqyxNraGj6/GqmJLaJ/52Y7cNgdFJUcIj8/n/r6Go4dP0FuXEI+Xdc39VDatv7FvZt0Xcfj8TA6PMjA4DCeFS+exTl8vlX8QRWJjJQUM54JgSQ320mWO5uSskpqq8ppaWmhoqo2Gi6VbGHjecF8/hfmZmjveBBJgJo4H4sQIHVJZWU5L7zwAna7PWG/danvh3ULi6fAUtAtLCwsDiCmMNTR3sHExASKYkuZUV1KKCspoa6hMeU5hRBcvHSZ7r5Bkgkn5r66Dg/u3+XK5Ss4nMmtmJnC7/czOzONnkbW7uLiUgoKCxP+zhDEddZ8awwPDXD9xnVGRscJh9WYkVAIbIppWTfGLxQKsaJLZhe9ke2Sjz/5hLqaKs68cIGmw/UUFpficDh2XEg13PN1/H6/4Z55+yadj3vRVDXqAi4jllAhDGU81jfjPoekxLcmWVj2MTo2DhiCudPlormxgWPHT9FQX0dBUXG0j7stjBsx6E/OPanrzM/PsbrqJXnu5ci+EtxZLg7FLbTsFmtra8zNzqDpWso2mxSXlJGfbyiAgYCf6anJpBZpKUEoCgtzM4TDmz9DUkoWFpcZGOjH4Ugvzt90JnHY7dTWN6R1zMzMNL5V76ZzSVEUyisqycpyp3XerWAq54FAgMX5Wfr6+unsfMDUzCyaqiJZX//aZot/foxtC0tBAKbnlhACbt++RdYHH1JfU07bsRMcbTtObl5+VJnbqWfHmA+SsKqytDjPwOAQHffvMjE1SzgcimQnNxVyY/FVCCWy8BA7hz8QAlYZn5zlQYfE9tE1CgvyOXvmDCdPnaKouASHwxkt3fm8IYQgGPDzDx98yKpvLbItseOIEAoOl50L58+RV5D4OwNWFveDjKWgW1hYWBxAhBBomsqjRx1IKVLEyYGR9E1y8eIFILml0Nx2uLGRwoI8lj3epGc0k87NzC8xMTlBfTIXvwyh6zozMzP85Mc/xuNZNoSehNnqFbKynLzzztucPXdpnfXCVFyWlxbp6+ulo72doZFRwmEVIGLZklGBVtdlVEAzL6Uo8W7tAlXVGBweY3B4nMKCHM6ePcvp02cpr6jEbrNtu9un2ae52WkG+vt5+Ogxo2PjBIPBuDGJLTSYCy7JFnMMvV1gzBnQdUEwGOJRVy+PunopKS6kueUIJ06coK6uDrfbvfvC+MZpEFmAedTZwSeffY6qpnDpjrjp5udm86M//g+pT7GAtZ2YCmJP92N++YtfEAyGSeofGxnvnJxsfvDD3yU/Pw8QTExM8H/9H/8OVdOJ+aUnOlwQ3iTzvRm20dXbT2//QLQm9KZEvHoaG2r4s7/4T1PODV3XEULw9Y0b3Lx5EyVFiI5QFNxuN3/0Rz+isakpc3NOSjRdx+NZZnR0lLt37zM5PsrKqi+uS0q0bWYJSk3TURQjr4c5NKZhPP794Pf76e4bpm9wjBs3v6Gt7TjHjrVRU1OLw243D8hMX57omtHWUDDI1OQ4jx494l77fVZW4vsmUBQR9QSIHaex8ZGJGf6N94OqaswvLPHRtU+5fesWhxubOHnqJIcbm8jJyX2u3N5lZB5c//Jz+vv6QJjfgif3Nd6LOsfa2jh99nxKzxsri/vBxVLQLSwsLA4gUkoW5ucZG5tIusoPMeWsqKiIk6fPrtuW7Lw5ObmcPXOazz7/ygwuTCo4q6rKw84OaqprsNvt2yqQCWH8oWqpkuHpIBRscW785q5+v5+hoSHu3r5Fd08vqqpGLcqQWGndeBlDWU9camfZs8qXX95gYGCIixcv8MK5C2lbHreKKRQuLiwwMDDAnTvfMDExTVhVo22Kt36lf14wNTvzsJhrOywsLrN0+zY9PT20tDRz5coVqqtrMtSrrWN4cmywBguBYrPT1HKEe+0PmJqeJXkwqDGOSys+7ty+RV19A8bixM5L1YGAn4ednUYMcMo9jTZXVFRRfugQpn+ApktCqp7Sk8Y8fitoEQtrehhKTTCspR0yoCgKmgQ9RcIyIXV0CdpWYuc3baokEPDT2fmQjgcPGBkZiS5sxZeaTJRIbf3ztfHvJ/fVNI3Z2Xnm5j6ns/Mh5144zdGjbVRX1yC20eK8MDfDnXv36XzQwcLiMpqmrXuejb49eVzqbaYrO9EQmWWvj/aOB/T199HSeoSXLl3i8OHDpPZd2TsIIRjo7+OrGzcjid2SJ1uVEsoPlfK9734Hh8OR8v2qWVncDyyWgm5hYWFxABFC0NfXy9ra2rpEYOv3ifxDSlpbmsjPz99UaDatHm1tbdz85lbErTG5ACIl9PUPcHZmmqqq6m1WbNI5d3wSpJgiu7q6yueff0Z7ewcrK150PSKoZiAZcbxSq+k6Y+PjLC4uMTe/yFtvvZXQBfvZrmcoTKMjo3z08TVGR0fw+/2RNqRKFPi014v928x74PF4uH37NuPjE7z68mVOnT6L3fFkFuPtRhECm+1JUUhKSWVVFXV19UzPzGCGa6RayHrQ+YgrV2eoqKjY0Xh081rLy8v0DwxFF402tjVmqRU4nS5aWo9QUFgU+z1m4q9nn9NPS1RpY2uq2Wb7mv3KBOZ4z83P88m1j+jp6cXrW0MQH1OemWsZ14v9W9cli4sLfPrp5/T29vLaq69wpO04drsjpu1miM7OTr78/FMmp2cJx1U6yFTf1p9HIIXEt+bn/v12JifGOXv2LJcuXSY7J2f3vWxSIKXEt+rlxvUvWY0k/9v4zTO/saY31be+/QbFpWXR3yXDpiiWi/sBxSqzZmFhYXHAkFKy4lmkt6eLQDCW7OvJ/Yx9XVlZHD92Ir3YwIgCVl5ZTXOT6e6b+BjDvVPi8XiZnJrcEXfGrQg7piAeCKzxwQcf8NVXN/CseKLKuSGMZ67N8UKcP+Dnq6+u87Of/XSdu/mzous6uqbx4P49fvKTv6Gvr4dAwB8NcdhuYdAcU/PvqalpfvH37/OLX/6S1dXVjC8ObIam6wnHVwiB3e7gxUsvoij2yH1J7oYKRmb77u6uXXPLfdBxL7LQksyCaSqpgqLCApqaDq+LZY6N/d5VhhKRfmufvV/mvO3qbOd//9f/G/fudxjxxtJY3NrOxQ3T3VnXJaqmMjo2wd/+7O+49vHHhELB5AHPW7yGpob56MMP+OlPf8bw6DjhcDiS9G17EriZC5SCWPNn5xb5+Nqn/N3PfsLiwtyOvxe2gpSSnp5uRkfHAT0S2rRxnGT0WTt39hRtbW3p9UmI5+1xtMgQloJuYWFhcQCZm1tgYdETFSQSJQY2ZYxDZcUcKi9PW0gSQuByZXG4sWWdq+dGjDJskjWfj6GBwUjN2L0jiAkhWPN5+T//zb/mzp07aJqKjIsrj8WbZ4b4c2mahpQaHR2d/PrXv0JVn71Wt1kO6cbXN/jxT/+OuflFNM2MlVeifdpuYkq6sUATDIa5c+cuH3/80Y4r6XabDbc7edKwmqoqGmor0xgb43d3bt9iaWlxx63nnqUFbt+6u0lZp5jicLihnsqKCpQ9bJncaxgltEJ88fnn/Phvf8ayZ5X4d8BO1C43Y9V1HYykjgE+vnaNv//5TwkFn1FJl0ZptC8+/4QvvvqaYDAY9SJiG953CS4ft7alo2kanQ+7+PUH77O8tLAnLclSSqYmJ7h+42t8a36kFNHvWjxmZEVBQQGXLr1k5N5I6wKWfn5QsRR0CwsLiwOElBJVDTM4OMD8wsI6t7sn9zWU1KamVnLz8tK+hpE4SKG2ppqS4iLDCJBAyoheVwhmZmdZWlp8+o5lkog8urLi4R/e/xWDo1MRBXZ9bHU8pmXSdKWN9VkQb6VMHxGJBda5f6+dm19/vT5L/Fa7JCWhYJBPP/2MX/7yH+JiG2MW7bRaFe3Tk/c0fttm3TWtgWaCQiklN2/e4pNPPtnRhRpN1wmFEpcMk1IibHbeeus7uJz26L1NvK8x55c8K/R0de2IshZPd28/K6u+TfJDGIpCbo6bc+fOodi2N+fDfkJKIwfFl19+ybVPPmEtEIpas7cyhInfE2LdtnTaYiiB5iKXwq07Hfzy5z/Fs7z0VPfUTHLW3t7OF1/eIBgKRZ7Lp+vXxt/F+pu6bfFWehnR2B88fMyHv3ofz9LCnlrANWue3793l4nxicjWxGOmKAKH3c65F85SWV0T/e5thqarWCr6wcRS0C0sLCwOGD6fj/GxiWgyqMRygiFs5WRnU11TteU4aCklRcUlVFZWYsQ1J97PuLZkZmaW4aHBiOV4d4UwIUALh7j59Q06OjoiCmzi5FIxYTLSl7gFj40hoVuPgxXousQfWOP2nTtMjI8mbUcqpJSo4TBf3/yajz76KOotEW/5S9mKqIBtKhJELGoCm80WrXVttjlmHU8tg8ZbpQ2FVuPGja/57NNPjNJUOzAPhBDRkleJfoeU1NY30Nx0OLqYlXhfI65fVTX6Bgbx+XyJd8wwhpeHj6+++gpIfS/NhZiW5mZq6+qTKEtGPyy9fT3hcIjr17/i+vXrBPx+zIzlsLnBer1iGnsHxBZG48c7PUX9iWcHuHu/k2sf/yNeb/LqGYnPZZxnZmqSL74w4qjTefbiF+ti7zrD1d94L9iw2Wxx4xMLbUn9XpDr3p0Swf2Oh3zw/t/j96fXtp1ACMHExCR37rXHJShM3rGK8kOcPXMGl8uV9oKtkR9jb/TXYmexksRZWFhYHBQigs3UxDgjoyNRwelJecdMiCU4VF5BVWW1sXULUrsQgpzcXBoaGujt6ycUschsFGBMQSwUDtPV1c2p02fIzt7dpEBhVY3UMF4wMrVLHWM9OzZQimIoz1JK7DaF0tIycnJzyc1xk5/jRtd1NF1n0eNjdXUV74qH1VVf9AyKIlIqfPFICdPTM9y9c5uKykpcrqy0x8fMUt71qIPrX30FyIi36mYXNrVw07ouEUjKy8spKCykOD+XnNw8cguKkJG++rzLzC8ssuzxMjM9SSisERPgzRjd1H2WUufLr76ivKyUFy68mFYfn43Ulm4JOJwuLly8RHdv/7rSeev2i1OYxsfGGB8f4+jRtm1rtXFN43p9vd3Mz89Fw0mSdUdKid1u54XzFxGJYloiqdnMWPXNlKhUrFfatvLeAHPe7SU+/fQTrl//OpKvIf1QHylNbxGJy2mjsKiEnJxc8nOzyct1o+sS31oAr8+P3+/H511hxbsafU88mR8gObrUudfeSU5eIa++8gqurPTfEwCfff45M7Mzm/TJzGUQu0dSQk52FmVl5RQV5lFSWoo7O894R2oaK54l5hcW8ax4mZ6cRNVl3Pg8+W+Tdf8VCh0Pu6ious6333jzydXPXcDvX+Pjj/4Rn8+X0gtJUQQ2m4OzL7xASdmhLV1DpFjcttjfWAq6hYWFxQHBXOUfGuxnbc2fIlxRRwgbdrtCfX0dRcXFW76WYZm00XC4kcLCImZnp9mo5JoYybckExMTLM7PktvQFLW07DS6DoFgiK6+4TgXT6PdseRmCpqmY7crNDc3c+H8OerqGnC6XIY1WRFmyCaqpqFpGsvLi0yMj3Pv7h2GRyfjEgmlI30Z7u6dDx9x/sJ56rcwPgIYHx/nk8+/wru6BkikbrrIpjpKR1EUdF0n251FW1sbbW3HqKurw5WVhU0xLOdKxHJuLgRoqkY4HGJyfJRbt2/zuKsHLarUGgs0yYRZMyZdVXU+uvYZ5ZVVVFXXbOs8MNy+N7c619Y1cPhwE4OD/VHdYGMXzPu57PEwPDRIc1Mz9m0qk2ei6zp9/YNomh5xuU7dj8bDDTQ1NSXRb2Qk9GGzhaPN74e+bo6l7/UhI54ZQu6d8lJfffkFn332Bbqe2rtn4wKJubBVW13BiVNnqa2upLikjCx39rr3hK4buSFUVcW7sszY6BgdHe0MjYyh6xpKXCbvZO9s896HQiGuX79OUWEB586fR1Fsm4Q9GO+R0ZEROjsfEluYS34NIYwFSyklLoedcy+c4dyFixSXlGGz2bDbbQihROecrmuoqvEenBwfpae3n4edHSx5ViJ9k8RCXpK2FFC49c03HD7cSGNjY7Idtx1zzO7cvsXg4OCm7yddl5xoa+TFSy8ZpUS3gKqGdn0hwmJ3sBR0CwsLiwOAlBJFUVjxLPO4uy+ljcoUrHJysjna2ozNllrIS4YQgurqKqqrKpidmYm6hT6p2BitWfX5GBoZp66hacvXyhSxBD/xbpam27qhnCsKFBcW8P3f/h3a2tqiY2PUCBbRUnNSSuxSYrPZyM/Pp66ugZcuX2FsbIJf/PxnTE5OoWrpuJIa+/j8AW7evEld/RaEUyFwOV3k5uagCNCkwGZLrZQaixGGAt7a0sK3v/0tausaom7suq5H+xi7jEBKG3a7JMvt5ujxU7QcPUZ/TzcfX7vG2PgUetRanVwBMOJrJYtLi3xz8wbv/fYPUJ5y/qWDTVFwuTYP38jJcXP0SDNDQwPAeou5Scw1V2doeJTFpSXKyg5tq3w9PDJC/8AAiiLQtORKjqlUXDx/NuJ2/OROpaUlfPu1l40wE0ScD0XkHJGfoH+N9gcPCYaSJy40Y6TLSos50tKM3WGPKZnERi7+34qAYEhFVVVammp3VTEx5+nYyAifXPsYVVXjrMZPjp0Zj64osVCW8kNlXHnpEucuxhSz+NwE8eMKRj33goICamrruXT5CoODQ3zyyTUGBwbRUdeFjiSyNpvvrkAgwOeff0ZjYxOlZWUp+2m+67/6/BqqpgJKijkkEMJYvHW5HBxtbebNN7/DofKK6Psu5sIec2c33wuKonCk7TitR49x+aVLfPHlF7R3dOL3B1J61hilGSWKorO4vMKNr7+mtq4OxzYvfqVibGSQD371Iapmhiesn6vxIQs2Bd54862naq/N5kBYLu4HEktBt7CwsDhA9PZ0Mzs7S3zSs0RIKSkuLqayuvaZlCObzc6RI608evSYsBpOqBjGWyQfdrZz+fJLOByZrf2dLhvd/uOHSAjIynJx6eJFXn/tVbJyctcJorE4bHP/2LjFu3LW1tbwZ3/251y7do1bt+9E45WTC8bRf9He/oA33vwOJSWlaVvRyysq+MM/+EM6Otq5e/cuk1MzSKnFCdCxi5pWsoL8bF6+eoULL14mOzt7nWKhJHSPjo9TNxeEbBw5doLq2lo++/QTbt/tIBBYQ9cTKznGPBBRN/LBoRHGRoepP7x9CzaaruEPBFLuY5Zca2lppaO9g4mpaQyr8JNjbwyNYHzccHMvLS1FiO1J9yN1nbHhQVa93nWLSsk4XF9La9uJ6DhvpLi4hO+8/W7KawohmJmepL+/L6WCDoZr75GWRt75/ntGQrotsBfqXi8uLvLRtWusrgXjns3EA2wqyCDIdrs5feo4r772OkXFpU+4cm/sW1RRX/ccCpqaGmlqauTWN1/z5RdfMDu/SCpvhHiviNm5BW59c4Pvvv1uwmvGX292dpbewVFMT6HkirJhxc52u3j91atcuvwyriy3cZ44xTy+Dxv7bF6z9FA57/3279Dc3Mynn3zKxNQMQuhRb6oNLY2Ov80mGB8fZ2BgkCNHWndlnvh8Pj759DN0XY+GKj25WGfcC0VRuHr1CpXVtU/llS8Uy8X9oGIlibOwsLA4AAghkLrOw4cPzYqzKfcFaDtyNGUJqnSQUlJXW0dBfl7EPTLpnoBgdGyCrocPosfuFYQQFOTl89qrL/OtN94gKyd33e/SOT5eSHVluXn9W9/m6tWrRskdsbkgJoRA1XQ6O+5vue3ZOblcvnyVP/zDH3H1yksUFxVCxDYT33opoba2hnfffYdXX38Dt9u9ziqWrkAcb0XLyc3nu2+/w9tvv01RUXFKIdV0dQVYXFyib2DQqMO8TXNBUZS0EiBKKSkpLaWxqTGSVC5xJ0xPi3AoTPfjh4SC25ORXkqJZ2WFweGRSMbt1New2x20HTsR6evTtSeaVFDXUWzpWQO1SIjHVrWM3Xz2pZSEw2Hu3bvP4OBQxLqbuj3m81tWUsj3vvcd3n7n+xSXlK37/WbPzsZnzFwUO3f+At9/7z2amppQlPhkjInaHnuG7ty9z2B/36bvlrGxUdbW1lCUzZ5tY/HsxRcvcuXl13A4XWn3bWMfwXj2Tp46w4/+yR/T1nY0spAVe/5NTwRTsXU5HVRUVHHixAkKCvKiY7RTSCnRVJVHDx8yODT6xOLmeowxb2yo4+orr6x7r20FXdt6UlCL/YGloFtYWFjsc0whYnion/6BAUzhIRm6Di6HjabmzFgui4pLqKuvx4wjTNzGmJvo7bv30DQ1I9d+FkzXRSGMuu4XL73I5ctXcbligunTndc4zu12c+nSJU6eOIaShpBrWvAePuoirKpbur4QRtavktJS3nzzLd555x2OtDRij1j9zXPV1tby9ttvc/LU2XWK+dNiHm+z2bl48QK/9fbblJaURNKRQWJF1xB8VU2jv6+fFY/nqa+/GbpuKGObYc6BtrZjFBTks2n+AAG9fQPMzc9n3MpnKm4T4+OMjY2naHOs7aUlxRxubERRlJTtiVcSN/6YnhM2ux2b3Z7ewlTkj1TnTfazG5jvyumpCTra7xMOh+LyRaxno4dMVUUpP/zBD7lw8UWczmd7R5jHGuNuo7Gphbfffpv6+npM5XyzPAErXh+//vWvCAX9CZVD8/wejyeld4C5r5SSxvoarr78Kja745nvkXl8SWkpb7/9dkRJN70RYkk0nQ4HR1tbePe3vsfv/u4PefPNN6msrNqVeTI/P0dHe3skWeCTynPsmTNqnl+5cpX83PRLlG5ESv2pFHuL5x9LQbewsLA4INy5204wFE75wTcVj7qGBqqqazJiobDZ7Zw7ewpFJC9XZmAIwiMjI8xMTxlbdtWSFlPSz5w5w9WrL0czI2dKMMzNzeXVV1+jsLBoUyuLYckTrKx4WV15OqVVCIHT6aLt2HH+4A9/xHe+8x3y8vORUlJUmM9rr1ylqakp48Kvea5jx4/z6quv4HZnRYX+jZeJue5LJicnmJqajG7PNIow6hOngxCC2rp6Kitr4tzEk1vSfWt+bt26E/l/5tpu1l8e6O9lzeeLztHEbQaB4HBDHWWlJRm5p2o4tG2eAXsBVVV5+LCTuYUFIKacPokxd4UQVB4q4Xd+8EMON7dgJkjLFObiSFVVFW+98S0K8nLSGntFURifnOb+vXvrQlRizZeEggGmxkdhk2oGJo2NDeTl5UXb9ayY75mysjJevnqF8kjMvK5L8nLcXDh/nj/50z/l9/7gDzn/4ktUVW295Gcm0HWdYDDInbv3GB4ZIVmNeLMCgpTQ2tpKQ2OT4aX0lGOlrCtTZ3GQsBR0CwsLi32MKXQtzs8yOjIUF+OXyooGp0+0RWqwPhumcNt85DgFhUXm1oT7Gi7wgkBQZWh4NHr87iAibZJUHirmnXfejrqiZxIpJWWHyjl37kxkS+rPss1mw7vqZXR0JLHQnQ7CiJfPzcvjtdde4z/+53/BqeOtnD9/nlNnXtg2y5R53pMnT9LS0ooujaRaiTKPm9azQDDE0vLyJgs7O4OUEqfTydmzp3A4bBGX3MTtMofv9u1vWF5e3MQddmsIYdQ+Hx4dNxK3ycQLAObzlJ+fx9G2NtwZKl8opeHmvh8RQuDzrnDn9h10zYiJTjS2Rq4EAEFWlotvv/kmdfWHk8b3Z6JdQggam1v53ve+u2ERYH1ZPNPTQVGg8lBxwvhwEyl1dE3dNOrB/HVTy/aUDhRCUFffQGtrM3m5uXz/++/yF//8L/i93/99WlpayMnJjWak3+lvgplgdWpilFvffI2qaQmVZhFN3qdQUV7KxQvncLvdSXN2pMPuff8sdhtLQbewsLDYx5gf+JGxcTzeVWw2s2RP4kzEUkrKy8q4eOnKuuMzwbdefy2la7BxfR0pdboePcC3urJrVjrTMuZy2nnltddxubK2pS3m+J45fYqcbHdKl0bzvuk6LC2vZERY1XWdopJS/smf/DO+9e03osL8dqEoCu7sHC5ffomy0hJAIZn8arZjfGwkUv4r8+hSJxxOL5zCbE/j4QYqD5VFSpulCtkQ6JrO/Tu3MzZ3TO+Cx13dTEyMJz2vELFM6rU11dTWNWTk+mDUhc9yZ+875cEcy+vXv8Lr80eer8Tja2Zstyk2zp4+TUvLUcxwmO1CCCOz/gvnX+TihbOYHkdmdnkpRbRixJHWZn7/937In//Ff8KLl68++7Uj7+zl5eVnPlfC8wuBw+Hkjbe+x7/4q7/i5ZdfoexQJXpkIWg3wx4AwuEwv/rwH1nzB5N6Opmu+Xa7jdOnz1Lf0PhMyjmApqqWi/sBxVLQLSwsLPY54XCI4cEBQsEwqU0lhgDY1FiPYrNn1OIH0NzcSGFBfmRb4n1NxWZyepahwaGMXP9pkVLS0tLEC+fOx7ldbw9l5VXUVFel1SYwSillArMOsRBGpvKdkgZr6+qoqanBrI2eCHP+zczMoGv6toy/oig4nFsrf5SbV8ill17Cbts8sZ9E8PBxD96VlWdoZQwBhEJBOjvup8wKbT5HDoeDY8ePkZeXl7Hx03UtWi99v+Ff89HT2xf9f/KM5sb4VldX8eJLL+HO3pkFC8NjQnL58hUK8vOMZ0Qa1SXqaqu4dOkSP/zBD/i93/8Dzpw5hzs7O/nJhJEbwuXO2fy5j4xDb8/jbVssAyMvR05OzIV/s5wJ207k3Xj37l2GhkbiNz+B6SVTX1vN+QvnMnJ545wZOZXFc4aloFtYWFjsY4xkUmMMDA6h6/om9a8hNzeHEyfPpNznaduRl19IfV1dNHY3sdxlbFxb8zM0PEQoFNxxK7rpSZCV5eTq1ZeTWkkzTXNLK0AkDCEZEl2XrCwtEA4FM3LdpxGATff6+J+tXM/hcNLa0hyN10zVhKWlFXxrvi23MR10XSe8SbmweMyxOn7yFDU1VcRnnd6IjLjwT01P0x/Jpv0syMhAjQ71M7pJcjghBLqUHCo/ROuRzLola6pKOBzcV4qDuUg1PDwcKUOZPCTBjPkXQnDxwjkqKip3rJ3mHCo7VMGpkycpLMjj+IkT/PZ77/GDH/yQ733ve7QeOUJubnoLMna7g6Li0nXnToQZR/24q5c7t7/JaMhGIvaCd4bZv4nxMT7+6DcRK37ifePfY6+88gqFhcUZaYOyoXSnxcHBqoNuYWFhsU+RUqLrOuPjkywte0BECqxtkKvihaHy8nJKDx2K1HjNrGLqcDhoaW3lUVc34XDiZHXGNkMJHR+fYGlxifKKioy2YzNMQau+rp6Kyuptt56bVFXXmi1I3T5AVYOG9Xkz7TYDRMtryc3LrcUr65u5pVbV1KIoNjRNI3H9YwNV1Vhd9VFcXJLxe6EoNlyurSWdklKSnZ3DqVNnGR2bwFDWEtePNkp2qTx+/IgTJ07ijFQAeBpMpaj9QSeqpiGEklBJim2SnDzWSl5eXkbHTbHZsNscUaVkP2COTdejh6iaTBp2YSKlpK66ipOnz2T8PbkZhreLnVdfe50Xzp2joKAId3Z2tB3p3mdz7uQX5MctOiSrg27MvbCq8vHHH5PtzuLk6RfWPev7Eb/fx4e/+Q0ezypCSWY5ByKlSy9efJGWI0cz9rzpupXF/aBiWdAtNkdKIyGMrsV+5Pr/79dsrhYWzzNSSla9KwwN9qUsJWXGNgshaGioIzuVW+RTYgorlVVVFOTnxiVZerLNxnbJ4uISC/NzxjtoB98xZqxnfX09Lpdrx65dWJBPVhru1kJKVn1+VFXLuJOxuagT32fz3pl/q+EwvrU11jb8BEOh6H4blfNElvbiouJoToRksb4Amq6yurI9sa+6rhEMbs0TwezX6VMno9bTZF4PRlZnwejoKAP9vU89l8yxm5+Z5t7de0mTlxntA5AU5OXw8iuvZzx+1+nMwuXOJlWiyeeR1dVVHnZ1b7qfaUk9d/El3O7sXZF/hBDkFxRSXVNHTm4uNtvTJ1Crr63B7XKgpay5bSYWlSx7Vvn/fv4LPvzV+6x6vdFrmu+O/YIQgvv37zEyPIxiE5Gki0/uYyZprKo4xPff/S3sGShBZ2KUG91fz5lFelgWdIvESImUGkLY0KVEhgMoMhwV3MyslkIoIATS7o5kfI68xK0lPwuLXUcIBY9nhZlZo1xQcjlSBxRyc3Oorz+M0+HclmfYLKfTdvQI1298E7VSbWyXsV3iWVmhr7eHpuYWXFlZGW9PsjYC5OblUVNTjT3NElyZuKbLZacgP5vAfOoSakJRCIZV1JQC9dYxFQ1NU/H7AwQDaywsLjI3O8vC7DSTs4tomkowGERVn4xDVRQFl8uF3W6norSQ0kOVlJYdoqSkGHd2Dm53Fk6HM2pdcjidgBKx2ikktqALpK6ztDCT0b5Gzy7EU7mRSilxZ+fQ2tzAzMwMkLjskvE5lKz6AkxMTtNy5Cg2W3o1xDe2U0rJN7duEtZidaKf3C9yUeDchYs4nK6Mex0E1lbxeT37amFeSsniwjyapqV89QlhJIjLz82mtblpT4zB095bEXGBqKyupaqmlv7+AVJZ0c3t5nz+5NPP6Op6zKnTpznadpL8/DxcLicOuyPqEv+8WtZ1XWd2ZooHHQ/wB4LRsJEn73fkXWa3c+HCBWx2Z0afN0fkfWlx8LAUdAuD+BeAEGiBZdSpR6jBFYJ+H8GZXrKDs4TVMLpqCIYOhx2bw4lQ7KwVtVFUcghbThmO0kbIKkExSzSJzcs6WVhYZBYpJZqm0dP9mMXFxWjm2VTui9WVlVRUVGzb0yqEwOXKoramluzsB/jW/Ju46MLj7h4uXb66Y27upnDlcmXhzs6Ntnunrr1ZjgApjYzKdpsNRclEySzzehLvygrT09OMj40yMjbBwuwUix5v0iznGy3k8QwPA7Rjt9sozM+lpKyCmqoKGhqbKCkupqjYqMlt9CG5e7vJ9rkRC5SnyDFgLjAcP3Gah4+6WVxaSnJ2wyNEyjC9vd2cOHGc8qeMWfYsL9M3MIRRszqVxR7y8nI5dSrzuSTAWCASO+zWvZ2Yc3d0dCQSepMqvlogkDS3tFBUUrotoUA7SuQZ/vbrrzEyPEw4wcKbiRlNYyrpUgomp+eYnP6Y6ze+4fDhw1SUl1FVVUNObg6lJSXk5OZhPt8icr2dChl6WqSUhENB7t29y8joWNx3c/2cMOeJoghaW1s5ceoMSoYXJZJljLfY/1gKukUEiR7wEp7vIdj7MeG5HsKjd9CCPnQ1gB5YRdODxAewBk0RXghUWy7L7myU7CKcFccgp4KshhdxtryJLac08oJLXpLGwsIiswghCIfDPOh8iBrJups8I7HA6XRyuLGJvPyCbV+xr6yupqSkGN/axKZxrJ4VL8NDA1RUVu6oYJebk407K2tHrynSXRYREAypm7ikbo55nz2eZXq7H9Pd08vE5BQrnhW0BG7uMWHxyXYmrrEsUVWN+UUPC0sr9Pb2UHC/g5LiIhoaDnPy1Cnyc934/YFISbBUjX2mriY/rZRo+tNnpS4pLaOmtjaqoG+cz+a/pZRMTk0zOTnJofKKyL7pzyspJUNDA6x4VjBLFT6ZSwLAyOp9tLWJQ2Vl2zJ/7Q4nLpcbIbz7IgbdHJ+VlVU0LdVCpnEfbDYbzc3N64593mlqbuXCubPc+OY25vOdaBxi85nIPsZc9Hq9dHZ28vixjZzsHNzZWRwqK6WqqoqyslLKy6soLMzHlZUdd64nw2h2G7NNI6OjPHjQiarpEet54rEQAooKC7hw4Tz5+fkZX7jStzFjvsXexlLQDyqxtyu6hGDH3+K79/8SnulC904hw0EjAQ0SgcQWWT2UUkTrYRL5rZA6dnUFfdWLvjpDeKYLgcDf8WNc1WdRj/yA/NPvkV1Qhik8WEuCFhbbhymUj44MMTe/kNYx+Xk5tLQ0Y9uBrLFlhypoaGhkYnIqomQmi6UVSF3yuKubSxmo5ZsOwszg7rTjcNj2pN9PMiU5baREAuFQkK7Hj7h+4zozM/P4o6XbZFT4jFcwI4eyVW3ZHFMhwOPxsLzsYXRsnPaOB3hXVnc12ZiiKDgdWyuzZiKEICcnh7a2YwwODuHz+aJJnRL1JxgM0dXdw9G242RlubaUzGt11UtXVxdrfj+JlHNjP+Pv3JxsTp85i92RuVjYeDQ1vO+yuIfDocj8N70TknfOZrNRU2MkdNwriuWzIhSFq6++zsT0PKOjI4Dhyr9Z92JJ4mJeW97VFbyrXqanZ+jq7sXlcpGT7aa0uICKqjpamhupqq4ly+1eF79unGd3x1MIgRoK8sm1j1mM1HxPvrANimKnre04zc0t29L2/eSpYrE1LAX9QCKNHyEIDX3Ows//M7SpB8bnSChGAjgkSC1u9T3y8tzo4hOvrEvD/iMAKYC1BQK9HxPo/YrQR/8lBW/85+Rd+Y9Q7FvLmGthYfF0dLS3o+tmtufE1lYzptLrXeVXv3qf3JzsTd2snwWpS8Kaht/niyaDS7E3CEFXTy8jo6PU19XtkEVbkJWTi9Pp2nOLieb9yst24nA8xSc8onkH1tb48rNrfHnjG/yBIDbbk1bZTClg8efRdSNDdjissrS0EMlpwuYW9G1C01TW/H5KnvJ4RVGoq62mMD+PlRVv0uzfptLe3d3N4uI8NTW1W5rLS0tLTM/MAaDrT45X7DSC+ob6p3ajT4f9lgxMSonf58OzOB9RSlNPxEOlReTk5O5Q63YGKSVlZYd4681v8bOf/pTlldXIHEsv4Cl+Ic90gRcCVDWMqoZZXV1lemaOR90DfPnlF+Tm5VNdWc758xdobGoky50TPX63lHTz2g87OxgcGiZ5PL7AyDkhKMjP5erVKziczu1R0PfY98di57AU9AOFNCwnusbKzCCrX/xP0P7/INUAUiiRUHGNeIE56jKXBvHKu5Dmy07BTRDpX2Pl/X/B2jf/loJ3/3uyDr+M4sqJXMB6AVlYZApTyJibm+NRV2/EGpRcmDaFfX8gRF//0M41NC4rcLJ3QFRx0yWd9+5QV1u7QwKLRGp7tzqFEAqr/iDhsIrbnf5x5tyYnprkgw8+oKu7F0VRUJT0rGXPynqrvIxm8d9NC7rNZsP9jAkIS8vKOX36FFMzs2iaGRqwsUNGbHgwEKCz/T7V1dWk++3TNY2xkWEW5uYiMc+J3G0FigJut5tjbW3k5eU/U582Y78pDrrUCIeDZpKHlGS5nNEkfftlHMwQlubmVt577z0+/MePmZ6eJlkpv81IdIiiREKvVI3FxUUWFxd48LCLksI8jrQdo6W5iZq6BvLz87dcMi4TGN/NWX794YebeArJSPsUXn/tVYpLnnZ5Lznxc2uPfoYsthnLd+LAYCjnWtDHwv2f4/3xHxO++38jtRBSUQzlWiZ3NX2a6xnvFh0dHakoKEJBm+1i6cd/yvLH/xJ1ecx48VtvHwuLjPP40QN8Pt+m9XwN5Yxoltqd+zEblrqBum5YML65c5dV70pmBicd9qjgvTEGdCsHCiEYGx3mZz/9MT09vdHcIBvd2VNhutebpaZMxTOWsTn2/9j+exepy4QZ6dPF7PfpM2coLiqICNZPLnZEy8whuNfezorHg0hj0KWUeFe9dHY+JJwkl4T5rZVSUFhQQGVlVaTKyvYMvt3pwuly7/l7uxVUVUPVUivckdlNfmEpth2o7rDTGEkbFY6fPM17732fo0dacDkd657lZ73nZkiT4W9pGIYWPV5u3vyGH//kp/z1X/81X3/9NYsLCxgePTsjH5rP5+3bd1hY8m767EhdcvJEG+cuvLjOTT9TP7HraGk9x4mSyW31WhZ7i/33hrFIjAR1aRjPJ/8Dns5fk7U2ht2MBzd32CaEablHIIWAtUX81/8XWB4k59Kf42p6PWZasbCweCaEEAQCAe7da4+6Q6ci/tHbnY/15tcUQhAIhujufsz5C5ei2w4uEqfDjm0r8YlCMNDXzfvvv8/E1OwTGvlmt359rGi826f5743nisWsr7cE7TGBUDz7XJJSUlBYzLHjx5n97AuEEEmfOyFg2eOlq+sxl166krpiQmRRZXZ6mompqahVbeNzaoyxgqIImhobOFRe/kz92Qw1FCAUWNtXa+uBYJhASEUoClKmXrAxlPPnt4RYSiLvhaamFspKimnv6OT2rW+YnZuPPsumZ+VW7/9GD5r4S4IgrKqMjAwzNjZG1+OHnDx5kuPHT8S8QXZgvAOBQNzCY/I+Ol0uXrxwnqXF+fSTe24BiZGMcH5unlCSKhqJCIfDLC7MGeUCU7UrkjPAleUmL78AZT/O5eccS0E/CEiJOtfF0i/+kmDfp2QJ4+E3crXJHXQwj7m0SjXE2oOfExq7R+73/iW5Z37XUtItLJ4RU3AfHuxnKZLgZjfdhzOF2Yeurl5OnjqLy+Xa7SbtGuZYbCUGWErJzMwMv/nHjxifnE0peMZfxwh/EFFLiwCys93kZOdQcaiIvLwC8opKI95XMQV+bdXDwtwsMwsrBIMBAgF/zHImjHrn5vVTl7TaITLw2RFCcPHiJe7evY/Xu5piT6PvX9+4wbHjJ8jPL0h1UkBy995dgsFQSoVQSsh2uzh+4hROZ/oJ6J6GZ818v9eIWRNj8z4hCSyU+1VJF0B+YTGXr1yhqfEwnQ86uHu/nRWvN05Rjz23ifIipIupsBvvAtA0jd6+AcbGJ+np6eXbb7xJTU3Njox3rHRainmA4XHx/q9/s60fV6EoBAJ+AiEt7e94T08PU5MTm75TzWE8eeI4V19+Facra3/O5ecYS0Hf70gNdXGQ5V/8JYHeawibDampSBGfjX3nEFGrSiSBiGeMlX/4K7DZyT35H1hKuoXFM2AmdBwYGiEUCqMoIlo26HnF9AJwOGyMT04wNTlJw+HDu92sXUPXwWYDVZNoaSjpZk3fmze+YmR0HEUBTUsuTBuCoEBKHZtNQdcldptCbW0tbUdaaDt+koLCIhyRDOEbhTqpaxARclVVw7viYXhokMHhEXp6elhZMZTXmOKfkWF5anRdom7BQpUIU6gvLS2lqaGW9s7HKRceFEVhdn6Bvu4uXrjwYvQc8ZjKyNLiIp0POlMI3DJqsW9rO8LhxqZtF7RdWW6yc/PxeP27v7iSAYQQuJwOHHaBpiXPwm/WmFeUfWo934AQArvdTnVtPZXVNZw7f45bt+8yONDH2MQUYCjUiqJgsz27u7QpF5rKfjAY4NHjbjwrK/z2e+9SW3d4z9Sd1zSViYmpbb+O6bGw2QKIMfYKXu8KKyveNM8rqa+rNhZ7Ldl7z2Ep6PsZXUX1TOL51X+Bv/djhFCQmmo8mLvsZigwBEC0MNI7xeqH/zX2rDyyml43MslbieMsLLaMlJLp6Wn6+vqQuo6+i9mxM4WM9EHTNHzeVYYG+qhvqEeI7S8Ht+OkeZ+kmccqzf37+wd43NUdUYj1iHKc/NxGEiRbJEN5FVevXObI0aNkZWVHhbikyqfdEf2dzWYn61A5ZYfKufDiS3i9Xh6036fjQTuTU9OEwxq6rmHkIdidSWq32XC7ny1JHETuhxC89vq36O7tJxAMJVT0ZCTDtaZB78AwJ8+8gCNJmTcpJQ8fdhLW9KQKvxBGrLnDITh56lz0uO1UIDVVRQ2Ftu38u0GWy0l2lovU89BYUFqcm0ENhw6EJ485jxRFoay8inferWZtdYX+vl4eP37E+OQM3tVVgsEwutSicerGu8ZMApo+MvrNMmREIRTGxyf463//7/mjH/2IuoamPeO5sDPrBHIL3gk6oKAo6Yy5jOZUsNibWAr6fkXq6GE/y5//zwQ6f0m0prnY+gtzWzBd66U0ksjN9rD6+f+IraAGR1kLoFireRYWW0RKmJwYw7O8HIkm2X0LZSYwlcZQWGVwZJQXPCsUFBbuCSEtkwhFwWZPXZPbzLjucCjY7akXKaSU+P1rdD7sZGl5BTPMaNM5IQRFhYW8cPY0F158icLIWJtJPRNZztcfHvtdvFKZl5fHlZdf4fSZM9y5c4e79+4xMzO7q1ZYTdcIBILPfqJIn0vLymk7eoSOBw/Rk/TLdKEdHh5kdGSYpuaWBKcTLC7M8/WN6+ZRSS+t6zpNjU0caW2JHrudqKoaqYO+D14uEXQp0ZOUotyIqob3jJK4U8TnoMjOzefU2fO0nTjNqneFsdERRsfHWZyfY3nFh8+3yvKyB7O0pyl3Gh4Im3+TYjHqSnScF5ZX+Zu/+TF/+k//GeXbnGMhXXZq+qcfpmaOc3rnBIGu68Z9OkBz+XnBUtD3JRKEgr/jxwRu/CvM7Oy7bTVPiKlECEmg/zPEZ/8dBe/9K+zOLdQOsrCwQEpJILDG4OAQPp8vrafdVLr2iqCZLAmWiQDmZmeZnZ2hsKhoZxu3Awibgn0TBd2wMAlUTd/UxV0IwcL8HIMDA8TnANmM6qoq3nrzTdrajkY8mmLn2yqJjsnNy+fqy69QV1fLv/m3/w5VTT/GMtMoQnm6evJJcDidnDh1mt6+Adb8fhIJzKaF0bviZaC/j/qGBhwOZ/T35vzv7elmbmEJIWxRZWcjUoLDbuPKSy9GEpxt/yAqNtum8/R5w+lykZ2TF7Eoph5Dr8+fVnjJfiT+ebbb7RQWFVNYVMzxE6fw+9fwrvpY8SwzPjHJ4sICc3MzLCwu419bQ9W0uNwTxt/rE8dtZH1I5MKSh1//+lf8zu/8gLy8vD3z3XpeMY121jjuTSwFfb8R8X30PX6fld/8N5G3nvmzNzESjQjQNQL3f4Kt4hSFr/ylFRNjYbFFlpaWGB8fiyT5SbySHq8A78UyK6Yw9mSzBAjJssdLX/8AdfUNuFzbmwxrp9HUMMGAP+U+pguorqdOFGcudgwN9LIcSRi42XdACEFlZSVvv/02zc3NxjzapvG12+3UNzSiKHZA2xXlHAzLaVh9thj0eIQQVFfXUF1TS19fT5JYZuPTFlY1evv6OXnqDBWVletia9fW1njw8HHU6pj4WsZ9rq2tobm1bccW2+x2B3aHc28k+MsQDocLd3YOQhGRMdeTzknvqg+v10thYdGeWuDcaeKt6orNRk5uHjm5eVRWVtLc0kogEGBtzRir2ZlpBodGmBwbYnHZS1jVonHQqZV0A6mDYoO+vgHa2+9z9erLB3bcM4lZGtOSt/celoK+D1nxeBj58H+ldHkSabOB/pwkiZIaUtVZ/fC/Ilx2nrK2K8SsPhYWFsmQUqLrOmNj48zNL67LSByPmUzKZhMUFhZy+fJlcnJyd6fR69oFIyOj3LlzB1UNR+uyr9/HECIkOn29vbz44otkZT177PBeQiA2fd2ZyrmigM2WKgjSONHg8Bh6JLlV4hjmWLZ2d1YWVy9form52Si7s80fDv/aGlJqcXGn23q5hAghsNkyl89ACEFxURGtzU0MDg6gaYbyv7Fv5j2cX1hkfn6OyqrKdcre7MwUc3Nz2O0Kqqo9kTfAdFFFSI4eO4HD6dwxZTEUDBBY8+0b5dxMhuZyZWGU19LRtMTTXwgIBUP093RRW1u3423diySac4qikJOTQ7bbTVlpGQ0Nhzl3/iKhoJ/+/gG+vnGdkbFxwmENm23zhR6hGAuS4XCY9vt3aTzcQHVNnaWkPyNSmjWdLPYaloK+35Aa8qt/SfHMF2h2O0LTnhP9NqJQKAIZXEN89d8im/4O4dx95cHCYq8jpSQUCtLV1YVqJoJMEOun6zKqCNXW1nH27Avk5+fvTqM3kJPtpqf7MUvLXhTlSeuVKcAJJNPTU0yOj1FaWrr/LFhpKT0Sp92OIpIr6EKAf83H0rIHM/4zEfEJiA43NtJ2/KQxnjswpsvLy9EqA0+TUCoTCMHW6smnedLm5kbK28uYmp5G0+QTCxDGJY0cAY8edtLU3Ex2dg4Auqbx8GEn3pUVdGkmiFt/CeN7CZXllRw7ejSSLC6z3UjRPcQeyKSdKcx3S3lZCXa7QjgsUZRksbxGsODw2GTUA2lfvX8yhDkm5jwRGF4zDkc+p8+c5WhbG3093Xz+2aeMTsxgJDhL/vwb98JIJjm/4GFqepaq6lpr7J8BYVrOJZb1fA+yf96wFiAl4ckOAr0fI/UwaBryOXroRCQeXdjshCba8T/6B6SuPt8pqC0sthkj4ZTC/PwcoyPDSN0IaUn02BiyksDtzqK1pYnc3JyokLnbP3V19VTX1Eb6lFxekBI0XdLb17dvLHhbwbR2B0IqYTVxLWpzXHxeDyvLS4AZSvQkxpxQyHI5ONraQk5OzrYLveY9HxkZREqNdGPjtwNd1wmFwhk/b3lFFU2NhxFCSZg1X8rYT29fH4vz8xEPF525+XlGRifQdD3hwoq5fqIgaGqsJz8/j50cP5vdiSPi4r4fMONw6+oPY7c7Iomzku1tLCjNzMwwPze3J0p+PQ/ExzpLKXE6XRw/eZo//pN/ytWrVygsyFu3b+JzGN+2YMDP6MgQfr8/ZZjP0xALsdo735btaUpsAcX0TrPYW1gW9P2C1JHhNQJd76PO9Zk1X/ZmYriUSKTU0P3LBB7/PVnNryNy90bGTguLvYgpzHR3dbHqW9s0LlRKyMvNo6amFkXZO6XKstw51NXV09PTSzgc3lRA6u7uxudbJTc3L+V++w1TlhIClE30I4/Xh28tkHJOGJt1nK4saut2zmU3GPDT3zeYVvzpdqIoCs4kZc6eFiEENrudU6dP0/GgE8/Kaoo+Cnw+P52PHlNb34Cu6wwPDTAzMx2X/Xr9EcaYCQoKCjh69BjuiOV9x4hbWNsU8fwUciosKqawII+1tbWk98ucr/MLC7Tfv8eb3/nurlvR4+9DptoR9Vjahn7FK+p5+fm8++67VJaX8cGvP2TVt7bJuwoQMDu3gN/vJzs7O6Nty8l2U5Sfi93u2HXXb4EgpKp4VlbTPibL5SIv153mAoPM+LvPInNYCvq+QRDyTOPt/RwZ9hvZGXe7SU+JACNh3MDn+Ia/IffE95/bvlhYbDdSSlQ1THt7h7kl6b6mYFRTXUFZWdkOtC59hICmxgZu5ecyN7+U0u1ZCIUV7yo3b97kjTfe3HUBeScxFYcslx3bJmXWQmHNKFaUKjN+JAbd5XJRXFK6Y+M4MzvDzOwMQigYGcp3x4qu6zqhcOYt6EIIqmtqqaur40Hno6QeISKiBty/f48rl1/CbncwMjJCKBRfykuuO0IIiSIUmhobqKmp2fH5r6lh1PDmddCllARDIXRdPhfZZLKyXBw7fpyJyZmI10Oy+Wi4Bd+7d4+XLr9Ebl7BjrYTjLFdW/Px6EE7efkFNDa34HS6Ir97Oo/ljfMoHAoyMNCP026nseVIxudYvKJ+4tRppmfnuH79BmqKpI3GIZIVzxL+NR+itDSjbbl48SJHj7SgKLZdVs8lAoFneYmf/PSnBIJqyoVMM79MS0sLr7/2ijF307hf2W43zn2WbHW/YCno+wFpfPy8M0OsTTwmK6qcP2/WcxOjP9rqAmtTj3AfeQu7I8uKkbGw2IApQLbfb2d2bmETS6QEFGw2QcuRY9gdO5dUKh2EEFRVVVNZVc3s/OIm5Y4MF9T2u3e5fOkS2QfIiq7rYLNBIKiiJnFxN0nn1poZq4VQcDqdmx/wjEgp0TSN7q4elj0rGLGnu+firig2XK7t6bfd7uC1116j8+FDzPjZJxCGpWzF46Gn6zG1DY309PZHXHfFBusoSKkjhB2ny0FDYyxufUdJM0eBlBAO60nrwe8lzHfh0dZWPv3kEzQ9tWeHoigsLS9z8+uveeOtHbaiRxo1Oz3NtU8/x+/3U1VVyclTZ7l44TyOyHO8lTbpuh511w8E/Ny9e5+HD+4xMTlN4+EGDlVUkpuXv20WdafTxamTJ+nv7WNyeppkYVrmNjUcQlczv7BWVFxCUXFJxs+7dYwlrdzcHBx2BX9g80dOCEluXh41dQ2R/++Nb7vF02EFz+wLJKh+7I//BndoNrbtOUYgEFJD6X0fvJM87/2xsNguNFXl/v17m7q0CSHQNJ0cdxYNdTU71LqtYbM7ON52JFoiLpV8oSgKM/PzjE/8/+yd+XdUx5XHP1WvN7X2FbSCBGjBLMKADbYZJ7bxEo8xduKcOP/SnMzMvzA5Z2JnvCROYuM1Nth4OTEYBMIIsUggJLRL3Vp6e6/mh+rXaoF6AbWk7qa/50jd/fp1vap6VfXurXvv9y6RNeUHkgtVmmwsPYXWVoyS9Y0mExQoZaZlFc0EBgeu09NzjkgkgrJUwvj49YCyLMLhzKVZuxtNTU1sb9uSUFmyb42l4NyFXs6e+RG/3x8d/+qec/U8NikvLWVb25Y1TYWXCC6PF29xespaKBzGsrJ/btptadnSSsuWrSTLIKPDni0ipuL8+fMM3byxTrXUUEA4HObsT2eZnpkhGApz7foAH3zwV/7wh//g5JefMT01FbNEJw95UrFNs5npKU599QX//V//yQcf/JX+a4MEQ2EGbt6iv//KmrZJCEFFZRXllZWA3ceJMeObZ3ZuIc/W/njosRcJh0gnSGTJ46yAfEHBgp4nUEE/i1f+iaVVW3JfodUPx/DkDcyZmziqtxXyNBZQQBxsoWRkZJihoSGktF2FE0FbSlvbtlNduymrrOfx2NHeRZGniIVAIOEyppuuFcveiz1s274Nw8j9x5mClH7AtuJmSEOnQkuC8lIvDgmRNBSkSCTC7KyPWrdnzcaFUoqF+TnOnfuJ8YkpQFORb6SAreL+Z7xspZCGgyP/9jQ3b72VktSvv7+fWzcHgMTWW6U0t8yBA49SVV23JvVOhXAoQGAxeZo1pfRmUigcIRgMZjxWeC2glEJIySNdHQwODibkR4jngRgdn+Trr0/zyrEaiktK1m1NHbxxg0uXLsU4JOy0e5NTM3x04jN++OFHdnR0sq+7m6qqSsrKyu+Rn0zTxOebZWpqinPne7h2pY/xyUn0s0JENwMtzZHQ00NraxsVlVVr1ka320VZiRdB6rSLDkOmXP/yAbanW2oItDdSAfmCggU916G0gBMZ70MFZtCCRq4r50uw5sYI3vxXdKXOn3YVUMBqYQtJ165eJRQ2U1ohlQK3y8njj+1fj+o9MEpKS9m9+xEEqVz0NNvu1atXGR+7kxcstA6HC4+7CEi8F2krB4YhEClY4rweD96i5OXZVtnFxUUGblyPHst8X9obQmfPnqWn50LU8pWYXX69IEVm86DHw2ZH3rKljbbWrWltigWCid127Z9WV5Wx/8DBZczY6wmn04U7jY0cpRRzc35mZ6bWqWarg92e7n37adi8KTZGU+Fy3xV+/PEHwuHQmq9DSinGR4f56MSHzPrnY+uB/tPjSwETU9N89913/M8f/8jJL78gGAzcU9bY2Bgfffghf/rfP/HD998xPjmFTteny7DLFQKuXrvOuXPnogz3mW+jYMmav1JawbtRXOSh2OuORlvkr6JummbBLvWQoqCg5zqiFrPF/pNYwTmENMgPRVbFXsYHetMmvCiggIcJM9OT9PVdxjTNpG6kNrFOW2srrdt2RI9l33yyhbM9e/ZiiKWUN4kghMQ/v8DgwGBeuDlaZkQL+SSX84UQhMIRTHNli4nN2l5SVklFVQ1a/E3ckUJAKBTi0uU+fLOzq2jBvYgXur/99jRffnWSxUAo7vuMXu6+YSmLcBJSqkygyOtl1+49sfRNDzr1bMK43Xv3UVJaviFjXluZjVicc6q2zPn9jI6Orplil2kopeN4H93/KIYhk66T9jxbXFzkm29O8+MP366pnKKUYmJslL998AG3b49EldplZ8S5fGsvxPn5OYSUyLs2oew5Oevz4/P7o1wUS2XEF6zJ/sKcPv0NP188H914ynDbgIWFBaZnfSlCcqKvcmM2p9YbhiE3fI0sYGNQUNBzHdE0Sb6RfkRS99ZchH7IyGsnIBIg+zlgCyhg/aCUYnT0DlPT01FL2srn2a6PAkVnZyeG4chaQdkWuLa2trJpc0P0c/I40EAgSF9fH3Nz/qxtV7pQloVpJid+syw7bjx1bKnT5aKqqiLFJodm/1UKrl+7yuWfe1HKymh+YSEEp06d4sMPTzA/P5dV98mQBp4o+/WaQAiklDQ3N7O5ri5mHbxf3ULfJygvL+epJ59am7qmCcMwcLk9ds2SnrsYCHGlr485vy/jOavXAnotlXR07mTr1q320QT8AUsBErO+eU588jmnT31hf5mx3Sf7Oj7fDJ//8wv6rw+mSdKnOUcOPnYIp3M5EaIQgrq6OrZuacYwDIRQSeK+9UbErG+Od99/n4vnz4DInKeNZVkoy+Jq/xUGB2/qLEQpPH5Ky6soKi7Le+XVslRB9H1IUVDQ8wDKMnGHRtc0lm5joNviCvsIBRY2uC45hMJinvdQShEMLHL5ch8zs37ASihc2QJMVVVVnMCZvbAsC6fTxbbW5Dm5pbSVVcH45DSTU9PrVMM1RNSClQy63QpvkStpDltboejoaAcSC9NKqVhKqUAwxMmvTzMwMKgjGlehUNkW08WFeT7/9ASffvIpkUgo6wTqiGmyEFhc02tYlkVNbS0dnR3R0I3UJFh3ww4H2NbaTGlZGZZlbYgFUc9PB+XlZdF6Jb6hlgUoi4uXLmv36KinT6LfWFZmN4YeFFJK6urq6O7uxu12xeZc8u5WBIJh/vaPj/nm5BeEIxGs1RKYKRXrj4nxUf7y7jucPfMToJLWZ8ntW3Dw4AE2ba5fsR5CCPbu3Ut1VRUgY2vqSm2zMTcf5J133+fC+TMZIWizLAspBEO3Bjn51ZcEg0G76Qnapb9s3FxHaUlxVm32rQWUyt2UyQWsDgUFPaehF6Z53xRjQwNIkuXtzF2YVgT/6FX9IQ/bl1lkYilPhzM0t5EP7fP5/YzcGY0ZamSC1dwW4hvq66moqt4wwT5dSCmRUrJv/37KSksSugTbbbYsi6mpSYZuDmClsD7nA1SUSW4xECaSpL32PW5t20F9fX30WKIyl/p4YmKc9957j96LPZiR8PJnSgqLffz7SCTC9WtXef/9dzl56htC4VBMOcum4WdIiXuN08tJKXE6XXR1dVFTW41SIuF8TQyFt6iIxw89EZsjGwEpJS6ni021NTgMI2nGNSmXSPhOfPwJn37yMZOT44RDoZhyZ/9ZlkUwEGB+zp8VSrpSsGfPHvbs3gOIGGlZKl4MSwk++uRz/u/Pb3NzcIBQMBDbrIrNkaWg8WV/d88hhcLv8/Fz7wX+9Nbb9F7uh6jHS6o13LIU9ZtrOPJvv0jIfSCEoLGphcOHH0cKFWvnSoi5lgtYCIT4+98/4rvT3+D3+ZaFL6SSQe9uYygUYuB6P3/+81uMTczEumfl3wIIirxetrS24SnyZvWzLBNwOBwFsfchRe7T3j70ULgDo1TMX8GSDoTKLwFVARKLcmsyY+XlMwxprFpwk4YBthtmhuqVXVB4XXHSRi5CKcbu3GF0dJSYCJxwcCukNNi+Y0daxE7ZAKUUpaVl1G+uY9bnTyGwQSgUobf3Ejt37aZyDVmGswGaIE6/pkpfpfuxlEd2djE2OoqpTZoJy7WJ98bGxnnnnXc4cuQInZ1dbG5oWGLJjxP27xbGlbIIBUPcHh6m70of53/6iampaR0NGzflskngVKh1UQgFUF/fwNaWFiYmpu5zM10ghGLL1q1U19QlVLjWA0IIDIeDxqZmysrKmJqeTuKdsfRqmiYnT33NjYEBOtp3UN/QiLfIjRCCYCjMrG+O0ZFhFhbm+fdjr1JSUrqOrboXQgiKiop5+ukjDN++xdDwaIxDIDkUkYhJT88FRkaG2dnVRXtHO5vrm9JistcpzyJMTU0xfHuInp4e+vuvEggu8TbY9UhkZQZBaYmXo0efp7QsNVdBd3c358+fY2BwKMZzcG+9ln+e8fn5+NPPGLw5wJ7de2hsbqG8vCIWl6/rsrLRSClFMBhkeHiYny9d4uzZH/H551N1TWwNqamupLGhYcNIEtcT2bahWcD6oaCg5wU046bIJqknQxAILAUzAahdTUHRRc5mJ81PCJCrt37bUb/52k8C8LriP+UWLMsiGAzQ03OehfmFtO5TbU0Vzc3NSJmc9CibUFJSyo72Dm4M3iIUCscUyJWhuD1yh7HRO1RWVm2oArPW0O7RCochMIzkm3FCCBwOB+3t7fRe+pmRkZFYGck3PRSLwTBf/PMrensvsW37Nlpb29hUV0NJaQUOpxPDMLDzJwcWFxgdG2NyYoKBgRvcvDXM+PiYLu+u68XncDekXL0bcK5ACIq8xXTtfISLvZcJBBfTbreU4PF46eraSXFx8RpXND3U1NRSW1cTDS1RiHTS5QnBrVtDDN0eprjYi8ftRAhBOBxhYTFIOBxGCsGBAwfY3t65Lu1IUV3q6jZz9IWXePfd95ib86f5S4WlYGx8konJb7nYe5Haunq2NDdS39BEZUUZTme8+K03KXz+eXyzM4yM3Gbo9jAT4xMsLC7GNpDiGdtXqqsO+dHzvru7m/b2jrTWwpLSco4ff42333qL0fHJmJKe7HYqBcFgkHPnLnLj+gB1mzaxo72D5qYmamqq8XiLdQiO0u74oVCQ+Xkfs7NzTE5OcOPGdW7eus3kxARWmvNACIFhOOjq6KBu0+a8XePjYZprS2BZQPaioKAXkBMIRvPHaiesB4PNa5qP0N5pCplGvuNUUEjCyoVDU7XkoAqbBmKeJqsZUesPHS8s8fn8XL0+eI/yEw99XAtajU3NVFfXrHd1HxhaEDNoaGikrLSUyalplDJZ6V7ZFqNgMMCVvj52tHfmtWXFFsRlEtfieEgpaWpu4bEDj/LpZ58TCIawTJ03OQlXMkpZmJbe+BgZHefMmZ8o9rooq6jG5fLgcBhRV3aTxXkfE1PThMMRQjH3Zbjbu0Nb1CxA4DAkR546xLffn4mmgJJsxAotEOvqLt7S0kxFeTHDd1Lzqtj3VymorqqguakxSui1sWNbCEFZeTmdnV0MDt4kGAzGYqIT6Vqx74RCWSZ+/xw+31J59r23gAsXLrC9vTMrNtoU0NHZybFXXuLtt9/GVPGEnIksxParwrJMxidmmJicpr+/H5fLjcdl4HQsjTmdlcEkGLYwzTChUBjTtJbd/2R5we2+1VwS0NXVyRNPPoUrTY8ppRSNTS08+9zzvPve+4RCwag7f+I22kSVQsCMb45Z/zwDgzfxuN1UVpZT5C3B7XZFPX0sgoFFfLPTLATC0XUiiM02b1nEeDASwSazbG6u5+Chw0jj4VBfNKnrRteigI3AwzHCHyKoKFtzvkChMKSktlg/ZFbzsI7IYoKOmph1OJ/EdyXAkm7mXLWUrbKskCpiJNzFVjlIxMqnXtJQgPBUE8tRk4OKXP/lXub8s0nng2VpV2iPp5ht27ZT5M2xeD0hqK2tpba2mvGJyahyd69vh60IKgUDgzcxI2Fcbk9WCPdrAX1fBaGIVo7TgWEYHHjsMa5cvcalS5eRhkzh1r3cjd2yIswvWPjn5rkzNh0Vzu01Wb/XucTtWFvtkh0v3NvurjZ51eFDj/HMsy/Q09NLIBBEyvRyTmcapmURjHMfXksopSgtq+DQocf5ywf/iFqdrSTeDLofDSlp37GDhobGrBnTQgg6Ozv5/vsfuHNndJkFdyXEz9Pokbhz1bLfXh8YZN4/S3E0ldxGtlkIgVCK3Xv24ffN8NGJzzCtpVRmidy4gSjRIkip22eaEQIBk/n5e++5lAIpRSw7BSzFXKdSXu01wTQVDZtqePaXT1NdXZ12v9lt2LV7N3Pzc3z88SeEw3qTINHeVXz4gl4DLMJhzT3h88+h1wJ7jVg632HIaFjJUntStc++jtfj4PixlykrKyf/pLjEyJIpX8A6o0ASlwcwpZuQ1PFa+TiPlbKwhGF/eMBCLFxuN96SUkDmYT8JjKIK3M37V12S2ynZUlNKxMpPujgBUNGq3+Xgk880TS73X0ch0QrQyufZjLyVFaU01G9e1zpmAtpKV0FTcwtOpzM6FhPl/QYQDA0NcaXv5/WsZmaRxvIWL+zej+Licnn49eu/pqWlBVuxSPbzeFda/V4L61LqNFSGITAM/V6PNZuhWzdE/2Y5IZQQAikNtm3bxv6Dh3DEpX7aKCuRYRgUFXlSn5gBCKFH8b5HD7C5rjaN2HcLkFRUlNHe0ZF161VVVTUvPv8cZSVF2Czg94N4jjSbbE4IweidO1y92r8mdX4Q2KR8jx86wrFXj1FZVRn1ZEgekx7v4WSfa5pWtMzlfzp23UIrtstLSZUX3F7rGzbVcPy147RsbbvvTQ3ba+ngwcd45plfUlTkiebgTj0x7Y0Em+xP38f4NUJENyDAUtY93BmpriGEoKSkmDfe+C2Nza2xYw8DHorwnwJWREFBz2loS0SwuJnpyn0YykLl2aIlACUMFh2rc89VQmA5vCyWtGBJN/mWuEIAhhSUFjlWL+lKJ6a3UwsUeTeeFGGKEUZ2xHHeD2wFZ+jWAIMD10kluIFACmhqamLT5vr1qmbG0dbWhtdbhBUVAldCTABG8OWXX2GaZk4KcMKQGI7EqdNgSeB3OWTKGPSl34iYW/Lv3/wd7e0dD9Q/ttKtonGlNit7OkuOfbmtrVt56aWXaGxsRAgIhsIbqndalkUoFF636ynAU1TMoUOH9GeVuPFSak+HttZWmlu2rFMN04M9pnbu2s2LLzyP2+1itSYCe3PHUoKfzvyYVRknhBA4XS727z/I0eeOsqmudtl36SB+nsRvTsRvUqT7+LY3NDSBoKSrq4PfvPEb2rZ3pN+oe8oUuN1uDh9+gqef/gXeqNfV/W7Ur7xGqFg706vL0hirrqrixReeZ+euvbF6PixQWZDRoICNQUFBzwMUexw0VLpZOUIzt2GHMRbV6F3TB5XkBALD6aa4qgHD6Yo92PIGQiAMN8pbt7pylGZ5luWN2m8+j/pIoR/2Icc2LHdj9GjutM8WSk6dOkUgmJ5S43A42LF9Bw6HIyeFGiEEjY3N1NXWkNq8rL8fHhnl9q1BfSTHrA9SGjiiuc2TuQoLAaal7rFEpYOq6mpefvlldu3ahZTL45kzOUTuLkspaG1t5dgrr0St+NrK5i1yb2ikiRQCh8NY9+umUrhtl3GXy8XuvftwOl1ZOocFjx58nKPPPUuRx7P68aT0vB8aGWXszu2smsNCCJxOJ93d3bz++ut0bG+N+y7+dW3uU/w1tFs6lBZ7efLwIY4de5XmLW0ZuY7H4+HJJ5/k+KvHaGzYxHJ38vUag3pboLF+E7/61Yvse3R/TpGcZgrSWP+1qYDsQEFBz3UohcOQeLzl2Bb1/IFui7OyGU/xKiOrhUAaDtzeUoThIBHxSS5CIZCWhd9ZgyqqzkiZRkmbjn9M4FKci9AM/gJvSQ0ut5dcpAycGB/l+o2BlFYI253S6/GwtbU1+clZDKUUbreb3bv3oCCpxVgprWxFTJOLl3LTzT0SDhNc1ORhyVjWbQX9QdYwIQR1dXUcO/YKzzz9FJ4okVOmiPXudcHXvCjde/fw5ptv0tDQGKu3ZVlMz84vi2lfb1hKJc0nv1Y4868fgGRKrO7Ihvpatm/fnrXPKz1uJIefeILXjr9CTXVF3PEHuKdR5XN+YZGBGzeyTqKxXcFbtrTy6zfe5OjR56ioqIjGjketzRmu9N1zSim9l16/uY5Xj7/G8y+8eF8x56mvpzcidu/Zy+9+93sOHDyAy2XErRMZuUzc9ZZepYzGrSuLRx7ZyRu//R1dOx/B6UzuWZSvsO93AQ8f/h8AAP//7N15kBzned/x7/t29xw7uzM7u4s9cB8LEIuLB0iAt2heoUhRkklZoWWTtCWHsexUqcqVqFSqUsWuUlUqVXYlcSmJLcllll1OXDnkSI4jKVZkSSnaJmVRISWAh0gABEDc1wLYxc7R/eaP7p7dBXaXALHHzO7v8wdZ2NmZebun9533eZ+3n1dF4lqccxHGWPy+LWC+xmIL0A2QveEh8ILrLOgVV461hV5stoNo9CzT7ffZShwGjIWwTnbdHfgd17UZXfxagOvYjctvwVT24LCLIlB3zoHxcB2rIGgDF4JpjS4wHZy//fbbjI1VCIKA6aqap9V86/U6W7dvo9RZnufWzp50wLl5aAvF73yXCxcuJMXIrpRWOo7qEYcP7md05CL5titvZbDWNrYIm/o9aQxE57s/jQeoNrlnc7rJCAfYRhbt/bDWUiyWeOChR+jtG+Bvvvsd3j12qhFUpXvvxufo2qqrp5+DMR5hGNLeXuDBB+5n9+234/uZ5DjjdnueZdXyZex75wi+b6eflIiuvVBYeizWTncfrZvX6u0T23Xp0iVe3fNG3IopK2Sn/ZXj0Ucewff9pg3QgeQ8+tx0y22Uy9189//8b157cx9h6JJJtXTJM1fcp54WwpsYgBoD9XrED//hR2zespVSZ9fMn/97ftbj19xsfObpa5U6O3n44X/EjTt28K1v/hWvv/Ez6sntNcaaRmV7oHHsV/cxxmOTdBWFMST3g4NzIflclt27d3Hvvfc19jmf7cxy+nq9ff08+cQTbFi/jv/1zW9z/vwwzqXnenz7t2s7vokcztmkQF68Kmh5fw8f+MB97Lxtd+PzXGqZ81StVsX3PTzPNqr0TyW9HWYh+jSZG60xOpVpGRMXisptfYwLL3yJaPTcogg8IVlU5flQHiT9wnr/A2aDMR7BwFb8ZRupnd63KDp8k5yTGh5d5T58a67/o3chfnuRqLQSd3zv+KlvYS7JbNRcGyPeLrpMEYPXUtNZ1coYhw4eoqOjSDyomS6T4ZJsMgxtGQLnkmJFrXS0k5XLZbYODfL6m/uA6ZaRxhepc4bzFy/x+mt7ueXWXZN+wxhDPp+nXp9pb9n43Gaz2flbdt2YfDRksllKpdIMS2Xj9nUW2/GvY/mjMQbP97nplp1s2bqNv/ne93jrzTc4fuJkvG1WOknhXKMZl8+Rjk9kpB1EGtxbisUCq1eu4J577mHNug3EffDkNkSRY/jiJTo7O0mrvl95rHE/Z69hGboxhkwmQ6lUmvZ30urTpVKRbCYz7e/NprSI1ve//wMuXBhOBtXTd67r165h3eAmoPn/fm0Sna1Zt55nP/lPePHFl9jz01c5ceIkly6NUa3VsHa8snfMTVg94ZLMbYYgCAiCDH0Dy6mHMxVIS1bZ+QHFYnHG5eXOucYe8rOZaXbO0dvXz9PP/io/e30v/+8ne3jrrX2Mjo5Qq1UbfyNpIbjxCcCp2phOVqTV4eMK8GDI5XJ0dBTYvGkjt+26nb7+gca93XN1bTQmNTyfnbfuYtMNQ7zwwgvse+tnnDx1mktjY42id/GvTmzL5YXgLu8rgKTIqTGOfL6NrnKJzUNb2L1r16SJ5Wa/9udS4Gfw/YBiMTdNHzku3YZVFgfjmnlaVq6Oc9QvnuDkl+4iPL0fZ9LArZXFg1Wvo5fOX/xT8hvvHy+Jeh1cWOPoX36B8G//LVDHuNbODDsM1sFYUKL0T39Az5qt8QPXc55cBMZyce8f4+/5FMZOWF/XwhwWk+nB3/bv8NY+CcZbuBtf34d6rcrJkycZu8otoaw1DAwMkMlk57hl82P43BlOnzl31YO1cmeJznJX49/OOSqVCidOnCC8iiXN+VyWnp4efD+Yt+ukXq9x7OhRqrVwxreMM2o+AwMD178vdhItRFHEubOnefONN9h/4CDHjx/hzNnzhGFIvV6fOYPrHH4QkEvO2UB/H9u3b2fFylXk823TBhHOOd555533zg47R3d3F8VS51UekuP48eOMjo7OeG7Sx5YvX05mHoJ05xwnT57k+eef5+TJkzO2y/d9Hn30Ue6+++45DcJmXXI9OeeojF3iyJGjHD1ymBMnTjB8/iLVWpV6rUoYhvh+Jqm74JHNZMlkAgYGBih1dlIqlRgYWEEQzFw/wznHmTNnGB4+lyQspmetpbe3l3w+P9tHPd6eKOTAgXc4sH8fhw6/y8WLFzh16hSVWp1atTLjOCYN+K0x+EFARyFPob2Dnp4eBgc3sHzFCnqX9eEHwbxfE+OTBo7zw+d4e99+9u8/wKlTxzlz+jQXRkYJ62GSVZ9h1U3yOkEmQ6EtR1f3MorFDjZvHmL1qpV0dfdMWMXTItf8HKrXaxw58i7hDBNVEF87YRhSKpXo6bm+osrSHBSgLwYuwtUrnP36bzH6919OJtha/WONO+bMhvvo+sd/hN+5ZnYGyc5xdu9fM/rnn8BVhuNlzi0tDp5HVz3I+k9/Az/IzlowcencQcwP7sRUjyQZ6Na9plxah7b75/Bv+Y94pXRVRmu51u46Tii13nFO5VqOPR3cXT7Au+bztwDn7lraOJvtG39fx9hYhVMnjnP67DkuXrjA8LnTnBs+z+ilCi6KqNXreNbieT6ZjE+5WKDU3UtXuYu+/j66yl14vn9VbZyr412o8ziTMAz52xf+L9/69l83sqvTtaevdxlPP/00y3r7WjJQmXz+HfVanUqlQqVao16rEEUhnh/gWQ8/8Mlms3ieF0+IJa6+OvrVZZLnI8OYHrdzjtHRUUZGLnDy5CkuXrjIyeNHGBurcGFkjHpYJwzryV7j8coBYy3t+SzlcplSuZvucomOjiLl7m6ymWxTrISa+LlWKhVGkgmIU6fPMHz2FOfODTNWjY+tUqk2bj3wPQ/P9ykX2wiCDMv6l9NZKtGzbBkdHUUymcySX84+navty6b73pPWpCXui4IBP0d988e49MpfkR97l9Zelxx3Lg7Irt2NV5jd2cDsqls5UtpO17HvUzete391umzb4Sjs/CX8TG72Mt0uIte+jErf43D4KxiX3mDQeteUS5bWOmewHZux7WtpxeAclvbA5f3cgzzVz1plEDjf7Rt/v3g57crVa1i5ek2SQa9Rq9UJwzAJhiLS4mDWWjKBjx9kJtUHuNr2z+Xy3GbKwjnnOHf2NK+99hq12tTbuk1s6pahzXR2llu0p7r8c40zwn4QUJjidyYGIO/n80qf0wyf9cS2FAoFCoUCvb39OOeoVsYIo4h6PcRFEdGEiYV04sD3PTJBgH951X5zrZudzY2JbcrlcmSzWbq6exiMIuq1atxPRBHxnu/xSiBDfE++MXFfYawlk8lgjG2pPnmhXMt50TlcPBSgLwbGYFxEuW8V9K+l+s4xnAuTnGELBlTJF5bf0U929e2YTPvsvbiBto4yyzfexMjR72E8iwujlkwyxgslIvxiP703PTL7r299vM6thAcNmKh1g3McjgAvtwzT92hSxV8Ws6tZ1tysmqF9E9vgeR6e5xEE0RWBUJq5tMY0CnU1k6Zpj3MY4PDBQxw9epy4qNaV95PGhbYMXeVONm66gUx2cdyeAnP/N3k1r7Fwk15JXYRsDmDSxNHEALWRAQVMi9xLPLH4XiabI8i4KTO5k/qK+IlNNbGyGOg8Li6t0QPIVfE7V5IfegTjBZM6/daSdNrWJ1h/D/6q22f3/ufkpTrueA7bVsaF9Zbs1Fxyj35kAsytz+G1942Xe50NxoKxeAMPYbvuAGOT92wtcXDuEVDjuLebsc67WnHOSmTBpANtz/Ow1jaqzKdZP8/zMEtwf+JrETnH+fPDvPqTVxkZHZ1QHX9cWkjMGMOGdWsZGFjeot/hMp307+fyv6XLf94qwflEl/cJE/uJK/oK9Rci76n1egGZmrEYP0f2hg/i9w1hHDTHgqhrkZY39bBtXbTteDLeNmw2O/KkiqjfO0ThjucaZ6jVhkEmaXC1fTVm8IMAuFn/wrOYtjWY/scxNkcc7rbWNeWIB72j9QzBmmdo7yi26up2EWlRxhiOHTvGW2/vSzKJV36tpVnHtnyewRs201YoKIgREVmiFKAvJsYS9G/DbHuKut+BsbbFAs94A10X1fFW7Sa74efmJnI28XYwhTs+TbV/V7LPdwsNhFy82NxZn9zQI3St2NSojDqrjMH4WezyRzGlHdgWOkUwvsoAF3I69xDFlfckj7TYgYhIy3LOUa/X+clP9zB6aWzK+66BxrL3np4eNmzYoOBcRGQJU4C+yBjr07H7U1RX3Ysfhe+57UjzSLKzkSPoWkP2gd/BK3TP2bs5wJZWkbn3c9SDcvz+rgUGRM7gjMNaj6B3M907fwE/1zGnlbptaRMjKz7DCMuw1h8PfJtYWrXd4HCmRHnn75Avdr3n80REZksahL975AivvvrKpJ9dKS76eeOOrXR0FOephSIi0oxaJXqTa5Br72TNB/8F500bOFokoAJjLBGQueezlFZvZ8p1gLMkLsTiGNh8O6WtD0x8hOY9V3FwboxH3Wbxhx4nt/pWjPXe+6nX8Z7GBrSteRJb2olxtXgFQiuszTAWZ8CseYbSipvB1Wnez1ZEFiNjDD/6hx8yOjqGtVMX0kuz513ldrZv36HsuYjIEqcAfbFJAs/Mursxj38F42cxxuK4smJs8zBJvtMne9uvUbrr03Hmf46z/8Z6eB19tO18Fr97fRzoutmtSTebnHNxrYEoxK2+G/+ufw5+fl72uc7mLB03/x5hbgvGhTiat2jc+PZzFtf5EP7QZ5N5F1VvF5H5kd5TfvzYUfb85BXAEUVumgx6XCtj6/abKZW7VRxORGSJU4C+GCUZzg13PkF+5zMYP4dpfNTNFVSl2X0DVNc+RPHhf4ln5jdKzm16gPZ7P4PX3pPs1QlNeZ6MwUTg9d1A/2O/TWexOH+tdA7bvQn/xn+Fy62cMCnQfOcp/fgqmU1UNnwekxtY6GaJyBIUhSEvvfh3nL84NuM8qnOOQluBO++8U8G5iIgoQF/MjJeh+MBnyd/4JCbIE3/czZVJN0lVddu3lf4HP0Ou2JM+MF8NAOvTtvNZgg98jhHasTRT8GnApWsMDGNd2yj//JfIrdkdPzZv58kCBn/FB7FDX4DcymTrNeavDdfABd3kNv8mxRW3JAsxmq+NIrK4HTt2hL2vvY6dscJm/Ni2LZvp7o7rrmiJu4jI0qYAfdEyYMAvrab44BfIb/8IeD4Yv3nuHjYezkV45bUUP/S75NfdhbH+AgR8Bptpo7T7UxRuf46K8yc9tlBLuV2y7ZwzcRuGSzvIfujfkB18ILk/fyFa5RGs+QR23T8DrwRYnEvvSF/A8wRJNX6HMx5m6Itk1v4SNmhD3ZyIzCfnHPVajZdf/hFnz51PfgaX95HxV52j2FHgtl27kp8pOBcRWeo0cl3UDBiL37WOzsd/l/wND0JYxzN2wQrHuSQjjPEgCrFelp5n/ittG+/D+Jk5v+98WsYSZPP0f+i3MR/+MjZfTjLEBuPcvAfp6ftG1o83gevZTPdHf4+BrR/ARdHCZa2NwXhtBIO/jtn4eYxfwLMWQ1rnYH655G7zRnDuHO7mPyGz4VmMX0BdnIgshHPD59h/4BDORUSRawTjKRPPv2KtYeWqNXR19xJF0YK1V0REmodGr4udiZdB2/Y+ys/+Bbk7f4NLQVcj3Iy3Fpv7YG/ShID1MF6G3E0fp//zbxOsuDkOzBd6Szhj8fwsq+/4GIVHvojpWIE1Ps4YjAPmZRs2kwTngPXwI6B3K10f+df0b70PzxqMXejzZDBBG9mtv4XZ8kXOu4FkqbttZPvnmkvPUxqcGw+yfQS7/4z8+qfify/09SQiS5JzjjfeeJPjx48TRWDtlWVV4nlWQyaTZfv2bbQV8sqei4gIoAB9iYi/9K316X7i98l99A/x+3dAupy8EVTN1eAgLtzlMBgT4JVWUrjnM3R+9PfxigPxI3O6Vdg1sB7Gz9F226fIPv7vqax9EA+DMza5HXzuBlDpaxsMzoDNFLi47RmKv/BV2jY/GgfGzTKAS7JBmU2/SeWWb0L5fvByQNrGuQ3UG1er8aiZTsKex/F3fwNv1VPgoniFhojIPHPOcfbsWV57bS/VahVj3JQ1T21SEqavt4cVy5djjG2e/l1ERBaU9h1aMsaDv+W3PEZlWR+jL/0RY298m+j80cbvxFnJ619m51xcDd01gnMwxqO67Zfp2/lh8hvuw+aK8SNNluk0xhIEhp6bHqMwsInhl25idO+3yJ/8ceOYaBzV9S/rHq9kH5+telAku3onhW0fpnTzJym05a/7PWZfYw0GA2u3EHX/AeH+rxId+QZu9C0M1WTZezo1M5vnCTAOF4FXGKTe+0n8DU/hlVYkS/81yBWRheGc4/Chgxw+fDj5SfpdcSU/8Nm0aSPLlvUqOBcRkQbjtKfH0pMUGAsvnqR65BVGfvyfqe75OuHo2Ti0SbPZLuL9BKDO2Hjv9ShsvFd29S7abnoKs/0T5Is9SVXb5h6QpH8atVqNysGXuPTD5xl+8wfkLhwA6nFBOxzOReOTEFd1vkyyR26SMYkiIuKJgZGenXTsfIryjg+R61kX73vehNu+TRZXiXP1i4Rn9lJ/93/A4T/DVOMBqksqwOOi9xWox1vMefHEkYvi92obxFvxMbxVH4WOLdhMgeY+RyKyFIyNjfHf/suf8+pP9864ZZoxhmU93Xz84x9nzdp189hCERFpdgrQlzIXZ8qj6giVo3sY/bv/QOXt7+MuHIN6jch6STH4JAAbv3E9/n8y428ajxmsA+NCQuIl2hfWfYSOW56ib9OteG1dYIOWyxQ458CFuNoYI0f3cuilr9P1+vPUzh+Nj9daQjOeUTaXn6vLzpNJVxWEdSLjUfPbae9ZQ/7+z2HW3k+hoxPrZ5py+7KZJddJOEb94lHCt78K7/4pVE9hTAXSjLpzjQJJk54LxEvkJ1Y8NhjCJGPuQfsmbN9j+Bt+Ddu+CrwMONuC50pEFpWkrz988AB/8IdfplKtTdHPATistThn2L3rVn7+iSe0vF1ERCZRgL7UORcH6knWvH7hGMMv/3eqh38Ir/8lURTiwhourGAagXnyvHR7K2PAZvE8j4pXoLryHgZWbyKz+WGy6+4dz2tG4Xh2vuW4RtYboD56mtGXnmf48F4q77xIfvQQLopw9UocULrx55k0b2zivemd9TFeQNCzHm/wYWqDj7Ns8DY8L7njZEJQ33JcsuzfxFWRwpEzRMe/RXjkO5gz/xNcFRfVIarF5yl+UvJ/01gNGpkMxgZxbQJbwg08ib9sF2b5x/CCdIVHqHvNRaQpOBd/R/ynP/ljXtnzOsaYaTLoBmMcvh/wq7/yKwxu3Bj/tFX7fBERmXUK0CU2MfgGwsjhzh7g4pkj+Kf3UD3w97iwRhjWIaoT1sawmTaM5+PZgJHld9PTvwpbXo/rXEs+E0y8Tbl1A86ppAG0c9TDiNrFk3hnXufc8DnG3n6B9kvvEuIIw4jo0llcpp1sNo8xjmD5DoJlg/jl9Xhd67H5Upp4jgdorRycX65xLA4XhlA9TnTmZ5w79Q7B2MvkOU1Yr2GqF3BEYDO4oIOsH3HE7aLcNUiuawU234vJDyS1CsZvJhARaQbpMOqd/W/z5a98hVp9+jouxkDkYHDdap779d/AtuyktYiIzBUF6HKl5L7xceP/qNfruLBGVK9gMwWstXheOsBwk18Dmq4A3KxJM8Vp1hdorChwjiiKCENHdOkULlMim8thjZkQWibnZ2JwvlhNCNRjk68nUz2frOLIQKYdz7MTnjaxe3Jo4wkRaTZpn/+1r/0FL7304gzZ81jgezz9y7/I0NYbk5VZi7j/FxGRa6Yq7nIlMyn1Pekh3/fB8yCTmyLTOyG7udgHHJOqhU8+T8YYPM/D88AFfUnV8bSK/qQXmRzfL1YzXAvx9VROfq/xn8ueZi77v4hIczl06BB79+4hLQI6lTRwX7FiOYObhhSci4jIlBSgywymGTjMOKBYioON6Y95+sGXztP4j3U9iUhrSoPxH//4ZUZHR5IVQFMH6HFA7nHLztsIgsyMWXYREVm6FKCLiIiIvE+HDh7gwP59jSKi000sGmPoKncyNKTsuYiITE8BuoiIiMj7YIBsLs+dd95F5Nx0yfPG7ifdXV20txfmsYUiItJqVCRORERE5Dpc61BK2XMREZmOSiKLiIiIzBMF5yIiMhMtcRcRERG5Dgq6RURktiiDLiIiIiIiItIEFKCLiIiIiIiINAEF6CIiIiIiIiJNQAG6iIiIiIiISBNQgC4iIiIiIiLSBBSgi4iIiIiIiDQBBegiIiIiIiIiTUABuoiIiIiIiEgTUIAuIiIiIiIi0gQUoIuIiIiIiIg0AQXoIiIiIiIiIk1AAbqIiIiIiIhIE1CALiIiIiIiItIEFKCLiIiIiIiINAEF6CIiIiIiIiJNQAG6iIiIiIiISBNQgC4iIiIiIiLSBBSgi4iIiIiIiDQBBegiIiIiIiIiTUABuoiIiIiIiEgTUIAuIiIiIiIi0gQUoIuIiIiIiIg0AQXoIiIiIiIiIk1AAbqIiIiIiIhIE1CALiIiIiIiItIEFKCLiIiIiIiINAEF6CIiIiIiIiJNQAG6iIiIiIiISBNQgC4iIiIiIiLSBBSgi4iIiIiIiDQBBegiIiIiIiIiTUABuoiIiIiIiEgTUIAuIiIiIiIi0gQUoIuIiIiIiIg0AQXoIiIiIiIiIk3g/wMAAP//7NexAAAAAMAgf+tp7CiLBB0AAAAGBB0AAAAGBB0AAAAGBB0AAAAGBB0AAAAGBB0AAAAGBB0AAAAGBB0AAAAGBB0AAAAGBB0AAAAGBB0AAAAGBB0AAAAGBB0AAAAGBB0AAAAGBB0AAAAGBB0AAAAGBB0AAAAGBB0AAAAGBB0AAAAGBB0AAAAGBB0AAAAGBB0AAAAGBB0AAAAGBB0AAAAGBB0AAAAGBB0AAAAGBB0AAAAGBB0AAAAGBB0AAAAGBB0AAAAGBB0AAAAGBB0AAAAGBB0AAAAGBB0AAAAGBB0AAAAGBB0AAAAGBB0AAAAGBB0AAAAGBB0AAAAGBB0AAAAGBB0AAAAGBB0AAAAGBB0AAAAGBB0AAAAGBB0AAAAGBB0AAAAGBB0AAAAGBB0AAAAGBB0AAAAGBB0AAAAGBB0AAAAGBB0AAAAGBB0AAAAGBB0AAAAGBB0AAAAGBB0AAAAGBB0AAAAGBB0AAAAGBB0AAAAGBB0AAAAGBB0AAAAGBB0AAAAGBB0AAAAGBB0AAAAGBB0AAAAGBB0AAAAGBB0AAAAGAgAA///s17EAAAAAwCB/62nsKIsEHQAAAAYEHQAAAAYEHQAAAAYEHQAAAAYEHQAAAAYEHQAAAAYEHQAAAAYEHQAAAAYEHQAAAAYEHQAAAAYEHQAAAAYEHQAAAAYEHQAAAAYEHQAAAAYEHQAAAAYEHQAAAAYEHQAAAAYEHQAAAAYEHQAAAAYEHQAAAAYEHQAAAAYEHQAAAAYEHQAAAAYEHQAAAAYEHQAAAAYEHQAAAAYEHQAAAAYEHQAAAAYEHQAAAAYEHQAAAAYEHQAAAAYEHQAAAAYEHQAAAAYEHQAAAAYEHQAAAAYEHQAAAAYEHQAAAAYEHQAAAAYEHQAAAAYEHQAAAAYEHQAAAAYEHQAAAAYEHQAAAAYEHQAAAAYEHQAAAAYEHQAAAAYEHQAAAAYEHQAAAAYEHQAAAAYEHQAAAAYEHQAAAAYEHQAAAAYEHQAAAAYEHQAAAAYEHQAAAAYEHQAAAAYEHQAAAAYEHQAAAAYEHQAAAAYEHQAAAAYEHQAAAAYEHQAAAAYEHQAAAAYEHQAAAAYEHQAAAAYEHQAAAAYEHQAAAAYCAAD//+zXsQAAAADAIH/raewoiwQdAAAABgQdAAAABgQdAAAABgQdAAAABgQdAAAABgQdAAAABgQdAAAABgQdAAAABgQdAAAABgQdAAAABgQdAAAABgQdAAAABgQdAAAABgQdAAAABgQdAAAABgQdAAAABgQdAAAABgQdAAAABgQdAAAABgQdAAAABgQdAAAABgQdAAAABgQdAAAABgQdAAAABgQdAAAABgQdAAAABgQdAAAABgQdAAAABgQdAAAABgQdAAAABgQdAAAABgQdAAAABgQdAAAABgQdAAAABgQdAAAABgQdAAAABgQdAAAABgQdAAAABgQdAAAABgQdAAAABgQdAAAABgQdAAAABgQdAAAABgQdAAAABgQdAAAABgQdAAAABgQdAAAABgQdAAAABgQdAAAABgQdAAAABgQdAAAABgQdAAAABgQdAAAABgQdAAAABgQdAAAABgQdAAAABgQdAAAABgQdAAAABgQdAAAABgQdAAAABgQdAAAABgQdAAAABgQdAAAABgQdAAAABgQdAAAABgQdAAAABgIAAP//7NexAAAAAMAgf+tp7CiLBB0AAAAGBB0AAAAGBB0AAAAGBB0AAAAGBB0AAAAGBB0AAAAGBB0AAAAGBB0AAAAGBB0AAAAGBB0AAAAGBB0AAAAGBB0AAAAGBB0AAAAGBB0AAAAGBB0AAAAGBB0AAAAGBB0AAAAGBB0AAAAGBB0AAAAGBB0AAAAGBB0AAAAGBB0AAAAGBB0AAAAGBB0AAAAGBB0AAAAGBB0AAAAGBB0AAAAGBB0AAAAGBB0AAAAGBB0AAAAGBB0AAAAGBB0AAAAGBB0AAAAGBB0AAAAGBB0AAAAGBB0AAAAGBB0AAAAGBB0AAAAGBB0AAAAGBB0AAAAGBB0AAAAGBB0AAAAGBB0AAAAGBB0AAAAGBB0AAAAGBB0AAAAGBB0AAAAGBB0AAAAGBB0AAAAGBB0AAAAGBB0AAAAGBB0AAAAGBB0AAAAGBB0AAAAGBB0AAAAGBB0AAAAGBB0AAAAGBB0AAAAGBB0AAAAGBB0AAAAGBB0AAAAGBB0AAAAGBB0AAAAGBB0AAAAGBB0AAAAGBB0AAAAGBB0AAAAGAgAA///t17EAAAAAwCB/62nsKIsEHQAAAAYEHQAAAAYEHQAAAAYEHQAAAAYEHQAAAAYEHQAAAAYEHQAAAAYEHQAAAAYEHQAAAAYEHQAAAAYEHQAAAAYEHQAAAAYEHQAAAAYEHQAAAAYEHQAAAAYEHQAAAAYEHQAAAAYEHQAAAAYEHQAAAAYEHQAAAAYEHQAAAAYEHQAAAAYEHQAAAAYEHQAAAAYEHQAAAAYEHQAAAAYEHQAAAAYEHQAAAAYEHQAAAAYEHQAAAAYEHQAAAAYEHQAAAAYEHQAAAAYEHQAAAAYEHQAAAAYEHQAAAAYEHQAAAAYEHQAAAAYEHQAAAAYEHQAAAAYEHQAAAAYEHQAAAAYEHQAAAAYEHQAAAAYEHQAAAAYEHQAAAAYEHQAAAAYEHQAAAAYEHQAAAAYEHQAAAAYEHQAAAAYEHQAAAAYEHQAAAAYEHQAAAAYEHQAAAAYEHQAAAAYEHQAAAAYEHQAAAAYEHQAAAAYEHQAAAAYEHQAAAAYEHQAAAAYEHQAAAAYEHQAAAAYEHQAAAAYEHQAAAAYEHQAAAAYCqvHs/HjYju0AAAAASUVORK5CYII=;strokeWidth=12;imageBackground=default;" parent="1" vertex="1">
                    <mxGeometry x="1205" y="118" width="85" height="85" as="geometry"/>
                </mxCell>
                <mxCell id="20" value="" style="shape=image;verticalLabelPosition=bottom;labelBackgroundColor=default;verticalAlign=top;aspect=fixed;imageAspect=0;image=data:image/jpeg,/9j/4AAQSkZJRgABAQEBLAEsAAD/7Q9MUGhvdG9zaG9wIDMuMAA4QklNBCUAAAAAABAAAAAAAAAAAAAAAAAAAAAAOEJJTQPtAAAAAAAQASv/2AABAAEBK//YAAEAAThCSU0EJgAAAAAADgAAAAAAAAAAAAA/gAAAOEJJTQQNAAAAAAAEAAAAHjhCSU0EGQAAAAAABAAAAB44QklNA/MAAAAAAAkAAAAAAAAAAAEAOEJJTScQAAAAAAAKAAEAAAAAAAAAAjhCSU0D9QAAAAAASAAvZmYAAQBsZmYABgAAAAAAAQAvZmYAAQChmZoABgAAAAAAAQAyAAAAAQBaAAAABgAAAAAAAQA1AAAAAQAtAAAABgAAAAAAAThCSU0D+AAAAAAAcAAA/////////////////////////////wPoAAAAAP////////////////////////////8D6AAAAAD/////////////////////////////A+gAAAAA/////////////////////////////wPoAAA4QklNBAAAAAAAAAIAADhCSU0EAgAAAAAAAgAAOEJJTQQwAAAAAAABAQA4QklNBC0AAAAAAAYAAQAAAAM4QklNBAgAAAAAABAAAAABAAACQAAAAkAAAAAAOEJJTQQeAAAAAAAEAAAAADhCSU0EGgAAAAADdQAAAAYAAAAAAAAAAAAAAqwAAAfiAAAAIAAyADAAMgAxAC0AVABlAGEAbABpAHUAbQAtAGwAbwBnAG8ALQByAGcAYgAtAGYAdQBsAGwALQBjAG8AbABvAHIAAAABAAAAAAAAAAAAAAAAAAAAAAAAAAEAAAAAAAAAAAAAB+IAAAKsAAAAAAAAAAAAAAAAAAAAAAEAAAAAAAAAAAAAAAAAAAAAAAAAEAAAAAEAAAAAAABudWxsAAAAAgAAAAZib3VuZHNPYmpjAAAAAQAAAAAAAFJjdDEAAAAEAAAAAFRvcCBsb25nAAAAAAAAAABMZWZ0bG9uZwAAAAAAAAAAQnRvbWxvbmcAAAKsAAAAAFJnaHRsb25nAAAH4gAAAAZzbGljZXNWbExzAAAAAU9iamMAAAABAAAAAAAFc2xpY2UAAAASAAAAB3NsaWNlSURsb25nAAAAAAAAAAdncm91cElEbG9uZwAAAAAAAAAGb3JpZ2luZW51bQAAAAxFU2xpY2VPcmlnaW4AAAANYXV0b0dlbmVyYXRlZAAAAABUeXBlZW51bQAAAApFU2xpY2VUeXBlAAAAAEltZyAAAAAGYm91bmRzT2JqYwAAAAEAAAAAAABSY3QxAAAABAAAAABUb3AgbG9uZwAAAAAAAAAATGVmdGxvbmcAAAAAAAAAAEJ0b21sb25nAAACrAAAAABSZ2h0bG9uZwAAB+IAAAADdXJsVEVYVAAAAAEAAAAAAABudWxsVEVYVAAAAAEAAAAAAABNc2dlVEVYVAAAAAEAAAAAAAZhbHRUYWdURVhUAAAAAQAAAAAADmNlbGxUZXh0SXNIVE1MYm9vbAEAAAAIY2VsbFRleHRURVhUAAAAAQAAAAAACWhvcnpBbGlnbmVudW0AAAAPRVNsaWNlSG9yekFsaWduAAAAB2RlZmF1bHQAAAAJdmVydEFsaWduZW51bQAAAA9FU2xpY2VWZXJ0QWxpZ24AAAAHZGVmYXVsdAAAAAtiZ0NvbG9yVHlwZWVudW0AAAARRVNsaWNlQkdDb2xvclR5cGUAAAAATm9uZQAAAAl0b3BPdXRzZXRsb25nAAAAAAAAAApsZWZ0T3V0c2V0bG9uZwAAAAAAAAAMYm90dG9tT3V0c2V0bG9uZwAAAAAAAAALcmlnaHRPdXRzZXRsb25nAAAAAAA4QklNBCgAAAAAAAwAAAACP/AAAAAAAAA4QklNBBQAAAAAAAQAAAADOEJJTQQMAAAAAAkVAAAAAQAAAKAAAAA2AAAB4AAAZUAAAAj5ABgAAf/Y/+AAEEpGSUYAAQIAAEgASAAA/+0ADEFkb2JlX0NNAAH/7gAOQWRvYmUAZIAAAAAB/9sAhAAMCAgICQgMCQkMEQsKCxEVDwwMDxUYExMVExMYEQwMDAwMDBEMDAwMDAwMDAwMDAwMDAwMDAwMDAwMDAwMDAwMAQ0LCw0ODRAODhAUDg4OFBQODg4OFBEMDAwMDBERDAwMDAwMEQwMDAwMDAwMDAwMDAwMDAwMDAwMDAwMDAwMDAz/wAARCAA2AKADASIAAhEBAxEB/90ABAAK/8QBPwAAAQUBAQEBAQEAAAAAAAAAAwABAgQFBgcICQoLAQABBQEBAQEBAQAAAAAAAAABAAIDBAUGBwgJCgsQAAEEAQMCBAIFBwYIBQMMMwEAAhEDBCESMQVBUWETInGBMgYUkaGxQiMkFVLBYjM0coLRQwclklPw4fFjczUWorKDJkSTVGRFwqN0NhfSVeJl8rOEw9N14/NGJ5SkhbSVxNTk9KW1xdXl9VZmdoaWprbG1ub2N0dXZ3eHl6e3x9fn9xEAAgIBAgQEAwQFBgcHBgU1AQACEQMhMRIEQVFhcSITBTKBkRShsUIjwVLR8DMkYuFygpJDUxVjczTxJQYWorKDByY1wtJEk1SjF2RFVTZ0ZeLys4TD03Xj80aUpIW0lcTU5PSltcXV5fVWZnaGlqa2xtbm9ic3R1dnd4eXp7fH/9oADAMBAAIRAxEAPwD1VJJJJSklQ6Z1fH6hSy0RSbX2Nore4bntrMeoxv8A1f8Ao1fRMTE0RRWwnGcRKB4onqpJJJBcpJJJJSkkkklKSSSSUpJJJJSkkkklKSSSSUpJJJJT/9D1VVuoVZV2HZViWele6NjySIhzS7Vod+arKSINEHtqtnETjKJsCQMdNJersXlnjFDn/WLGGyrAY6mrEDQ1u+XMY/2fRpd9p9R7Nv01r/V/qOT1Hp/2jJY1j97mAsBDXBv57Q4u/qf2FnuvpuyR1FjxT0qkPrymPECTu9QOx27m2/avVq/87Wd1yjPy8mi/pjX3YBY0YZxpDayPa8FrNvoWb/z3/wDopWjAT9J9P9aX6Ff5L+85OPPLEDlj+sHXHj/8ESnw/wBLj8/Di/yf996rqGdVgYrsq1r3saWgtrG53uIYNJb+8sr/AJ49NkN9DJk8DYJPy9RbOKL24tLcg7rxW0WuHd8D1D/nLD6h/wCLDp3/ABTvyZChxiB4hIXQlKwf3W5zU80RCeOYgJyhj4JQ4iPcl818X/NbuN9YMPJxcnKZVcxmI3dYHtAJEF36P3e76Kqj649OIkUZJB4IrB/9GLQ65/yPm/8AEv8AyLnOmZGUzApbX1ujEaAYx3srLme53tc5/v8A5SfCEJRMq60Bcu39WMmLPnz48kMfGD6DOUhDHqeP93Llx/8ATen6d1GnqOP9opY9jNxZFg2ukeUuVTM+snTcLO+xXb/UBaHvAGxu799xc36LTvf7U46pXi9GdmWZLM11LS11tcBr7OGshntb7nNXOY1WRb07KZfgZORkdQPqnJa0bZ/nKXMn83e73/yHoQxRJkZCog8I1/7791OfmskI44QkDllH3JSMeIcI+WPDj4/5yfo+Z7LJvZjY9uQ8EspY6xwbzDRuO1QwM2rPxK8ukObXZO0PADva4s12l37qxMHqD8r6tZ2PfIysOi2m1rtHQGPFbnf5ux3/AAlaf6vdY6Zi9Hx6MjJZXazfuY46iXvcP+iUDhIjLQmUZcOn7tL485GWXH6hHFkxHJ6vT+sE4x4b/q+p1eodVx+n2Y9dzXudlP8ATr2AEAy1vv3Ob++l+1cf9qfsva/19nqboGyP627d/wBBY31iyKcm3o99DxZU/I9r28GHVtT5eTTg/W5t+U706rKA1rzxrLdf7TEY4gYjQ8RjM1/WiVs+blHJIcUfbjlww4unt5YcUjxO7n5tWBiWZdwc6uqNwYAXe4hmklv7yrZfW8TEwKM+1thqyduxrQC73tNrdzdwb9Fv7yzvrL1jplvSLsenJZbbbt2tYd30Xte7dt+j7Wqt1AOc76vYD2kOAqddWRqNoqb7h/ZuShiBETIEWZX09EY8SM/OSE8kcUoyEYY+GvV+uy5fb/6P6L0XT+oY/UcVuVRIY4kFroDgWnaQ4AuVLC+s3Ts7JONQ23eGuc0lohwZ+5Di73N+h7VhZeTb0Z3VemMBjKIfiBo0AtO2zb/1r9Ez/hKUV2F+x+r9F0+kz0bCO9ji5tp/z8pO9mGv9YE4/pHjYzzua4AUPbMYc0a/Snk9n0/+lHqce9uRS25rXMD9Q14hw7ahFSSVYumLoWbPd//R9VVfPxnZWJbQx5re8ex40IcDuadP5QVhJEGiCOi2cRKJjLaQMT5SeU9d/ULqqMelz+ldQ3MytrA1zcgEusve5m/0bW7KLmep+hfWtzovSh0rEdji03F7zYXkbdSGtgNl37is4+Jj43qegwM9aw22ATq90bn6/wBVGUk8vEOGOkfza/L8oMZGSZ48g0EukIn5ox/q/pqQnYuM+9uQ+pjr6xDLS0F7Rro1/wBJv0kVJRW2SAdxbGyuu1jq7Wh9bxDmOEgg9nNKq/sfpP8A3Cx/+2mf+RVxJEEjYkIlCMvmiJeYtrHpvTjSKDi0mkO3irY3ZuiN+yNu5WONAnSSJJ3KRGI2AHkg+w4W+yz7PVvvBbc7Y2Xh30m2GPfu/lIX7H6T/wBwsf8A7aZ/5FXEkuKXcrTjgd4RP0a56fgFtbDjVbKDNLdjYYSd01iPZ7v3VLIxMXKaG5NLLmt4FjQ6P6u5GSSs9yngjRHCKO4rs1KukdLpeLKsSlr2mWuDGyCO7THtRn4uM+9uQ+ljr2CGWloL2jXRr/pN+kipJGRO5KhjgBQjEDfQdUNuHiXXMvtorsurjZY5gLmwdzdr3Dc3a5Pdi4t7mOvpZa6ozW57Q4tOmrN30fooqSVnvsnhjroNd9N1JJJIJf/S9VSXyqkkp+qkl8qpJKfqpJfKqSSn6qSXyqkkp+qkl8qpJKfqpJfKqSSn6qSXyqkkp+qkl8qpJKfqpJfKqSSn6qSXyqkkp//ZADhCSU0EIQAAAAAAeQAAAAEBAAAAGABBAGQAbwBiAGUAIABQAGgAbwB0AG8AcwBoAG8AcAAgAEUAbABlAG0AZQBuAHQAcwAAABwAQQBkAG8AYgBlACAAUABoAG8AdABvAHMAaABvAHAAIABFAGwAZQBtAGUAbgB0AHMAIAA4AC4AMAAAAAEAOEJJTQQGAAAAAAAHAAYAAAABAQD/4Qo3RXhpZgAATU0AKgAAAAgABwESAAMAAAABAAAAAAEaAAUAAAABAAAAYgEbAAUAAAABAAAAagEoAAMAAAABAAIAAAExAAIAAAAlAAAAcgEyAAIAAAAUAAAAl4dpAAQAAAABAAAArAAAANgAAAEsAAAAAQAAASwAAAABQWRvYmUgUGhvdG9zaG9wIEVsZW1lbnRzIDguMCBXaW5kb3dzADIwMjE6MTE6MTYgMTA6NDM6MTMAAAADoAEAAwAAAAEAAQAAoAIABAAAAAEAAAfioAMABAAAAAEAAAKsAAAAAAAAAAYBAwADAAAAAQAGAAABGgAFAAAAAQAAASYBGwAFAAAAAQAAAS4BKAADAAAAAQACAAACAQAEAAAAAQAAATYCAgAEAAAAAQAACPkAAAAAAAABLAAAAAEAAAEsAAAAAf/Y/+AAEEpGSUYAAQIAAEgASAAA/+0ADEFkb2JlX0NNAAH/7gAOQWRvYmUAZIAAAAAB/9sAhAAMCAgICQgMCQkMEQsKCxEVDwwMDxUYExMVExMYEQwMDAwMDBEMDAwMDAwMDAwMDAwMDAwMDAwMDAwMDAwMDAwMAQ0LCw0ODRAODhAUDg4OFBQODg4OFBEMDAwMDBERDAwMDAwMEQwMDAwMDAwMDAwMDAwMDAwMDAwMDAwMDAwMDAz/wAARCAA2AKADASIAAhEBAxEB/90ABAAK/8QBPwAAAQUBAQEBAQEAAAAAAAAAAwABAgQFBgcICQoLAQABBQEBAQEBAQAAAAAAAAABAAIDBAUGBwgJCgsQAAEEAQMCBAIFBwYIBQMMMwEAAhEDBCESMQVBUWETInGBMgYUkaGxQiMkFVLBYjM0coLRQwclklPw4fFjczUWorKDJkSTVGRFwqN0NhfSVeJl8rOEw9N14/NGJ5SkhbSVxNTk9KW1xdXl9VZmdoaWprbG1ub2N0dXZ3eHl6e3x9fn9xEAAgIBAgQEAwQFBgcHBgU1AQACEQMhMRIEQVFhcSITBTKBkRShsUIjwVLR8DMkYuFygpJDUxVjczTxJQYWorKDByY1wtJEk1SjF2RFVTZ0ZeLys4TD03Xj80aUpIW0lcTU5PSltcXV5fVWZnaGlqa2xtbm9ic3R1dnd4eXp7fH/9oADAMBAAIRAxEAPwD1VJJJJSklQ6Z1fH6hSy0RSbX2Nore4bntrMeoxv8A1f8Ao1fRMTE0RRWwnGcRKB4onqpJJJBcpJJJJSkkkklKSSSSUpJJJJSkkkklKSSSSUpJJJJT/9D1VVuoVZV2HZViWele6NjySIhzS7Vod+arKSINEHtqtnETjKJsCQMdNJersXlnjFDn/WLGGyrAY6mrEDQ1u+XMY/2fRpd9p9R7Nv01r/V/qOT1Hp/2jJY1j97mAsBDXBv57Q4u/qf2FnuvpuyR1FjxT0qkPrymPECTu9QOx27m2/avVq/87Wd1yjPy8mi/pjX3YBY0YZxpDayPa8FrNvoWb/z3/wDopWjAT9J9P9aX6Ff5L+85OPPLEDlj+sHXHj/8ESnw/wBLj8/Di/yf996rqGdVgYrsq1r3saWgtrG53uIYNJb+8sr/AJ49NkN9DJk8DYJPy9RbOKL24tLcg7rxW0WuHd8D1D/nLD6h/wCLDp3/ABTvyZChxiB4hIXQlKwf3W5zU80RCeOYgJyhj4JQ4iPcl818X/NbuN9YMPJxcnKZVcxmI3dYHtAJEF36P3e76Kqj649OIkUZJB4IrB/9GLQ65/yPm/8AEv8AyLnOmZGUzApbX1ujEaAYx3srLme53tc5/v8A5SfCEJRMq60Bcu39WMmLPnz48kMfGD6DOUhDHqeP93Llx/8ATen6d1GnqOP9opY9jNxZFg2ukeUuVTM+snTcLO+xXb/UBaHvAGxu799xc36LTvf7U46pXi9GdmWZLM11LS11tcBr7OGshntb7nNXOY1WRb07KZfgZORkdQPqnJa0bZ/nKXMn83e73/yHoQxRJkZCog8I1/7791OfmskI44QkDllH3JSMeIcI+WPDj4/5yfo+Z7LJvZjY9uQ8EspY6xwbzDRuO1QwM2rPxK8ukObXZO0PADva4s12l37qxMHqD8r6tZ2PfIysOi2m1rtHQGPFbnf5ux3/AAlaf6vdY6Zi9Hx6MjJZXazfuY46iXvcP+iUDhIjLQmUZcOn7tL485GWXH6hHFkxHJ6vT+sE4x4b/q+p1eodVx+n2Y9dzXudlP8ATr2AEAy1vv3Ob++l+1cf9qfsva/19nqboGyP627d/wBBY31iyKcm3o99DxZU/I9r28GHVtT5eTTg/W5t+U706rKA1rzxrLdf7TEY4gYjQ8RjM1/WiVs+blHJIcUfbjlww4unt5YcUjxO7n5tWBiWZdwc6uqNwYAXe4hmklv7yrZfW8TEwKM+1thqyduxrQC73tNrdzdwb9Fv7yzvrL1jplvSLsenJZbbbt2tYd30Xte7dt+j7Wqt1AOc76vYD2kOAqddWRqNoqb7h/ZuShiBETIEWZX09EY8SM/OSE8kcUoyEYY+GvV+uy5fb/6P6L0XT+oY/UcVuVRIY4kFroDgWnaQ4AuVLC+s3Ts7JONQ23eGuc0lohwZ+5Di73N+h7VhZeTb0Z3VemMBjKIfiBo0AtO2zb/1r9Ez/hKUV2F+x+r9F0+kz0bCO9ji5tp/z8pO9mGv9YE4/pHjYzzua4AUPbMYc0a/Snk9n0/+lHqce9uRS25rXMD9Q14hw7ahFSSVYumLoWbPd//R9VVfPxnZWJbQx5re8ex40IcDuadP5QVhJEGiCOi2cRKJjLaQMT5SeU9d/ULqqMelz+ldQ3MytrA1zcgEusve5m/0bW7KLmep+hfWtzovSh0rEdji03F7zYXkbdSGtgNl37is4+Jj43qegwM9aw22ATq90bn6/wBVGUk8vEOGOkfza/L8oMZGSZ48g0EukIn5ox/q/pqQnYuM+9uQ+pjr6xDLS0F7Rro1/wBJv0kVJRW2SAdxbGyuu1jq7Wh9bxDmOEgg9nNKq/sfpP8A3Cx/+2mf+RVxJEEjYkIlCMvmiJeYtrHpvTjSKDi0mkO3irY3ZuiN+yNu5WONAnSSJJ3KRGI2AHkg+w4W+yz7PVvvBbc7Y2Xh30m2GPfu/lIX7H6T/wBwsf8A7aZ/5FXEkuKXcrTjgd4RP0a56fgFtbDjVbKDNLdjYYSd01iPZ7v3VLIxMXKaG5NLLmt4FjQ6P6u5GSSs9yngjRHCKO4rs1KukdLpeLKsSlr2mWuDGyCO7THtRn4uM+9uQ+ljr2CGWloL2jXRr/pN+kipJGRO5KhjgBQjEDfQdUNuHiXXMvtorsurjZY5gLmwdzdr3Dc3a5Pdi4t7mOvpZa6ozW57Q4tOmrN30fooqSVnvsnhjroNd9N1JJJIJf/S9VSXyqkkp+qkl8qpJKfqpJfKqSSn6qSXyqkkp+qkl8qpJKfqpJfKqSSn6qSXyqkkp+qkl8qpJKfqpJfKqSSn6qSXyqkkp//Z/+IMWElDQ19QUk9GSUxFAAEBAAAMSExpbm8CEAAAbW50clJHQiBYWVogB84AAgAJAAYAMQAAYWNzcE1TRlQAAAAASUVDIHNSR0IAAAAAAAAAAAAAAAEAAPbWAAEAAAAA0y1IUCAgAAAAAAAAAAAAAAAAAAAAAAAAAAAAAAAAAAAAAAAAAAAAAAAAAAAAAAAAAAAAAAARY3BydAAAAVAAAAAzZGVzYwAAAYQAAABsd3RwdAAAAfAAAAAUYmtwdAAAAgQAAAAUclhZWgAAAhgAAAAUZ1hZWgAAAiwAAAAUYlhZWgAAAkAAAAAUZG1uZAAAAlQAAABwZG1kZAAAAsQAAACIdnVlZAAAA0wAAACGdmlldwAAA9QAAAAkbHVtaQAAA/gAAAAUbWVhcwAABAwAAAAkdGVjaAAABDAAAAAMclRSQwAABDwAAAgMZ1RSQwAABDwAAAgMYlRSQwAABDwAAAgMdGV4dAAAAABDb3B5cmlnaHQgKGMpIDE5OTggSGV3bGV0dC1QYWNrYXJkIENvbXBhbnkAAGRlc2MAAAAAAAAAEnNSR0IgSUVDNjE5NjYtMi4xAAAAAAAAAAAAAAASc1JHQiBJRUM2MTk2Ni0yLjEAAAAAAAAAAAAAAAAAAAAAAAAAAAAAAAAAAAAAAAAAAAAAAAAAAAAAAAAAAAAAAAAAAFhZWiAAAAAAAADzUQABAAAAARbMWFlaIAAAAAAAAAAAAAAAAAAAAABYWVogAAAAAAAAb6IAADj1AAADkFhZWiAAAAAAAABimQAAt4UAABjaWFlaIAAAAAAAACSgAAAPhAAAts9kZXNjAAAAAAAAABZJRUMgaHR0cDovL3d3dy5pZWMuY2gAAAAAAAAAAAAAABZJRUMgaHR0cDovL3d3dy5pZWMuY2gAAAAAAAAAAAAAAAAAAAAAAAAAAAAAAAAAAAAAAAAAAAAAAAAAAAAAAAAAAAAAZGVzYwAAAAAAAAAuSUVDIDYxOTY2LTIuMSBEZWZhdWx0IFJHQiBjb2xvdXIgc3BhY2UgLSBzUkdCAAAAAAAAAAAAAAAuSUVDIDYxOTY2LTIuMSBEZWZhdWx0IFJHQiBjb2xvdXIgc3BhY2UgLSBzUkdCAAAAAAAAAAAAAAAAAAAAAAAAAAAAAGRlc2MAAAAAAAAALFJlZmVyZW5jZSBWaWV3aW5nIENvbmRpdGlvbiBpbiBJRUM2MTk2Ni0yLjEAAAAAAAAAAAAAACxSZWZlcmVuY2UgVmlld2luZyBDb25kaXRpb24gaW4gSUVDNjE5NjYtMi4xAAAAAAAAAAAAAAAAAAAAAAAAAAAAAAAAAAB2aWV3AAAAAAATpP4AFF8uABDPFAAD7cwABBMLAANcngAAAAFYWVogAAAAAABMCVYAUAAAAFcf521lYXMAAAAAAAAAAQAAAAAAAAAAAAAAAAAAAAAAAAKPAAAAAnNpZyAAAAAAQ1JUIGN1cnYAAAAAAAAEAAAAAAUACgAPABQAGQAeACMAKAAtADIANwA7AEAARQBKAE8AVABZAF4AYwBoAG0AcgB3AHwAgQCGAIsAkACVAJoAnwCkAKkArgCyALcAvADBAMYAywDQANUA2wDgAOUA6wDwAPYA+wEBAQcBDQETARkBHwElASsBMgE4AT4BRQFMAVIBWQFgAWcBbgF1AXwBgwGLAZIBmgGhAakBsQG5AcEByQHRAdkB4QHpAfIB+gIDAgwCFAIdAiYCLwI4AkECSwJUAl0CZwJxAnoChAKOApgCogKsArYCwQLLAtUC4ALrAvUDAAMLAxYDIQMtAzgDQwNPA1oDZgNyA34DigOWA6IDrgO6A8cD0wPgA+wD+QQGBBMEIAQtBDsESARVBGMEcQR+BIwEmgSoBLYExATTBOEE8AT+BQ0FHAUrBToFSQVYBWcFdwWGBZYFpgW1BcUF1QXlBfYGBgYWBicGNwZIBlkGagZ7BowGnQavBsAG0QbjBvUHBwcZBysHPQdPB2EHdAeGB5kHrAe/B9IH5Qf4CAsIHwgyCEYIWghuCIIIlgiqCL4I0gjnCPsJEAklCToJTwlkCXkJjwmkCboJzwnlCfsKEQonCj0KVApqCoEKmAquCsUK3ArzCwsLIgs5C1ELaQuAC5gLsAvIC+EL+QwSDCoMQwxcDHUMjgynDMAM2QzzDQ0NJg1ADVoNdA2ODakNww3eDfgOEw4uDkkOZA5/DpsOtg7SDu4PCQ8lD0EPXg96D5YPsw/PD+wQCRAmEEMQYRB+EJsQuRDXEPURExExEU8RbRGMEaoRyRHoEgcSJhJFEmQShBKjEsMS4xMDEyMTQxNjE4MTpBPFE+UUBhQnFEkUahSLFK0UzhTwFRIVNBVWFXgVmxW9FeAWAxYmFkkWbBaPFrIW1hb6Fx0XQRdlF4kXrhfSF/cYGxhAGGUYihivGNUY+hkgGUUZaxmRGbcZ3RoEGioaURp3Gp4axRrsGxQbOxtjG4obshvaHAIcKhxSHHscoxzMHPUdHh1HHXAdmR3DHeweFh5AHmoelB6+HukfEx8+H2kflB+/H+ogFSBBIGwgmCDEIPAhHCFIIXUhoSHOIfsiJyJVIoIiryLdIwojOCNmI5QjwiPwJB8kTSR8JKsk2iUJJTglaCWXJccl9yYnJlcmhya3JugnGCdJJ3onqyfcKA0oPyhxKKIo1CkGKTgpaymdKdAqAio1KmgqmyrPKwIrNitpK50r0SwFLDksbiyiLNctDC1BLXYtqy3hLhYuTC6CLrcu7i8kL1ovkS/HL/4wNTBsMKQw2zESMUoxgjG6MfIyKjJjMpsy1DMNM0YzfzO4M/E0KzRlNJ402DUTNU01hzXCNf02NzZyNq426TckN2A3nDfXOBQ4UDiMOMg5BTlCOX85vDn5OjY6dDqyOu87LTtrO6o76DwnPGU8pDzjPSI9YT2hPeA+ID5gPqA+4D8hP2E/oj/iQCNAZECmQOdBKUFqQaxB7kIwQnJCtUL3QzpDfUPARANER0SKRM5FEkVVRZpF3kYiRmdGq0bwRzVHe0fASAVIS0iRSNdJHUljSalJ8Eo3Sn1KxEsMS1NLmkviTCpMcky6TQJNSk2TTdxOJU5uTrdPAE9JT5NP3VAnUHFQu1EGUVBRm1HmUjFSfFLHUxNTX1OqU/ZUQlSPVNtVKFV1VcJWD1ZcVqlW91dEV5JX4FgvWH1Yy1kaWWlZuFoHWlZaplr1W0VblVvlXDVchlzWXSddeF3JXhpebF69Xw9fYV+zYAVgV2CqYPxhT2GiYfViSWKcYvBjQ2OXY+tkQGSUZOllPWWSZedmPWaSZuhnPWeTZ+loP2iWaOxpQ2maafFqSGqfavdrT2una/9sV2yvbQhtYG25bhJua27Ebx5veG/RcCtwhnDgcTpxlXHwcktypnMBc11zuHQUdHB0zHUodYV14XY+dpt2+HdWd7N4EXhueMx5KnmJeed6RnqlewR7Y3vCfCF8gXzhfUF9oX4BfmJ+wn8jf4R/5YBHgKiBCoFrgc2CMIKSgvSDV4O6hB2EgITjhUeFq4YOhnKG14c7h5+IBIhpiM6JM4mZif6KZIrKizCLlov8jGOMyo0xjZiN/45mjs6PNo+ekAaQbpDWkT+RqJIRknqS45NNk7aUIJSKlPSVX5XJljSWn5cKl3WX4JhMmLiZJJmQmfyaaJrVm0Kbr5wcnImc951kndKeQJ6unx2fi5/6oGmg2KFHobaiJqKWowajdqPmpFakx6U4pammGqaLpv2nbqfgqFKoxKk3qamqHKqPqwKrdavprFys0K1ErbiuLa6hrxavi7AAsHWw6rFgsdayS7LCszizrrQltJy1E7WKtgG2ebbwt2i34LhZuNG5SrnCuju6tbsuu6e8IbybvRW9j74KvoS+/796v/XAcMDswWfB48JfwtvDWMPUxFHEzsVLxcjGRsbDx0HHv8g9yLzJOsm5yjjKt8s2y7bMNcy1zTXNtc42zrbPN8+40DnQutE80b7SP9LB00TTxtRJ1MvVTtXR1lXW2Ndc1+DYZNjo2WzZ8dp22vvbgNwF3IrdEN2W3hzeot8p36/gNuC94UThzOJT4tvjY+Pr5HPk/OWE5g3mlucf56noMui86Ubp0Opb6uXrcOv77IbtEe2c7ijutO9A78zwWPDl8XLx//KM8xnzp/Q09ML1UPXe9m32+/eK+Bn4qPk4+cf6V/rn+3f8B/yY/Sn9uv5L/tz/bf///+ERnmh0dHA6Ly9ucy5hZG9iZS5jb20veGFwLzEuMC8APD94cGFja2V0IGJlZ2luPSLvu78iIGlkPSJXNU0wTXBDZWhpSHpyZVN6TlRjemtjOWQiPz4gPHg6eG1wbWV0YSB4bWxuczp4PSJhZG9iZTpuczptZXRhLyIgeDp4bXB0az0iQWRvYmUgWE1QIENvcmUgNC4yLjItYzA2MyA1My4zNjAyMDMsIDIwMDgvMTAvMDgtMTA6MzM6NDAgICAgICAgICI+IDxyZGY6UkRGIHhtbG5zOnJkZj0iaHR0cDovL3d3dy53My5vcmcvMTk5OS8wMi8yMi1yZGYtc3ludGF4LW5zIyI+IDxyZGY6RGVzY3JpcHRpb24gcmRmOmFib3V0PSIiIHhtbG5zOnhtcD0iaHR0cDovL25zLmFkb2JlLmNvbS94YXAvMS4wLyIgeG1sbnM6ZGM9Imh0dHA6Ly9wdXJsLm9yZy9kYy9lbGVtZW50cy8xLjEvIiB4bWxuczpwaG90b3Nob3A9Imh0dHA6Ly9ucy5hZG9iZS5jb20vcGhvdG9zaG9wLzEuMC8iIHhtbG5zOnhtcE1NPSJodHRwOi8vbnMuYWRvYmUuY29tL3hhcC8xLjAvbW0vIiB4bWxuczpzdEV2dD0iaHR0cDovL25zLmFkb2JlLmNvbS94YXAvMS4wL3NUeXBlL1Jlc291cmNlRXZlbnQjIiB4bWxuczp0aWZmPSJodHRwOi8vbnMuYWRvYmUuY29tL3RpZmYvMS4wLyIgeG1sbnM6ZXhpZj0iaHR0cDovL25zLmFkb2JlLmNvbS9leGlmLzEuMC8iIHhtcDpDcmVhdG9yVG9vbD0iQWRvYmUgUGhvdG9zaG9wIEVsZW1lbnRzIDguMCBXaW5kb3dzIiB4bXA6Q3JlYXRlRGF0ZT0iMjAyMS0xMS0xNlQxMDo0MjoyOS0wNTowMCIgeG1wOk1vZGlmeURhdGU9IjIwMjEtMTEtMTZUMTA6NDM6MTMtMDU6MDAiIHhtcDpNZXRhZGF0YURhdGU9IjIwMjEtMTEtMTZUMTA6NDM6MTMtMDU6MDAiIGRjOmZvcm1hdD0iaW1hZ2UvanBlZyIgcGhvdG9zaG9wOkNvbG9yTW9kZT0iMyIgcGhvdG9zaG9wOklDQ1Byb2ZpbGU9InNSR0IgSUVDNjE5NjYtMi4xIiB4bXBNTTpJbnN0YW5jZUlEPSJ4bXAuaWlkOjYzMDVCOUU4RjM0NkVDMTE4QzUzRTNBRkREMDM2QzdGIiB4bXBNTTpEb2N1bWVudElEPSJ4bXAuZGlkOjYyMDVCOUU4RjM0NkVDMTE4QzUzRTNBRkREMDM2QzdGIiB4bXBNTTpPcmlnaW5hbERvY3VtZW50SUQ9InhtcC5kaWQ6NjIwNUI5RThGMzQ2RUMxMThDNTNFM0FGREQwMzZDN0YiIHRpZmY6T3JpZW50YXRpb249IjEiIHRpZmY6WFJlc29sdXRpb249IjI5OTk5OTQvMTAwMDAiIHRpZmY6WVJlc29sdXRpb249IjI5OTk5OTQvMTAwMDAiIHRpZmY6UmVzb2x1dGlvblVuaXQ9IjIiIHRpZmY6TmF0aXZlRGlnZXN0PSIyNTYsMjU3LDI1OCwyNTksMjYyLDI3NCwyNzcsMjg0LDUzMCw1MzEsMjgyLDI4MywyOTYsMzAxLDMxOCwzMTksNTI5LDUzMiwzMDYsMjcwLDI3MSwyNzIsMzA1LDMxNSwzMzQzMjs3Q0JEQ0E4QzU1RTFEOTRFQjA3QTAxMDhFMDA1RjBBMCIgZXhpZjpQaXhlbFhEaW1lbnNpb249IjIwMTgiIGV4aWY6UGl4ZWxZRGltZW5zaW9uPSI2ODQiIGV4aWY6Q29sb3JTcGFjZT0iMSIgZXhpZjpOYXRpdmVEaWdlc3Q9IjM2ODY0LDQwOTYwLDQwOTYxLDM3MTIxLDM3MTIyLDQwOTYyLDQwOTYzLDM3NTEwLDQwOTY0LDM2ODY3LDM2ODY4LDMzNDM0LDMzNDM3LDM0ODUwLDM0ODUyLDM0ODU1LDM0ODU2LDM3Mzc3LDM3Mzc4LDM3Mzc5LDM3MzgwLDM3MzgxLDM3MzgyLDM3MzgzLDM3Mzg0LDM3Mzg1LDM3Mzg2LDM3Mzk2LDQxNDgzLDQxNDg0LDQxNDg2LDQxNDg3LDQxNDg4LDQxNDkyLDQxNDkzLDQxNDk1LDQxNzI4LDQxNzI5LDQxNzMwLDQxOTg1LDQxOTg2LDQxOTg3LDQxOTg4LDQxOTg5LDQxOTkwLDQxOTkxLDQxOTkyLDQxOTkzLDQxOTk0LDQxOTk1LDQxOTk2LDQyMDE2LDAsMiw0LDUsNiw3LDgsOSwxMCwxMSwxMiwxMywxNCwxNSwxNiwxNywxOCwyMCwyMiwyMywyNCwyNSwyNiwyNywyOCwzMDtGQjZBRENFMjVFMUFDREVFRUFBQjA2MUVEN0Q1RDg0QiI+IDx4bXBNTTpIaXN0b3J5PiA8cmRmOlNlcT4gPHJkZjpsaSBzdEV2dDphY3Rpb249ImNyZWF0ZWQiIHN0RXZ0Omluc3RhbmNlSUQ9InhtcC5paWQ6NjIwNUI5RThGMzQ2RUMxMThDNTNFM0FGREQwMzZDN0YiIHN0RXZ0OndoZW49IjIwMjEtMTEtMTZUMTA6NDM6MTMtMDU6MDAiIHN0RXZ0OnNvZnR3YXJlQWdlbnQ9IkFkb2JlIFBob3Rvc2hvcCBFbGVtZW50cyA4LjAgV2luZG93cyIvPiA8cmRmOmxpIHN0RXZ0OmFjdGlvbj0iY29udmVydGVkIiBzdEV2dDpwYXJhbWV0ZXJzPSJmcm9tIGltYWdlL3BuZyB0byBpbWFnZS9qcGVnIi8+IDxyZGY6bGkgc3RFdnQ6YWN0aW9uPSJzYXZlZCIgc3RFdnQ6aW5zdGFuY2VJRD0ieG1wLmlpZDo2MzA1QjlFOEYzNDZFQzExOEM1M0UzQUZERDAzNkM3RiIgc3RFdnQ6d2hlbj0iMjAyMS0xMS0xNlQxMDo0MzoxMy0wNTowMCIgc3RFdnQ6c29mdHdhcmVBZ2VudD0iQWRvYmUgUGhvdG9zaG9wIEVsZW1lbnRzIDguMCBXaW5kb3dzIiBzdEV2dDpjaGFuZ2VkPSIvIi8+IDwvcmRmOlNlcT4gPC94bXBNTTpIaXN0b3J5PiA8L3JkZjpEZXNjcmlwdGlvbj4gPC9yZGY6UkRGPiA8L3g6eG1wbWV0YT4gICAgICAgICAgICAgICAgICAgICAgICAgICAgICAgICAgICAgICAgICAgICAgICAgICAgICAgICAgICAgICAgICAgICAgICAgICAgICAgICAgICAgICAgICAgICAgICAgICAgICAgICAgICAgICAgICAgICAgICAgICAgICAgICAgICAgICAgICAgICAgICAgICAgICAgICAgICAgICAgICAgICAgICAgICAgICAgICAgICAgICAgICAgICAgICAgICAgICAgICAgICAgICAgICAgICAgICAgICAgICAgICAgICAgICAgICAgICAgICAgICAgICAgICAgICAgICAgICAgICAgICAgICAgICAgICAgICAgICAgICAgICAgICAgICAgICAgICAgICAgICAgICAgICAgICAgICAgICAgICAgICAgICAgICAgICAgICAgICAgICAgICAgICAgICAgICAgICAgICAgICAgICAgICAgICAgICAgICAgICAgICAgICAgICAgICAgICAgICAgICAgICAgICAgICAgICAgICAgICAgICAgICAgICAgICAgICAgICAgICAgICAgICAgICAgICAgICAgICAgICAgICAgICAgICAgICAgICAgICAgICAgICAgICAgICAgICAgICAgICAgICAgICAgICAgICAgICAgICAgICAgICAgICAgICAgICAgICAgICAgICAgICAgICAgICAgICAgICAgICAgICAgICAgICAgICAgICAgICAgICAgICAgICAgICAgICAgICAgICAgICAgICAgICAgICAgICAgICAgICAgICAgICAgICAgICAgICAgICAgICAgICAgICAgICAgICAgICAgICAgICAgICAgICAgICAgICAgICAgICAgICAgICAgICAgICAgICAgICAgICAgICAgICAgICAgICAgICAgICAgICAgICAgICAgICAgICAgICAgICAgICAgICAgICAgICAgICAgICAgICAgICAgICAgICAgICAgICAgICAgICAgICAgICAgICAgICAgICAgICAgICAgICAgICAgICAgICAgICAgICAgICAgICAgICAgICAgICAgICAgICAgICAgICAgICAgICAgICAgICAgICAgICAgICAgICAgICAgICAgICAgICAgICAgICAgICAgICAgICAgICAgICAgICAgICAgICAgICAgICAgICAgICAgICAgICAgICAgICAgICAgICAgICAgICAgICAgICAgICAgICAgICAgICAgICAgICAgICAgICAgICAgICAgICAgICAgICAgICAgICAgICAgICAgICAgICAgICAgICAgICAgICAgICAgICAgICAgICAgICAgICAgICAgICAgICAgICAgICAgICAgICAgICAgICAgICAgICAgICAgICAgICAgICAgICAgICAgICAgICAgICAgICAgICAgICAgICAgICAgICAgICAgICAgICAgICAgICAgICAgICAgICAgICAgICAgICAgICAgICAgICAgICAgICAgICAgICAgICAgICAgICAgICAgICAgICAgICAgICAgICAgICAgICAgICAgICAgICAgICAgICAgICAgICAgICAgICAgICAgICAgICAgICAgICAgICAgICAgICAgICAgICAgICAgICAgICAgICAgICAgICAgICAgICAgICAgICAgICAgICAgICAgICAgICAgICAgICAgICAgICAgICAgICAgICAgICAgICAgICAgICAgICAgICAgICAgICAgICAgICAgICAgICAgICAgICAgICAgICAgICAgICAgICAgICAgICAgICAgICAgICAgICAgICAgICAgICAgICAgICAgICAgICAgICAgICAgICAgICAgICAgICAgICAgICAgICAgICAgICAgICAgICAgICAgICAgICAgICAgICAgICAgICAgICAgICAgICAgICAgICAgICAgICAgICAgICAgICAgICAgICAgICAgICAgICAgICAgICAgICAgICAgICAgICAgICAgICAgICAgICAgICAgICAgICAgICAgICAgICAgICAgICAgICAgICAgICAgICAgICAgICAgICAgICAgICAgICAgICAgICAgICAgICAgICAgICAgICAgICAgICAgICAgICAgICAgICAgICAgICAgICAgICAgICAgICAgICAgICAgICAgICAgICAgICAgICAgICAgICAgICAgICAgICAgICAgICAgICAgICAgICAgICAgICAgICAgICAgICAgICAgICAgICAgICAgICAgICAgICAgICAgICAgICAgICAgICAgICAgICAgICAgICAgICAgICAgICAgICAgICAgICAgICAgICAgICAgICAgICAgICAgICAgICAgICAgICAgICAgICAgICAgICAgICAgICAgICAgICAgICAgICAgICAgICAgICAgICAgICAgICAgICAgICAgICAgICAgICAgICAgICAgICAgICAgICAgICAgICAgICAgICAgICAgICAgICAgICAgICAgICAgICAgICAgICAgICAgICAgICAgICAgICAgICAgICAgICAgICAgICAgICAgICAgICAgICAgICAgICAgICAgICAgICAgICAgICAgICAgICAgICAgICAgICAgICAgICAgICAgICAgICAgICA8P3hwYWNrZXQgZW5kPSJ3Ij8+/9sAQwACAQECAQECAgICAgICAgMFAwMDAwMGBAQDBQcGBwcHBgcHCAkLCQgICggHBwoNCgoLDAwMDAcJDg8NDA4LDAwM/9sAQwECAgIDAwMGAwMGDAgHCAwMDAwMDAwMDAwMDAwMDAwMDAwMDAwMDAwMDAwMDAwMDAwMDAwMDAwMDAwMDAwMDAwM/8AAEQgAiAGQAwERAAIRAQMRAf/EAB0AAQADAQEBAQEBAAAAAAAAAAAHCAkGBQQDAgH/xABWEAABAwMCAwQEBwgNCAsAAAABAAIDBAURBgcIEiEJEzFBFCJRYRUWGTI4UnF1dpSVobGz0zNCU1ZicoGRkrK0wdIXIzZldIKDohgkN0NVV3Okw+Lj/8QAHQEBAAIDAQEBAQAAAAAAAAAAAAYHBAUIAwkCAf/EAE8RAAIBAwEEAwkKCwcDBQEAAAABAgMEEQUGEiExB0FRCBMiYXGBkaGxFBg1cnOSssHR4RUWFzI0NkJSU4LSIzNUYoPi8GOTwkSis8Pxo//aAAwDAQACEQMRAD8A38QBAEAQBAEAQBAEAQBAEAQBAEAQBAEAQBAEAQBAEAQBAEAQBAEAQBAEAQBAEAQBAEAQBAEAQBAEAQBAEAQBAEAQBAEAQBAEAQBAEAQBAEAQBAEAQBAEAQBAEAQBAEAQBAEAQBAEAQBAEAQBAEAQBAEAQBAEAQBAEAQBAEAQBAEAQBAEAQBAEAQBAEAQBAEAQBAEAQBAEAQBAEAQBAEAQBAEAQBAEAQBAEAQBAEAQBAEAQBAEAQBAEAQBAEAQBAEAQBAchUb96Ppd3IdBvv9CNWzwGoZbcky8gbzdSByh3KC4NJ5i3rjCzlpl07V3ig+9p4z/wA9GeWSOz2s0iOrLQ5V4+6WsqHHOMZ8ieOOG8444wdesEkQQBAEAQBAEAQBAEAQBAEAQBAEAQBAEAQBAEAQBAEAQBAEAQBAEAQBAEAQBAEAQBAEAQBAEAQBAEAQBAfzNIIonPPg0ZPTPRf1LLPzJpLLMn+D+73fevtDbFfJHyy1tde6q71T8/MjayVxHuAbysA+wK7depU7TQ50VyUVFeXh/wDpwH0c3N3rXSBQvZNucqs6kn2JKTfmxiK8yL+2/j22xuW9Eeg6e/8AfXmWo9CZKyB5o31GcdyJvml+enToT0znoqwnszqEbT3ZKGI4zz447cdh1rR6WNmqmsrQoXGare6nh7jn+6p8s54dmeGckyrQFkhAEAQBAEAQBAEAQBAEAQBAEAQBAEAQBAEAQBAEAQBAEAQBAEAQBAEAQBAEAQBAEAQBAEAQBAEAQBAQBxXcZk/D5uDZLNR2yluEcsIrbk6Vzg5sJeWhseOgfhrzk5HQDHXKl+z2zMdQt51pya44j5cdfi4ooXpU6Yquyuq22n29GNRNKdTLeVBtpKOP2uDeXlcljjlcTrzhr0pwb8P+6O4GifT5L1erVL6JUVEgebbDO9vqQYaOVoLw7Jy71G9eiybbVrnVb63srzG7GSyl1tdvox2GNqmxmlbI7P6ntBom86tWm92Tae5GbXCGEsJZzl5fBceBntsdpyt1XvTpK2W1r3VtXeKSOHl8WkTMPN/ugFxPsBVpalVhTtKtSpyUX7DkLZWzrXWs2ltbLw5VIJeLwlx8yWfMbTaq3AsOgoIZL5e7TZo6hxbE6urI6dsp9jS8jJ+xc+UbWtWbVGDljsTfsPpdf6vY2EVK+rQpJ8t+SjnyZayerT1EdXTslieySKVoex7SHNcCMggjxBC8WmnhmwhOM4qUXlM/tfw/QQBAEAQBAEAQBAEAQBAEAQBAEAQBAEAQBAEAQBAEAQBAEAQBAEAQBAEAQBAEAQBAEAQBAEAQBAVo40OEG+757jWS72J9GI5KdtvuHfy8no7A9zhKPrdHuBaOuQPacTjZjaShYW06NdPnvRx1vHLxckc3dMnRJqe0ur21/pjjhxVOpvPG6k21NfvcJNNLjlLtePEuPF1Zta7k1O1dzsdNU6FrydMvqjK4VEhx3HeHyDC8YGPWHR2fJZK2brUrRapTm1WXh4xw7ceXHm6jVvpgsbvXJbHXNupWEn7n38veb/u97s3XLgscVwlnqOt4e+z/ANBcJmoK/VlPU3W73GlglMNTcXsd8Hw8pL+7axrRzloILz1xkDGTnT6rtPe6nCNtJKKbXBZ4vqznPDxFi7IdEehbKXE9VpynUnFPEp4e5HHHdSS4tcHJ8ccFjLMz+IDe+78RO6Vz1PeZnyvrJXeiQOOY6Knye7hYPAANxnHick5JVv6XptKxto29Jcub7X1tnEu1+1N3tDqlXU7x53n4K6ox/ZiuxJel5b4s0J7IHWty1Pwy1tDXSSz09gvEtHROeSeSExxy92Pc1z3YHkDjyVWbd21OnqCnDg5RTfly1nz4Ovu521S5utmp0K7bjSqOMc9UXGMseRNvHZnBaxQovwIDm93t0rZsptvdtU3kVTrZZoRPUCnjEkpbzBvqtJGTlw81l2NlUu68beljelyyaXaHXbbRtOq6nd573TWXhZeMpcFldvaV7Pa/7Tg/sOrvxW39YpT+ImpdsfT9xUPvitlOyr8xf1D5YDaf9w1d+K2/rE/EPUu2Pp+4e+K2U7KvzF/UPlgNp/3DV34rb+sT8Q9S7Y+n7h74rZTsq/MX9QHa/wC05P7Dq78Vt/WJ+ImpdsfT9w98Vsp2VfmL+osNtRudbd5NurRqe0NqW229QCopxURiOUNJI9ZoJwentUVvbOpa15W9X86Lw8FwaBrlvrGn0tStM97qLKysPHLisv2kFau7VrbDReq7pZqyHVRq7TVy0U/d21rmd5G8sdg951GWnBUlobE6hWpxqxccSSa49qz2FVah0+bM2V1Vs6yq71OUovEFjMW08eFyyjzvlgNp/wBw1d+K2/rF6/iHqXbH0/cYnvitlOyr8xf1D5YDaf8AcNXfitv6xPxD1Ltj6fuHvitlOyr8xf1Htbb9qHtrulr6z6btkOpxcL5VMo6Yz25rIw9xwOZ3eHA9+Cse72Nv7ajKvUccRWXh/cbPRenTZvVL+jp1squ/VkorMEll9r3ixwOQomXKEBCXEJx/aA4a9cR6dv8AJd6i5upm1T2UFIJxA1xIaHnmGHEAnHswfMKRaXsxe39Hv9HCjnHF4z5OBWO1/S3oOzd6tPv3N1N1SahHewnnGeKw3jOOzj1nw7I9o7tzv3uLR6Xs773TXO4MkdT+nUYgjlcxpcWB3OfWLQSBjrylemo7J31lQdxVw4rnh55+Yxdl+mbZ3XtQhplm5xqTzjfioptLOM5fHGWvIT2oyWwCcBAVy3K7UHbXarX9403dItTG4WSqfSVBgtzXxl7fHld3gyP5FLLTY2/uaMa9NxxJZWX9xTet9Oezml39bTrlVN+lJxeIJrK7HvE7aB1rR7j6ItGoLeJhQXqjirqcTM5JBHIwObzDJwcHqMqNXVvO3rSoT5xbT8xaekanR1Gyo39vncqxjJZ4PEllZXaeuvA2IQEJ8RHHvobhk1zDp7Ucd+fXz0bK5po6ITR925z2jqXjrljumPYpFpWzN5qFF16DjhPHF448PF4ystselnRNmr6On6iqm+4qXgxTWG2ueVx4M7Th94gLFxKaB+MmnW17bd6TJSYrIBDJzx45vVBPTqPNa7VNLrWFbvFfGcJ8OPMkuyO11jtHYfhHT97c3nHwlh5WM8MvtOB357Q3QPDruJNpjUEWoHXKCCKocaShE0XLICW+tzjr09i2embK3t9QVxRcd1tri8cvMRPavpg0LZ7UHpt+qnfEk/BimsS4rjvL2EmbKbwWnfrbS26rsbaxtruokMIqou6l9SR0Zy3Jx6zD5+C1GoWFWyuJW1bG9HHLlxWSbbM7RWmu6bT1Syz3upnG8sPg3F5WX1rtOqWEb4+PUN8h0zYa25VIeaegp5KmXkGXcrGlxwPM4BXpSpupNU4828ekxry6hbUJ3FT82CcnjsSy/YV10T2q22OvtXWiyUMOqRWXqrhoqfvba1rO8leGN5j3hwMuGSpVcbFahRpSrTccRTb49nmKd0zp62Zv7ulZUFV36soxWYLGZNJZe9yyyyyiJdZWvW/aqbX6D1ndrHVs1NLV2asloZ3wW5r4nSRvLHcru8GRkHrhS622K1GtSjWjupSSay+PHj2FK6p09bM2F5VsqyqOVOUovEE1mLw8Pe4rKOn4e+P3QPErrqTTun3XmC5spX1bW19IIGzMYWhwaQ52XDmBx7MnyWHqmzF7YUe/18OOccHn6jd7IdLeg7SXz0+wc1U3XLw47qaWM44vis5x2E2qOlnnGb8772Dhz27qNTajlqGW+CWOAMp4+8mmkkdhrWNyMnxPj4NJ8lsNM02tfV1b0FxeXx5cO0je1e1Vhs9p8tS1FtQTS4LLbbwkllZ7efJMgr5X/afP7Dq78Vt/WKSfiJqXbH0/cVX74rZTsq/MX9ROWht/9O6/2Tg1/RzVMWn56WSrDp4uWZrWOc1zSwEnm5mkBoyScAeKjdzplejduykvDTS8XHxlpaXtbp9/o0deotqg4uXFccJtNYWeOVjCzl8j5NquI2z7qagqLXBTVtBWxNkexlQY3CTuy0SMyxzg2RnOzmYeuHAjIBx6Xuk1baCqSaa4cs9fLmlweHhmNoO2VpqlxK1hFwmsvDxx3WlJeC3iUcrMXx45WVnEgrVkvCAIAgCAIAgCAEZCH8ZQSDhR1VT8WTLWbVX/AAYy9C4fCXdH0b0QTd9z9583mx6vLnPN0wreltDaPSO+763t3d3evexjGOfjz2HB8OirW47dKz7xLvSrd875h7ne9/fzvcs48HGc73DBaak4otvNzdU1eiqe+NmrK9slED3T2w1LnAtcyOUjlc7xxg9cdMqAT0DUbair2VPCWH1ZXja5r/mTqK26UdlNWv57P0blSqTzBcGoybTTUZtbrfPHHj1ZM4dR9nHuxY9zJdN0ela65QNnMVPdIy1tBNFnDZXSk4Z6uCWn1h1GD52pR2t02duq8qiT64/tZ7MdfsORL3oY2qo6m9OpWspxzhVFjca6pOWcLhxafFcsF8dC1OiezS4abPatT3uJtQ9z5pjDG5890rH4dJ3UQ9Ytb6rQTgBrW8xGVWlyrvX9QnVt4cPVGK5Zfr8ucHVmlT0Xo32bo2upVlni3hNyqTfGW7Hm0uCTeEkllrJ4eg+1q2p1nqOO31Tr9p5s7wyOrudIxtNk9BzOje/kHvcAB5kLJudh9SpU9+O7PxJ8fWlnzGr0nugtlry4VvUdSjnlKcUo+dxlLHlawutos3TVMdZTslieyWKVoex7HBzXAjIII8QQoe008MvCE4zipweU+TOS392ji342fvukZ62W3RXynEDqmOMSOiHO12Q0kA/N9vms7TL52d1C5Sy4vOCP7W7PQ1zSK+kzm4KqsZSy1xT5cOwqcexRsxJPx/vHX/VkP+JTf8odX+AvnP7Dn99zLZ/4+fzI/aV847OCai4PW6YNJqCsvnxgNSH9/Ssh7nuhFjHKTnPeefsUp2a2hnqnfN6CjuY5PPPP2FQ9KvRjR2RVs6Nd1e/b/OKjjd3exvnvH78CvA5Q8YFr1LUVeoa2xmwzU8TGwUrJu+71r3EnmIxjl8vavztJtHPS5U4xgpb2eba5YPXoq6LqG11K5qVrh0u9OK4RUs7yb62uWCfB2KNmBB+P946f6sh/xKMflDq/wF85/YWyu5ls/wDHz+ZH7S2exW1MWx20Vh0nDWy3CKxUopm1MkYjdMA4nJaCQPH2qD6leu8uZ3MlhyecHQOy2gR0TSaGlQnvqlHdy1jPFvlx7THTiKdyb967d9XUFxP/ALmVX5pf6FR+LH2I+ce2Hw9ffLVfpyLi6N7HCzap0jarm/Xl2hdcaOGqMYt0JDC+NrsAl3XGVAbjb6rTqyp95XBtc31PyHRum9zhZ3VpSuXfTW/GMsbkeGUn2+M9L5FOyf8AmBePxbD/AI14/lDq/wABfOf2Gd72Wy/x8/mR+06TZ7slrTtJunp/VEOtrpXS2Cujrm077fExsxYc8pcHZAPtWJf7cVLq2nbuklvJrOX1+Y3Wznc/Wmk6pb6nC8lJ0pqWHCKzjqymW+AwAPYoIdEHg7n7h27abb28aku0vdW6y0r6qY+bg0dGj+E44aB5lwWTZ2tS5rxt6X50nhGq1zWLfStPrajdvEKUXJ+bqXjb4Lxsxvulw1HxZcQT5uQ1OodaXUNZHklsPOcNb7mRxgDPk1mVfkI0NMsccoU4+z62/Wz5v162obV7QOWN6vc1OC6ll4S+LCPoSP03M0LqDhO3/qrYah0F60rXsqKKsY0tbMGkSQztH1XDBx73DyKWlzQ1KyVTGYzWGvU15vvP1relahspr0rbexVt5pxkuGceFCS8TWHjyo114eN6KHiB2dserKDlY26U4dPCDk007fVliP8AFeHD3jB81RWq6fOyup20/wBl8PGup+dH0N2P2loa/pFDVaHBVFxX7slwlHzPK8mGdo/5h+xa8kzMaeNn6W24v3cqP7lf+z3wZQ+Kj5tdJ362ah8rI1U4Sfovbefe5QfoGKltd+Ea/wAeXtZ3r0e/qxp/yNP6CJDWpJgEBmP2xX0pLZ97lN+nqFcWwXwdL479iOHe6N/Win8jD6cyyvZD/RJH3brfzxqH7dfCf8sfrLu7nn9U/wDVqfUVO7V76Y9x+5dD/UcpxsT8Fx+NL2nP3T9+t9T5On7GXa7Mj6Eei/4tX/a5lXe2PwvV830UdO9CH6l2X+p/8kyelGS2DnN4P+yfU/3Jq/0D1maf+k0/jL2o0u0fwVc/Jz+izHDhg+kPt598Nt/tEavvWf0Gv8WXsZ84dh/1h0/5al9OJtPf7vFp+x1lfOeWCigfUSH2NY0uP5AufKVNzmoR5vh6T6X3dxC3oTr1OUU2/Iln6jD620lZuxuRTwRuBuGp7o1jS/w72om6E/7z+q6LnKFtbuT5Qj6or7j5e0adbVdSjTX59eol/NUl9rOl2j1vcuFniQtl1qI5Ia3SV3dT3CEdC6Nr3RVEf8rOf8iw7+2p6jYSpx4qccp+tP04N3s9qdzsvtHTuqixO3qNTXiTcZrzrPqNoLZcYLvbqerpZWT01TG2WKRhy2RjgC1w9xBBXP04OMnGXBo+ldCtCrTjVpvMZJNPtT4p+gzu7YrfH4ybkWXQdHMTTaei+EK9rT0dUzNxG0+9kXX/AIqtXYHTe90J3slxnwXkXP0v2HHXdHbU+6NRo6FRfg0Vvz+PJeCv5Y8f5ip2qtuLlo7S2mrvWsEdNqmlmrKIdeYxxzOhJP2lpI9xB81N6F3Tq1KlKHODSflayUBf6Lc2drbXdZYjXjKUfJGTjnztZXiwaH9ldUUe6nBndNL3Lmmp6G51dBJGHFrmxStZM0tI6tOZHEEeBGVVe2inbarG4p83FPzrh9R2H0DTo6psdV0y44xhOcGvFJKaw+p5k8PqaJ12o4cLZtbqSe7Mrqu41j43xxmWOKJrOctMkpbG0B00nIwOkPUhgAA65jV7q1S4pqm0kvP1clx6l1ItTQNjLbS7iV0puc2mllRSWcOUsRSTnLC3pvi0kljiSKtUTIIAgCAIAgCAIAgOP3/lrIdkNXPt3P6a20VRi5fnA907w9+MrZaQoO+oqpy3o59JEdvZ3EdnL+Vp/eKjUxjnndfLxmYVmnnpbpRyURe2pjmjdTlnzg8OBZj35xhXvVUXCSnyw8+TrPmbZzqwr052/wCenFxxzymt3Hnxg1opi80rDIB3nKC4D246/lXO7xngfVynvbic+fX5TJ/tPtaXLVXGJqOlrXy+jWKOnoaKJxPLFF3LJSQP4T5HOPt6exXdsbb06el05Q5yy35ctepI4C6c9Tubra+4pVm92koxiuxbqlw8rk3/APhXzwUpKgNWOyq1ncdX8IlsjuMj5vgauqbbSvf1cYGOa5gz5hvOWj3NA8lSe2tvTpanJw/aSb8r5+nGTvnoF1K4u9kqUbh573KcIt/uppr0ZwvEkiyCiZc4QFDe22/Y9tv41x/NTKzOjr/1H8v/AJHKHdO8tO/1f/rPs7E3/RvcT/bKH9FMvPpD/vKHkl7UZPcxfo2ofGp/RkXmVbnUwPggZiPxEAHf3XWfD4wXDP2ekyLorS/0Kj8SPsR8wtsPh6++Wq/Tkd3at99/qK100NHetyWUcUTGQNipp+QRhoDeXEfhjGPctXPTNFlJuUKeevivtJZb7VbewpRhRrXKiksYjPGMcMeDyxyP3/6QPEP/AOObnfgtR+rX5/BWifuU/SvtPX8bukH+Pc/Nn/SW57LDcDcTXMutvj7XaorBTCi9C+F4pGcnN33Pyc7R7G5x7lBdtLWxo959xqKzvZ3ceLGcHQvQRq+0N8738Ozqy3e97vfE1z384yl4s+Yt6oKdDlCe2H4juZ1r2zts/wBS6XnlP4PCfyyEe6NWZsFpP52oVF4o/W/q9Jyd3Ru2f91s3bS7KlX/AMIv6b/lPl7IbYqioqi5blXqSlie3nttlZLI1rh5VE4BP2Rg/wDqe1em3epTajYUs9svqX1+g8O532UowlU2jvGk+MKWWv55f+K/mOn7W/Y6g11oSi3AtE1HLdNOAUtxZFKwvmo3u9V+AckxyO/oyO9iwthtSnRrOyqp7s+K+MvtXrSN73Qmy1C+sYa9aNOpR8GeGsum3wf8kn6JPsI47IniO+JW49bt9cp+W3amJqbdzu9WKtY31mD2d5G3+lGPattt1pPfaCvqa4w4P4r+x+pkL7njbP3FqM9AuZeBX8KHiqJcV/PFemK7TR93zD9iqY7O6jGnjZ+ltuL93Kj+5X/s98GUPio+bfSd+tmofKyNVOEn6L23n3uUH6BipbXfhGv8eXtZ3r0e/qxp/wAjT+giQ1qSYBAZj9sV9KS2fe5Tfp6hXFsF8HS+O/Yjh3ujf1op/Iw+nMsr2Q/0SR926388ah+3Xwn/ACx+su7uef1T/wBWp9RU3tXvpj3L7l0P9RynGxPwXH40vac/dP3631Pk6fsZdrsxyDwSaLwQcCrB93/W5lXm2PwvV830UdOdB7zsXZ/6n/yTJ7UYLZOb3hIbtNqck4AtNX+gesvT/wBJp/GXtRpdo/gq5+Tn9FmOPDAM8Q+3n3w23+0Rq/NZ/Qa/xZexnzh2H/WHT/lqX04mrnHFrJ2g+ErX1wY7kkNolpYz588+IW4/lkVJbOUO/anRh/mT9HH6jvrpQ1J2Oyl/cJ4fe5RXln4C+kZm8A+kPjnxhaCowzmZTXH05wxkBtPG+b87Arg2nr960utLtWPS0vrOIuiXTvdm19hRxlRnv/MTl9SJG7WTZI7b8RMepKaHkt2tKf0lxDcNFXFysmH2uHdv+1zlqdh9R7/Y+55PjTePM+K+tEz7oHZj8HbQLUaaxTuVveLfjhT9K3ZedlnOzw4m6K68FtRV3urAk23hlpa5znet6NEwyQu6+2P1B7TGoftVo846so0V/fNNeVvD9fHzl49D23FGrsbKtey42SlGfbuRW9B/N8FeNGe7nXvis4hsnmde9cXn7RAZX/kbGz+YMVpf2Om2P+WnH04X1v2nIDd7tTtB/wBW6qejefsjH1Ith2uu0tDoPa7a0WuAQ0FgE1jjwP8Au+5jdHn3/wCacftJUI2Fvp1ri5748uWJet59pf8A3Q2z9Cx0vS/cscQo71JeTdi4/RZ/PYp6y7m/a80+52e/gpLlE3PhyufE8/8ANGv70hW/gUa66m17GvrP53MupYr32nt81Ca8zcX7YmgCq864CAIAgCAIAgCAID/CeiH8ZnXcOJ7VWmuJK5ahmuddJDFdZYKigkmcad9K2UsMHdk8oAYOnTIPXxyrohoNpV02NvGKzupqWOO81nOefP1Hz1uOk3W7Pa+tqlStJxVWUZU23uOmpuLhu8sKK4cMp8eeS01Jwe7a7ZakqNdmCqiprU190FPJOX0VGGNMhkazGfVAJAJIGBgdAq/ntLqVzSVjlZl4OceE88MZ8fWdR23Q9sjpN9LaOMJKNPNRRcs04YW9vKOM8OaTbS6lwRA1t7am3y65MdToirj00+TlZUx1wfWtjz0kMRaGE468gf7slSCfR7PvOY1lv9mOHkznPnwQCj3TNu77dqWTVvn85TTnjt3cJfy73nZ0PGPwW0PG5ZbVuZtvdLfNc6+iYHCV5ZT3aFueQ82MxzM6sIcMdOU8pasTQNoZ6ROWn38Wop+eL6/Knz4eVZybjpI6NKG2tGltJs7Vi6k4rm8RqRXLj+zOP5ryvE8NFdNBdlFu3qjUkdLdrdbtN0Afiatqa6KoDW+ZZHE5znnHgDyg+ZCllztvplOnvUpOb7EmvW8Y9ZTek9AO1dzcqld040IZ4ylOMuHijFtt9nJdrRpNshs9athdrrRpSzNf6DaYeQSSY7yoeSXPleR+2c4kn7cDoFUeo39W9uJXNXnL1di8yO1Nl9nLXQtMo6VZrwKaxl823xcn4222/RyOsWEb8IChvbbfse238a4/mplZnR1/6j+X/wAjlDuneWnf6v8A9Z9nYm/6N7if7ZQ/opl59If95Q8kvajJ7mL9G1D41P6Mi8yrc6mB8EDMRuIpvNv1rwDxN/uIH4TKuitL/QqPxY+xHzC2w+Hr75ar9ORf3QXav7V6b0PZrfUjVJqKGggp5eS2Zbzsja04PP1GQVV9zsTqVStOpHdw23z7X5DrbSen3Ze2sqNvU77vQhFPEOtRSf7R63yvO0n1dWfiv/7rx/EXU/8AL877jY++G2T/AOr8z/ce3tx2n22e6GvbRpy1t1L8I3uqZR03fW7kj53HA5nc5wPfhY13sdqFvRlXqbuIrLw/uNnovTjs3qd9S0+175v1ZKKzDCy+WXvE0btbm23ZzbS9aouz+S32WlfUyDODIQPVjb/Cc4taPe4KPWNnUuriFvS5yePv83MsraDW7fR9NrandvEKUXJ+PsS8beEvGzHPu9T8WW/cndRiu1PrK4ueGF3KxjnZOM9eWONjcZ8msV+Zt9MsuPCFNf8APO362fOHd1PavXnureuLmbfiy+PPqjGK80UTEeyP3cd1MGlT7zdP/wA1ofx60ztl837yx/e9bV/u0v8Auf7QOyP3dHUU+lQfddMf/Gn49aZ2y+b94973tWv2aX/c/wBpC+4m3mqOF/d82u5Ytuo9Pzw1cM1PJzsa71ZIpY3YHMPDy8QQpBaXVvqNr3ynxhJNcfQ0ytdY0fU9mNX9zXHgV6LjJNPKzwlGSfWvvRrtwz75UfEVsjZNVUvIyWug5KyBpz6NUs9WWP8AkcDj2tLT5qitY02djdztpdXJ9qfJ+j1n0N2I2oo7Q6LQ1Slwc14S/dmuEl5ny8TTMp+Nn6W24v3cqP7ldmz3wZQ+KjgfpO/WzUPlZFqdle1n0VtltBpfTtXpzVdRVWK1U1BNLC2n7uR8cbWEtzKDgkdMgFQrUdh7u4uqleNSKUpN9fW/IX1sx3QOjaZpFrp9W3quVKnCDa3MNxik2syTx5jqPloNB/vW1l/Rpf1qw/yfXv8AEh6/sN775bQv8LW//n/WSlwq8emm+LLVlztFls99t09rpG1kj64Qhjml4Zgcj3HOStLrWzNfTKcatWUWpPHDPZnrSJ3sF0r6dtXdVbSyozg6cd5ue7jGccN2TKd9sV9KS2fe5Tfp6hT7YL4Ol8d+xHOHdG/rRT+Rh9OZZXsh/okj7t1v541D9uvhP+WP1l3dzz+qf+rU+orx2xe2tXYt+bNqYQvNuv1rZS97y+qKiBzuZhPtLHsI9uD7FK9gbyM7OVvnwoyz5n96ZTvdHaJWoa5R1JL+zq01HP8Amg3lfNaa8/YfJwI9o/S8NOiH6S1PabhcbHHUvqaOqoCx09J3hy+N0by0OYXZcCHAgkjB6Y/e0uyUr+t7pt5JTxhp8njk8rl2GN0U9M9LZuyek6nSlOipOUZQxvR3uLTi2k1nimnlZfBlkR2vW0hj5saqB+qbV1/r4US/EXUv8vzvuLpXdD7KYz/a/wDb/wBxDPFl2sVHuXtzdNL6Gs10omXqB1JVXO4lkcjIXjD2xRsc71nNJHM4jAJwCcESDQ9iJ29eNxeTT3XlJdvVlvHLsK16QOn+jqWnVdM0SjKKqpxlOeE1F8GoxTfFrhlvgurJBfZ8bV1u6XFhpJlNA99JYqtl4rZA08kEUB5m5PlzScjR7SfcVI9qb2FtptVyfGS3V42/uyyreiDQK2qbVWipx8GlJVJPqShxWfLLCXlLpdr/AKw+AOFultjX4kv15p4HN+syMPmd+VjP51X2wlvv6i6n7sW/ThfWdLd0TqPeNmI2yfGrVivNFOb9aRXDsfNI/DnFBXXJzfUsdjnkDseD5ZI4x/y86lu3lfc09QX7Ul6k39hTHc6af3/aapcvlSpSfnk4xXqyW47S/ZH/ACx8L12npoe9uulj8M0nK3LnNjBEzB9sRece1rVBdkNR9y6jFSfgz8F+fl68HQvTbsx+GNmKs6azUof2kfJH89eeOfOkZd6W3RvGjtGalsNBU91bdWwwQXBn7q2GUSswfLrkH2tJCuWtZUqtWnWmvChlrzrBwtYa9eWdlc2FCWKdwoqa7VGW8vsfibRarsdtkfjPunedc1kXNS6bg9ConOHQ1Uw9dw97Ysj/AIoUL291HvdvCzi+M3l+RcvS/YX13OOy/unU62t1l4NBbsfjzXF/yw+kWB7WzSnxg4RamsDOZ1jutJW5x1aC4wu/JKotsPX3NTUP3oyX1/UW73QWn+6NkpVkv7qpCXpbg/pFROyl1h8V+MK2UhfyMv1vq7e7J6EhgmaP54fyqd7bW/fNLlL91p+vH1nPHQFqPuXa6nSbwq0Jw9W+vXE1XVKHe4QBAEAQBAEAQBAVc4+d89XbP6/0gbBcZqGk7mapfG0AxVkjXtHJICPWbynw/hZ8cKe7IaTZ3lvW90Ry8peNLD4rz+w5i6eNt9d0DVLB6XVcIYlJr9mclJLdl2rHV4888Hh6i4NqHfDUFBuLQXqhtGldRxR3m6U84IkpOYB84Y75uCQ7JdjlOT1HRZVHaadhTlp1SDlUp5jFrk+pZ6/RzNLf9DlvtNeUtq7S4jStLlRrVYyT3o5W9NRfLD45zjdeXxXAkqw8Ue2fFzYtS6A03qSJ9wudtqqGOOaCSnMzHROYZIucDvA0HPTrgZxjqo5V0bUNMnTvbinwTT5p9ecPHIuO0252a2soXOg6bcrfnCcEmpRynFrMcpbyXPhxxxxgyf1loy5bd6quFivFLJR3S0zupaqF4wWPb0/lB8QfAggjxV3W9xTr041qTzGSyjgHU9MudPuqljeR3alNuMk+pr6nzT61hmgvYvapuFy2m1daZ3SPt9qusUlJzdQx00WZGD3ZY12Pa8+1Vb0g0YRuaVWP50ovPmfD2+o697mm/uKmk3drU/Mp1E4/zR8JLzpPyvxl0FX50qEAQBAQnxh8Fdt4wBp8XC+XCzfF81Bj9Fhjk77ve7znn8Md2PD2qRaDtDU0vf3IKW9jm31Z7PKVj0jdGdttb7nVxWlT7zvY3Unne3eeezdP14PeDW3cINvv1Pb73cLyL9LDK81UMcZiMbXtAHL455vP2L869r9TU5QlOCju55ePynr0ddG9vslTr07etKp31xb3kljdTXV5SZ1HyyQRlAU7132P2ntda4vN7l1nfoJbzXz1z4mUkBbG6WRzy0E9cAux1U9ttu69GjCiqSe6kub6lg5z1XudtPvr2teyvJp1Jym1ux4bzbx5snlfIq6b/fzqH8Dp17flCuP4MfSzX+9n03/G1PmwHyKum/386h/A6dPyhXH8GPpY97Ppv+NqfNgdFtF2TFh2k3QsGp6fWF8rJ7DXR1rIJaWFrJSw55SR1APuWJfbb1rm3nbypJKSxnL6zdbO9z/YaTqdDU6d3OTpSUknGKTx1cCY+LDhlHFRoSj07UaiuFhtsNUKqobSQskNW5o9Rri7wa0kux5nHsWh0TWPwdWdeMFKWMLLfDtLG2/2IW1FjHTqlxKlTUt57qT3sck89SfHHbjsOK4Uezo05ws6/qdSU94uF+uL6U0lOauCOMUgcQXuby/tnABufIZ9q2Gt7V19RoqhKKis5eM8ezmRnYHoc07Zi/lqNOrKrNx3VvJLdzzax1tLHkz2liVFS4ggIF4u+AbT/FrqG03atulfY7lbIH0r5qSKOQ1URdzNa4P+q4uwR9cqTaFtNX0yEqUIqUZPPHPB/f8AUVP0h9E2n7V3FK7rVZUqkE45ik95Zyk89jzjys9LhD4PY+EehvNDQ6oul7tt4kZP6NVwRsbTzNHKZGFvm5vKCP4DV467rz1OUJzpqMo8MpviuzzGd0edHUdk4VqFC5lVp1GnuySWJLg2sdqwn5ERlvB2Tdh3e3Rv+qKjV97o579WvrXwRUsLmRF2PVBPUjp5rcWG29a1t4W8aSaisZyyD7RdAFhq2p19TqXc4urJyaUYtLPVxOb+RV03+/nUP4HTrL/KFcfwY+lml97Ppv8AjanzYD5FXTf7+dQ/gdOn5Qrj+DH0se9n03/G1PmwJZ4ReAW1cJGsbreLfqG53iS60TaN0dTBHG2MCQP5gW+eRhaPXdpqmp0o0pwUd154N9mCwejzomtdk7urd29eVR1I7uJJLHHPUfJxX9nbaOKzcqn1JX6lutomp7fHQCCmp4pGFrHyP5su65PeH+ZemibVVdNt3QhTUstvi314+wxtv+h202p1KOo17iVNqChiKi1wcnnj5SQuFfhwo+Fva74r0Nzq7tB6ZNWd/URtjfmTly3DemByrVa1q0tRuPdE4qLwlheImGwmxtHZjTPwZQqOot6UstJPwsdnkOo3R2p09vRo6osOprXTXa11JDnQyggscPB7HDDmPHk5pBCw7O9r2lVVreW7Jf8APOjea7oFhrNnKx1KkqlOXU+3qaa4prqaaZVLWfYv6Qula+Sx6t1DZonnIhqIYq1rPcD6jsfaSfeptb9IN1FYrUoy8mV9pQepdzTpFWblZXdSmn1NRml9F+ls5p3Ykjn6bkO5ffYxn9Osz8on/Q/93+00b7mJZ4ajw+S/3nu6X7FfTNDVsdedbX65Qg5dHSUkNJze7mPeELFrdIVw1/ZUorytv7DbWHczaZCSd5e1JrsjGMPW98tBsdw8aR4dNNPtek7RDbopyH1ExcZKircBgOkkdlzsdcDwGTgBQ7UdVur6p3y5lns7F5EXnsvsfpOz1s7bSqSgnzfOUn2yk+L8XUupI43jB4N6Li9orDTV9/uNlgsUk0zW0sEcnfuka1uXc/hgNOMfWKz9B1+emOcoQUnLHNvhjyEc6RejihtbChTuK8qapOT8FJ5cklxz2Jes+Tg+4GrPwh3C/VVBerhep75HDE51VDHH3DYy84byeOS/rn6oXpr20dXU4wjOCio55Z45x2+Qx+jrottNkqlerQrSqOqorwklhRy+GO3PqJwqaaOsp5IZWNkilaWPY4ZDgRggj2EKOJtPKLQnCM4uEllMphc+xd0rV3Kolg1jf6WCWVz4oW0sDhC0uJDAT1IAwMn2KwIdIFyopSpRb8rOa6/c1aXOpKVO7qRTbwt2Lws8FnxciyXDLw82vhh2npdK2qeesjhmlqZ6qZrWyVUsjslzg3oMANaMeTQolrGq1NQuXc1FjkkuxL/mS6NiNj7XZnSo6Xayckm5OTwnJyfN44csLyJHp77bR0m++0l90jXVE1JS3yn7h88TQ58JDmua4A9CQWg9V46bfSs7mFzBZcXkztqtnqWuaVX0qvJxjVWMrmuKafmaK8bPdlDZdnN07Dqqi1nfKiqsVYyrZDJSQtZNjILCR1AIJHT2qVX+21W6tp206SSksc2U/s50BWWj6pQ1SjeTcqUlJJxjh9qeO1cC2gGAoOdABAEAQBAEAQBAEBG3E5w50XEZoqCglqfg+5W+bv6Gs7vvBE4jDmubkZY4Yzgg5APkt3oWtT02u6iWYyWGv+daK56S+jy32t06NrOfe6tN70J4zhvg01lZjJc+KeUn1EQ7Z7xaL3l2E1hs5oy71lRqKyafrLVD6VB6Obm4RvjdND6x5mGQ4x0cA4HGOq3d/ZXdtfU9Wu4JQnOMnh53eKeH48EF2Z1vRdR2cuditGrOVejRnTW8t3vjUXFyhxeYuT5c0muGOJmhpvUtz271TRXagkmt92stQ2phcMtfBNG7OD9hBBH2hW5Wo069N05rMZLHmZxbZXtzp11C6oNwq0mpLqalF/asNeVGtu4fCrt7xh6Xseo9S2HludbQQTsrKSZ1NUtY+MPEbnt+e0c3QOBx5YVG2mtX2l1J0LefgptYayuDxnxeY+g+sbBaBtdbUNR1Kh/aShFqUW4yw0nhtc0s8Mp46sHe7M7Jaa2B0TFp/S1uZbrcx5meOd0kk8jsc0j3uJLnHA6nyAAwAAtbqGo3F7W7/cSzL6uxIlezWzGm6DZKw0unuQTz1ttvm23xbfs4LgdYsEkAQBAEAQBAEAQBAEAQBAEAQBAEAQBAEAQBAEAQBAEAQBAEAQBAEAQBAEAQBAEAQBAEAQBAEAQBACMhD+MyP1JZLxwfcfMfI2aJ1r1EyqpXDIFXQ1E3THtDopHMPvBHkrypVKWqaLx/ahh+KSX1NZPnxe2t5sjt4t3K73WUo/5qc5exxk4vxprqLzbxdmRttvNuc7VFVHdbXUVc3f3GloJ2x01xdn1nOBaSxzv2xYRnqfEkquLDbC/tLf3PHEkuCbXFevjjqzn0HUu0fQfs5rOp/hOqp05SeZxg0ozfW2mm03+04tZ58+JYWhoYbbRRU9PG2KCBgjjY0YaxoGAAPYAAFFpScm5S5st+lShTgqdNYSWEuxLkfqvyegQBAEAQBAEAQBAEAQBAEAQBAEAQBAEAQBAEAQBAEAQBAEAQBAEAQBAEAQBAEAQBAEAQBAEAQBAEAQHJbgbD6P3U1DZ7tqHT9uutysEwnoKiaP8AzlO4ODh1BHM3mAPK7LcjOMrOtdSuraE6dCbjGXBpdf8Azt5kf1fZXSdUuKN1f28alSi8wk1xT5+dZ44eVnjg61YJIAgCAIAgCAIAgCAIAgCAIAgCAIAgCAIAgCAIAgCAIAgCAIAgCAIAgCAIAgCAIAgCAIAgCAIAgCAIAgCAIAgCAIAgCAIAgCAIAgCAIAgCAIAgCAIAgCAIAgCAIAgCAIAgCAIAgCAIAgCAIAgCAIAgCAIAgCAIAgCAIAgCAIAgCAIAgCAIAgCAIAgCAIAgCAIAgCAIAgCAIAgCAIAgCAIAgCAIAgCAIAgCAIAgCAIAgCAIAgCAIAgCAIAgCAIAgCAIAgCAIAgCAIAgCAIAgCAIAgCAIAgCAIAgCAIAgCAIAgCAIAgCAIAgCAIAgCAIAgCAIAgP/9k=;" parent="1" vertex="1">
                    <mxGeometry x="1177" y="332" width="115.22" height="39.18" as="geometry"/>
                </mxCell>
                <mxCell id="33" style="edgeStyle=none;sketch=0;html=1;exitX=1;exitY=0.5;exitDx=0;exitDy=0;exitPerimeter=0;entryX=0;entryY=0.5;entryDx=0;entryDy=0;entryPerimeter=0;shadow=0;labelBackgroundColor=none;strokeColor=#000000;fontSize=12;fontColor=#000000;" parent="1" source="30" target="32" edge="1">
                    <mxGeometry relative="1" as="geometry"/>
                </mxCell>
                <mxCell id="34" value="persist event to DB" style="edgeLabel;align=center;verticalAlign=middle;resizable=0;points=[];fontSize=12;fontColor=#000000;labelBackgroundColor=#FFFFFF;" parent="33" vertex="1" connectable="0">
                    <mxGeometry x="-0.0278" y="3" relative="1" as="geometry">
                        <mxPoint as="offset"/>
                    </mxGeometry>
                </mxCell>
                <mxCell id="30" value="vdp_events-python" style="sketch=0;points=[[0,0,0],[0.25,0,0],[0.5,0,0],[0.75,0,0],[1,0,0],[0,1,0],[0.25,1,0],[0.5,1,0],[0.75,1,0],[1,1,0],[0,0.25,0],[0,0.5,0],[0,0.75,0],[1,0.25,0],[1,0.5,0],[1,0.75,0]];outlineConnect=0;fontColor=#232F3E;gradientColor=#F78E04;gradientDirection=north;fillColor=#D05C17;strokeColor=#ffffff;dashed=0;verticalLabelPosition=bottom;verticalAlign=top;align=center;html=1;fontSize=12;fontStyle=0;aspect=fixed;shape=mxgraph.aws4.resourceIcon;resIcon=mxgraph.aws4.lambda;labelBackgroundColor=#FFFFFF;" parent="1" vertex="1">
                    <mxGeometry x="873" y="395" width="78" height="78" as="geometry"/>
                </mxCell>
                <mxCell id="32" value="engage.engage_event" style="sketch=0;points=[[0,0,0],[0.25,0,0],[0.5,0,0],[0.75,0,0],[1,0,0],[0,1,0],[0.25,1,0],[0.5,1,0],[0.75,1,0],[1,1,0],[0,0.25,0],[0,0.5,0],[0,0.75,0],[1,0.25,0],[1,0.5,0],[1,0.75,0]];outlineConnect=0;fontColor=#232F3E;gradientColor=#4D72F3;gradientDirection=north;fillColor=#3334B9;strokeColor=#ffffff;dashed=0;verticalLabelPosition=bottom;verticalAlign=top;align=center;html=1;fontSize=12;fontStyle=0;aspect=fixed;shape=mxgraph.aws4.resourceIcon;resIcon=mxgraph.aws4.rds;labelBackgroundColor=#FFFFFF;labelBorderColor=#ffffff;strokeWidth=12;" parent="1" vertex="1">
                    <mxGeometry x="1190" y="398" width="72" height="72" as="geometry"/>
                </mxCell>
            </root>
        </mxGraphModel>
    </diagram>
</mxfile>